<svg width="555" height="554" viewBox="0 0 555 554" fill="none" xmlns="http://www.w3.org/2000/svg">
<path fill-rule="evenodd" clip-rule="evenodd" d="M242.43 236.725C242.042 237.473 240.907 245.035 245.366 245.035C246.146 245.037 246.899 244.758 247.489 244.249C248.079 243.74 248.466 243.036 248.58 242.265C249.521 233.789 243.981 233.817 242.43 236.725ZM282.595 236.614C282.845 239.55 283.177 242.154 286.113 242.154C286.892 242.156 287.646 241.877 288.236 241.368C288.826 240.859 289.213 240.155 289.326 239.384C289.386 237.602 289.19 235.82 288.745 234.094C287.138 231.13 282.18 231.85 282.595 236.614ZM263.205 263.373C264.064 263.373 271.515 263.012 273.26 261.655C273.787 261.267 273.731 260.519 273.731 259.827C273.565 251.969 272.806 244.136 271.46 236.393C271.46 235.977 271.1 235.894 270.878 235.95C270.657 236.005 270.546 236.393 270.573 237.058C270.573 239.329 270.38 240.104 271.183 252.819C271.709 261.129 271.488 258.802 271.654 260.187C269.056 261.139 266.389 261.889 263.676 262.431C261.876 262.818 263.15 263.373 263.205 263.373ZM271.958 282.541C269.903 283.643 267.637 284.294 265.31 284.452C265.193 284.452 265.08 284.499 264.997 284.582C264.914 284.665 264.867 284.778 264.867 284.895C264.867 285.013 264.914 285.126 264.997 285.209C265.08 285.292 265.193 285.339 265.31 285.339C266.612 285.807 268.002 285.975 269.378 285.831C270.753 285.688 272.078 285.236 273.255 284.509C274.432 283.782 275.429 282.8 276.174 281.634C276.918 280.468 277.39 279.15 277.554 277.776C277.568 277.72 277.572 277.661 277.564 277.604C277.555 277.546 277.536 277.491 277.506 277.44C277.477 277.39 277.438 277.346 277.391 277.311C277.345 277.276 277.292 277.251 277.235 277.236C277.179 277.222 277.12 277.218 277.063 277.227C277.005 277.235 276.949 277.254 276.899 277.284C276.849 277.313 276.805 277.353 276.77 277.399C276.735 277.446 276.71 277.499 276.695 277.555C275.574 279.598 273.942 281.316 271.958 282.541ZM147.807 68.9185C154.926 92.7128 180.105 91.5494 183.041 93.3222C183.041 93.5992 188.803 115.787 191.13 118.834C192.432 120.524 195.562 119.859 197.639 119.471C202.515 118.501 208.165 118.197 212.293 114.9C213.345 114.042 212.736 110.552 212.459 109.36C211.577 104.38 210.356 99.4655 208.802 94.6518C208.192 93.1995 207.674 91.71 207.251 90.1921C209.163 88.4988 211.242 87.0045 213.456 85.7324C217.111 83.2425 220.362 80.2063 223.096 76.7299C228.385 68.9815 230.776 59.6177 229.849 50.2821C228.922 40.9466 224.736 32.2358 218.027 25.6788C197.501 5.5409 160.383 12.1058 148.333 37.5067C144.206 46.3153 145.009 59.6667 147.807 68.9185ZM211.018 113.571C207.334 116.535 201.905 116.923 197.168 117.892C195.894 118.169 192.875 118.917 192.072 117.892C190.504 115.63 189.377 113.093 188.748 110.413C195.923 109.402 202.941 107.485 209.633 104.707C210.539 107.575 211.006 110.563 211.018 113.571ZM209.329 103.571C202.251 104.89 195.3 106.818 188.554 109.333C187.838 106.118 186.913 102.953 185.784 99.8594C192.94 99.1099 199.959 97.3761 206.642 94.7072C207.759 97.6353 208.685 100.633 209.412 103.682L209.329 103.571ZM150.078 38.3654C161.685 14.3772 197.168 8.3109 216.558 27.2854C222.861 33.4669 226.803 41.6573 227.704 50.439C228.604 59.2207 226.406 68.0408 221.489 75.3726C216.697 82.1314 207.002 86.785 205.506 89.2226C204.98 90.0813 205.949 92.2696 206.559 93.8208C203.401 94.4302 199.938 95.1781 196.836 95.8706C196.005 92.0757 192.127 76.7576 190.687 73.1566C190.133 71.7162 189.634 71.827 188.166 72.2425C180.078 72.2425 171.186 70.1927 168.333 62.5752C167.988 61.6823 167.746 60.7529 167.613 59.8052C167.225 55.8164 170.383 51.1628 173.873 51.4952C173.374 54.5422 173.873 60.3592 176.477 62.1043C179.08 63.8494 182.017 61.0794 182.017 58.5864C181.869 56.7887 181.284 55.0542 180.314 53.5336C179.344 52.013 178.017 50.7522 176.449 49.8609C176.884 48.872 177.53 47.9897 178.34 47.275C179.15 46.5603 180.107 46.0305 181.142 45.7222C182.178 45.4139 183.268 45.3345 184.337 45.4895C185.407 45.6446 186.43 46.0303 187.335 46.62C185.147 50.8858 187.335 60.6639 191.213 58.3648C195.091 56.0657 193.817 50.4149 191.407 47.2848C190.243 45.7613 189.994 46.1768 190.576 45.7336C195.091 42.4373 200.215 46.2599 202.376 51.2736C205.478 58.1709 198.83 66.6748 194.62 69.2509C194.517 69.3133 194.443 69.4141 194.415 69.531C194.386 69.6478 194.405 69.7713 194.468 69.8741C194.53 69.977 194.631 70.0508 194.748 70.0794C194.865 70.108 194.988 70.0889 195.091 70.0265C200.243 67.0072 206.753 58.1155 203.789 50.6365C200.825 43.1575 193.374 40.2767 188.665 44.7364C187.479 43.9228 186.126 43.3857 184.705 43.1645C183.284 42.9433 181.832 43.0438 180.455 43.4584C179.078 43.8731 177.812 44.5914 176.749 45.5604C175.687 46.5295 174.855 47.7246 174.316 49.0576C169.164 48.3928 164.815 54.4037 165.397 59.8606C165.709 62.2725 166.621 64.5676 168.048 66.5368C169.476 68.506 171.373 70.0866 173.568 71.1345C176.172 72.381 185.424 74.6524 189.08 73.5998C190.354 76.3698 194.98 92.6297 195.811 96.0368C183.512 98.8068 186.005 100.109 185.396 98.3082C184.676 96.0645 184.233 92.7682 183.623 92.5466C168.333 89.0841 154.538 86.5357 149.386 68.3922C146.865 59.6113 146.2 46.5923 150.078 38.3654ZM175.784 52.0492C176.834 52.794 177.711 53.7558 178.356 54.8693C179.001 55.9829 179.399 57.2223 179.524 58.5033C179.524 59.2512 177.834 61.2733 176.754 59.0573C175.927 56.8198 175.633 54.4202 175.895 52.0492H175.784ZM188.858 47.8111C191.074 49.9717 192.459 55.0131 190.05 56.4812C189.214 55.2176 188.673 53.7824 188.467 52.2817C188.261 50.781 188.395 49.2532 188.858 47.8111ZM105.758 153.542C117.032 150.024 130.688 153.071 135.951 165.536C145.065 186.643 120.966 197.391 121.215 198.499C121.769 201.269 122.766 206.117 123.182 208.914C123.215 209.149 123.34 209.362 123.53 209.505C123.719 209.647 123.958 209.709 124.193 209.676C124.428 209.643 124.64 209.518 124.783 209.328C124.926 209.139 124.988 208.9 124.955 208.665C124.622 205.895 124.262 201.906 123.874 199.025C127.791 197.454 131.415 195.235 134.594 192.461C154.15 169.386 132.323 140.274 104.429 149.387C100.012 150.675 96.1055 153.306 93.2515 156.914C90.3974 160.523 88.7372 164.93 88.5014 169.525C87.615 180.439 96.3128 189.857 110.357 188.638C110.568 188.601 110.76 188.49 110.898 188.325C111.036 188.161 111.112 187.953 111.112 187.738C111.112 187.523 111.036 187.315 110.898 187.15C110.76 186.985 110.568 186.875 110.357 186.837C97.8917 187.474 91.216 178.527 92.4071 169.94C92.683 166.168 94.1118 162.572 96.5 159.638C98.8882 156.705 102.12 154.577 105.758 153.542ZM312.65 81.2727C312.885 81.3351 313.135 81.3016 313.346 81.1796C313.556 81.0575 313.709 80.8568 313.772 80.6217C313.834 80.3867 313.801 80.1364 313.678 79.926C313.556 79.7156 313.356 79.5623 313.121 79.4999C301.127 76.1205 297.664 65.5114 301.542 57.7277C303.052 54.2513 305.595 51.3236 308.826 49.3415C312.057 47.3595 315.819 46.419 319.602 46.6477C340.433 47.174 349.574 66.3424 341.762 80.0262C336.583 89.3888 329.658 91.9095 320.794 93.0729C320.514 93.1122 320.254 93.2417 320.054 93.4415C319.854 93.6414 319.725 93.901 319.686 94.1809C319.381 96.7293 318.716 101.743 318.217 104.651C318.17 104.883 318.216 105.124 318.346 105.321C318.476 105.519 318.679 105.656 318.91 105.704C319.141 105.752 319.382 105.706 319.58 105.576C319.777 105.446 319.915 105.243 319.963 105.012C320.6 102.02 321.458 98.5021 322.04 95.5382C326.248 95.3119 330.388 94.3753 334.283 92.7682C343.674 87.2282 349.38 78.475 348.632 67.395C346.887 41.3847 308.938 32.0775 298.024 56.315C293.786 66.1762 298.938 78.1703 312.65 81.2727ZM466.551 211.241C466.233 206.107 464.402 201.181 461.288 197.086C458.292 193.716 454.638 190.994 450.551 189.088C446.463 187.183 442.029 186.134 437.521 186.006C432.933 185.794 428.391 187.012 424.526 189.494C420.66 191.975 417.661 195.596 415.943 199.856C411.594 209.912 416.829 221.629 430.486 224.953C430.607 225.007 430.739 225.035 430.873 225.033C431.006 225.031 431.138 225 431.258 224.942C431.378 224.884 431.484 224.801 431.569 224.697C431.653 224.594 431.714 224.473 431.747 224.344C431.78 224.215 431.784 224.08 431.759 223.949C431.734 223.817 431.681 223.693 431.603 223.585C431.525 223.477 431.424 223.387 431.308 223.322C431.191 223.256 431.062 223.217 430.929 223.208C419.018 219.607 415.472 209.358 419.378 201.435C420.888 197.959 423.431 195.031 426.662 193.049C429.893 191.067 433.655 190.127 437.438 190.355C441.28 190.462 445.06 191.347 448.55 192.956C452.04 194.565 455.167 196.866 457.742 199.718C460.337 203.104 461.878 207.179 462.174 211.435C464.141 235.866 437.826 235.949 437.577 237.888C437.244 240.658 436.635 245.534 436.109 248.359C436.061 248.591 436.107 248.831 436.237 249.029C436.367 249.226 436.57 249.364 436.801 249.412C437.033 249.459 437.273 249.413 437.471 249.283C437.668 249.154 437.806 248.951 437.854 248.719C438.519 245.755 439.35 242.21 439.931 239.246C444.147 239.009 448.294 238.073 452.202 236.476C461.454 231.047 467.299 222.432 466.551 211.241ZM135.508 229.911C136.699 224.98 133.126 219.8 129.58 220.216C127.281 219.967 124.965 219.902 122.655 220.022C116.645 221.462 113.819 229.329 119.47 233.18C125.952 237.501 134.345 234.509 135.508 229.911ZM131.215 229.357C130.231 230.178 129.026 230.689 127.752 230.825C120.218 231.878 118.611 225.285 123.68 223.124L129.636 222.016C132.212 222.238 132.794 227.75 131.215 229.218V229.357ZM315.918 115.233C309.464 112.878 302.484 120.163 307.054 126.313C311.625 132.462 320.683 132.462 323.287 128.363C325.89 124.263 324.311 118.058 320.821 117.283C320.517 117.144 318.107 116.036 315.918 115.233ZM319.409 126.313C318.169 126.735 316.842 126.829 315.556 126.586C314.27 126.343 313.068 125.772 312.068 124.928C311.25 124.34 310.577 123.573 310.101 122.684C309.298 120.44 312.179 118.141 314.284 118.003L320.267 118.862C322.594 120.108 321.431 125.537 319.409 126.396V126.313ZM438.629 261.156C438.075 260.907 435.222 259.716 433.754 259.162C427.272 256.808 420.32 264.093 424.89 270.242C429.461 276.391 438.491 276.392 441.122 272.292C443.754 268.192 442.147 261.932 438.629 261.156ZM437.217 270.325C435.977 270.744 434.651 270.837 433.365 270.594C432.079 270.352 430.878 269.782 429.876 268.94C429.065 268.333 428.394 267.559 427.909 266.669C427.134 264.453 429.987 262.154 432.092 262.015L438.075 262.874C440.402 264.037 439.239 269.439 437.217 270.325Z" fill="black"/>
<path fill-rule="evenodd" clip-rule="evenodd" d="M415.998 413.95C410.458 386.693 388.907 344.7 363.035 333.98L357.828 323.094C357.79 323.015 357.737 322.944 357.67 322.888C357.603 322.832 357.525 322.79 357.441 322.767C357.357 322.743 357.269 322.738 357.183 322.751C357.097 322.764 357.014 322.796 356.941 322.844L351.401 326.418C349.642 314.66 344.269 303.74 336.028 295.172C341.789 286.28 351.013 283.566 360.542 283.15C368.437 282.818 374.254 282.347 378.824 275.588C387.882 262.237 385.749 249.218 375.113 236.808C358.908 217.917 352.537 223.567 344.642 213.125C329.629 193.513 326.222 164.511 304.117 149.415C275.863 130.274 260.628 145.703 254.701 150.467C246.03 145.204 226.696 147.032 218.386 154.151C211.322 160.19 201.96 168.001 198.331 176.727C190.603 195.147 191.434 216.947 180.132 233.65C177.362 237.805 172.625 240.603 169.274 244.536C164.673 250.305 160.76 256.589 157.612 263.262C153.512 271.018 150.382 279.632 154.122 287.665C159.136 298.413 170.354 308.662 182.32 307.886C189.245 307.415 198.414 303.26 204.924 306.003C208.802 307.609 210.297 311.349 213.234 314.479C219.882 321.875 235.394 324.118 243.981 318.994C234.535 331.016 220.131 330.6 195.007 344.45C156.449 365.668 142.377 389.767 138.25 414.448C136.671 422.127 135.506 429.885 134.76 437.688C132.377 477.937 144.593 528.96 184.204 537.408C195.062 539.735 207.5 541.231 218.247 538.544C238.607 533.475 262.9 519.764 280.739 508.628C289.049 503.448 319.796 482.701 334.089 479.986C334.949 487.379 336.813 494.62 339.629 501.509C351.069 525.027 369.379 538.932 395.029 532.893C411.649 528.988 416.385 511.287 416.829 494.335C425.166 476.441 418.546 426.969 415.998 413.95ZM320.156 284.258C325.086 285.172 328.466 289.798 332.122 293.565C341.789 303.233 348.437 313.592 350.432 326.805C342.426 331.902 337.219 335.115 337.108 335.282C336.997 335.448 333.147 325.642 330.82 324.451C327.339 322.723 324.181 320.408 321.485 317.609C319.408 315.31 316.859 311.266 317.192 308.219C318.664 307.435 320.271 306.937 321.928 306.751V305.033C313.369 305.282 310.433 313.094 309.657 314.839C309.103 316.085 308.328 317.332 306.555 317.138C304.782 316.944 304.145 314.894 304.81 313.066C305.475 311.238 307.081 303.205 318.411 301.46C318.552 301.44 318.689 301.392 318.812 301.319C318.936 301.247 319.044 301.15 319.13 301.036C319.216 300.921 319.279 300.791 319.315 300.652C319.35 300.513 319.359 300.369 319.339 300.227C319.319 300.085 319.271 299.949 319.198 299.825C319.125 299.702 319.029 299.594 318.914 299.508C318.8 299.422 318.67 299.359 318.531 299.323C318.392 299.287 318.248 299.279 318.106 299.299C315.735 299.601 313.437 300.323 311.319 301.432C309.416 302.361 307.727 303.676 306.358 305.292C304.99 306.909 303.972 308.792 303.369 310.822C302.04 314.617 297.386 312.928 298.494 309.659C299.609 306.479 301.268 303.518 303.397 300.906C305.761 298.652 308.601 296.958 311.707 295.948C314.145 294.95 316.222 295.421 316.776 294.618C317.33 293.815 316.028 291.128 315.364 290.324C311.79 286.059 301.514 289.743 297.58 284.978C295.059 281.848 300.35 281.737 302.483 281.46C308.466 280.796 314.145 283.122 320.156 284.258ZM330.322 352.899C322.403 355.48 314.325 357.543 306.139 359.076C308.909 343.315 310.793 329.797 310.516 324.894C316.97 326.141 324.366 327.027 332.454 328.357C334.643 331.985 335.834 335.032 336.36 335.891L330.986 339.298C330.709 339.658 330.765 338.162 330.322 352.899ZM300.239 432.924C301.466 438.243 302.336 443.638 302.843 449.073C291.486 448.353 282.816 448.491 278.55 448.325C278.716 440.542 278.8 438.132 278.938 436.497C285.929 434.726 293.053 433.53 300.239 432.924ZM256.667 364.699C272.381 364.811 288.075 363.532 303.563 360.876C298.633 387.468 291.126 419.434 287.58 425.833C279.437 403.617 280.268 403.534 256.667 364.699ZM289.907 425.473C294.395 415.418 301.209 385.419 305.752 360.433C314.02 358.883 322.173 356.773 330.155 354.118C329.297 384.034 329.047 421.373 330.848 451.372C325.585 450.901 317.94 450.237 310.516 449.655C310.045 445.167 308.189 429.545 306.61 425.445C306.195 424.337 305.696 423.894 303.84 423.838C299.208 424.041 294.597 424.588 290.046 425.473H289.907ZM299.796 319.797C296.991 318.157 294.75 315.704 293.37 312.761C294.652 313.302 295.99 313.702 297.359 313.953C297.878 314.537 298.548 314.968 299.295 315.197C300.043 315.427 300.839 315.447 301.597 315.254C302.843 314.867 302.04 314.7 302.705 316.446C302.96 317.149 303.39 317.775 303.954 318.266C304.519 318.756 305.199 319.095 305.931 319.251C306.662 319.406 307.421 319.372 308.136 319.153C308.851 318.933 309.499 318.536 310.017 317.997C311.098 317.027 311.181 315.864 312.483 313.371C313.757 313.122 315.003 312.789 316.222 312.429C319.519 321.071 329.851 325.254 330.571 325.891C318.411 324.091 307.635 322.955 299.935 319.797H299.796ZM246.695 316.473C253.343 308.773 251.986 303.26 245.144 297.803C231.294 286.945 233.011 289.854 227.194 277.721C220.353 258.026 226.253 227.002 231.322 206.809C232.707 201.269 242.152 195.341 249.022 196.228C258.551 197.446 254.562 202.46 262.706 205.313C264.12 205.726 265.582 205.95 267.055 205.978C267.142 206.005 267.234 206.015 267.325 206.007C267.416 205.999 267.505 205.973 267.586 205.93C267.667 205.888 267.739 205.83 267.797 205.759C267.856 205.689 267.9 205.608 267.927 205.521C267.955 205.434 267.964 205.342 267.956 205.251C267.948 205.16 267.922 205.071 267.88 204.99C267.837 204.909 267.779 204.837 267.709 204.778C267.639 204.72 267.558 204.676 267.47 204.648C263.15 202.057 259.168 198.94 255.615 195.369C257.304 188.472 261.598 184.704 269.659 184.649C275.199 184.649 279.575 188.859 283.509 192.46C288.273 196.809 293.397 208.554 293.01 215.008C292.133 222.487 293.886 230.037 297.968 236.365C300.738 241.185 305.946 245.367 309.048 249.439C310.765 251.711 309.768 261.849 308.771 266.309C307.469 270.214 304.699 277.666 304.062 279.355C292.483 279.771 292.982 285.976 298.522 288.635C293.342 294.84 280.683 301.737 289.741 310.435C291.68 314.507 294.782 320.074 298.937 321.764C301.886 322.959 304.936 323.886 308.051 324.534C308.66 328.827 306.666 343.038 303.619 359.574C287.721 362.219 271.618 363.433 255.504 363.203C245.504 346.832 235.56 331.32 233.039 328.827C238.636 325.982 243.391 321.723 246.834 316.473H246.695ZM227.804 331.071C233.344 328.994 230.574 329.354 231.903 330.379C233.233 331.404 242.374 345.891 252.983 363.092C240.407 362.898 226.253 361.957 220.907 361.347C222.513 360.073 218.358 338.19 216.752 335.42C220.768 333.813 224.48 332.401 227.942 331.071H227.804ZM214.702 336.279C216.979 344.435 218.527 352.778 219.328 361.209C207.375 359.496 195.651 356.458 184.37 352.151C194.037 345.968 204.233 340.656 214.84 336.279H214.702ZM217.222 536.55C206.835 539.154 194.675 537.63 184.204 535.386C167.833 531.868 156.504 520.927 149.136 506.911C137.419 484.751 133.929 451.815 137.502 428.741C138.222 424.115 139.136 419.545 139.912 414.891C144.316 388.493 160.354 368.605 182.736 353.564C204.702 361.624 219.466 364.45 253.98 364.644C277.885 403.424 278.412 407.302 285.254 426.276C283.148 426.664 273.398 428.631 271.736 429.988C271.071 430.514 271.071 431.567 271.736 448.214C246.529 448.713 221.876 452.646 198.691 467.604C195.921 447.633 199.107 441.594 205.561 430.154C215.699 412.177 213.871 408.853 207.472 398.631C206.417 397.252 205.662 395.666 205.256 393.978C205.256 393.313 202.486 392.399 206.392 399.269C211.932 409.351 213.428 411.734 203.622 429.046C196.447 441.733 193.511 448.242 197.832 468.186C195.893 469.488 193.677 470.956 191.545 472.674C188.286 474.968 185.228 477.535 182.404 480.346C182.348 480.453 182.338 480.577 182.374 480.691C182.411 480.806 182.491 480.901 182.597 480.956C182.704 481.011 182.828 481.021 182.942 480.985C183.057 480.949 183.152 480.868 183.207 480.762C184.066 479.238 198.386 469.682 202.237 467.715C223.732 456.885 247.499 447.522 286.417 450.098C285.927 466.566 287.631 483.026 291.486 499.044C271.487 511.675 243.067 530.123 217.361 536.55H217.222ZM293.204 497.936C289.645 482.315 288.072 466.307 288.522 450.292C330.571 453.062 317.386 452.176 330.959 453.062C331.457 461.15 332.205 469.931 333.313 477.992C322.455 480.014 302.926 491.925 293.342 497.936H293.204ZM393.865 530.899C369.406 536.688 352.038 523.337 341.014 500.734C328.826 475.804 330.848 367.524 331.54 339.935L356.858 324.257C391.04 398.077 395.14 405.058 402.813 429.517C412.729 460.679 425.803 523.531 394.004 530.899H393.865ZM416.192 488.518C415.55 473.685 413.265 458.97 409.377 444.641C400.596 410.487 391.095 393.368 364.808 338.107L365.584 337.691C388.796 350.101 408.463 388.632 413.615 414.365C416.441 427.8 421.842 471.732 416.33 488.518H416.192Z" fill="black"/>
</svg>