<svg width="725" height="674" viewBox="0 0 725 674" fill="none" xmlns="http://www.w3.org/2000/svg">
<path d="M507.5 204.592C506.469 205.772 505.368 206.897 504.201 207.962C504.076 208.1 503.996 208.27 503.972 208.45C503.947 208.629 503.979 208.812 504.063 208.975C504.147 209.139 504.28 209.277 504.446 209.372C504.612 209.467 504.804 209.515 504.999 209.512C509.203 207.115 512.527 203.59 514.533 199.402C515.04 197.986 512.684 196.706 511.923 198.256C509.929 202.334 502.389 202.57 500.395 201.929C500.121 201.835 499.818 201.847 499.553 201.96C499.288 202.074 499.082 202.281 498.981 202.536C498.88 202.791 498.892 203.072 499.015 203.319C499.137 203.565 499.36 203.756 499.634 203.85C502.158 204.662 504.852 204.916 507.5 204.592ZM494.341 187.405C492.635 188.816 490.831 190.122 488.94 191.314C488.585 191.528 488.295 191.823 488.098 192.171C487.901 192.519 487.804 192.909 487.816 193.302C487.816 194.515 492.384 197.683 492.42 197.717C492.612 197.849 492.848 197.915 493.087 197.901C493.325 197.888 493.551 197.796 493.724 197.643C493.898 197.49 494.007 197.285 494.034 197.064C494.061 196.844 494.003 196.621 493.87 196.436C493.616 195.998 492.166 194.347 491.26 193.235C495.356 189.427 497.205 188.18 495.828 187.236C495.596 187.103 495.323 187.047 495.053 187.077C494.782 187.108 494.531 187.223 494.341 187.405ZM491.188 185.349C492.638 184.742 492.275 183.192 494.015 179.148C494.084 179.002 494.121 178.845 494.125 178.685C494.129 178.526 494.099 178.367 494.036 178.219C493.974 178.07 493.881 177.934 493.762 177.819C493.644 177.704 493.502 177.612 493.344 177.547C493.187 177.483 493.018 177.448 492.847 177.445C492.675 177.442 492.505 177.47 492.345 177.528C492.185 177.585 492.039 177.672 491.915 177.782C491.791 177.893 491.692 178.025 491.623 178.171C489.593 182.114 487.998 182.922 488.65 184.304C488.729 184.537 488.86 184.752 489.035 184.934C489.21 185.115 489.425 185.261 489.665 185.36C489.905 185.458 490.165 185.509 490.427 185.507C490.69 185.505 490.949 185.451 491.188 185.349ZM506.123 189.629C507.573 189.022 507.246 187.438 508.95 183.428C509.089 183.133 509.097 182.799 508.971 182.498C508.846 182.198 508.597 181.957 508.279 181.827C507.962 181.698 507.603 181.691 507.28 181.807C506.957 181.924 506.697 182.156 506.558 182.451C504.89 185.821 502.933 187.236 503.549 188.584C503.632 188.818 503.767 189.033 503.945 189.215C504.124 189.397 504.342 189.542 504.585 189.641C504.828 189.74 505.09 189.789 505.355 189.787C505.62 189.785 505.882 189.731 506.123 189.629ZM210.576 132.811C208.836 120.78 209.163 120.51 208.039 120.51C144.674 120.51 148.045 120.106 148.045 121.353V132.507C148.045 132.979 148.444 133.552 148.951 133.552C213.078 133.754 210.794 134.091 210.576 132.811ZM230.84 120.51C213.513 120.51 214.528 120.51 214.129 120.78C213.73 121.049 213.803 120.544 215.47 133.013C215.47 134.057 215.651 133.754 230.84 133.754C231.08 133.754 231.311 133.665 231.481 133.507C231.651 133.349 231.746 133.135 231.746 132.912V121.319C231.737 121.101 231.637 120.896 231.468 120.745C231.299 120.594 231.074 120.51 230.84 120.51ZM544.765 120.712L521.783 122.195C521.67 122.195 521.559 122.216 521.455 122.257C521.351 122.298 521.258 122.358 521.18 122.434C521.102 122.509 521.041 122.599 521.002 122.697C520.962 122.795 520.944 122.899 520.949 123.004V135.742C520.949 135.966 521.044 136.18 521.214 136.338C521.384 136.496 521.615 136.585 521.855 136.585H544.801C545.042 136.585 545.272 136.496 545.442 136.338C545.612 136.18 545.708 135.966 545.708 135.742C545.708 121.319 546.106 120.679 544.765 120.712ZM159.971 180.698V170.757C159.971 170.533 159.876 170.319 159.706 170.161C159.536 170.003 159.305 169.914 159.065 169.914H150.184C149.943 169.914 149.713 170.003 149.543 170.161C149.373 170.319 149.278 170.533 149.278 170.757C149.278 181.911 149.278 181.372 149.568 181.709C149.858 182.046 149.568 181.979 159.101 181.541C159.332 181.524 159.549 181.429 159.709 181.274C159.87 181.119 159.963 180.914 159.971 180.698ZM211.736 167.656C162.146 170.049 163.995 169.544 163.995 170.757C163.995 181.069 163.995 180.563 164.249 180.867C164.503 181.17 161.711 181.136 211.773 180.462C212.013 180.462 212.243 180.374 212.413 180.216C212.583 180.058 212.679 179.843 212.679 179.62V168.499C212.684 168.384 212.664 168.269 212.618 168.162C212.572 168.056 212.502 167.959 212.413 167.879C212.324 167.8 212.217 167.738 212.1 167.7C211.984 167.662 211.86 167.647 211.736 167.656ZM285.251 167.623V177.396C285.251 177.619 285.347 177.833 285.517 177.991C285.687 178.149 285.917 178.238 286.158 178.238C298.628 178.238 298.011 178.238 298.41 177.935C298.809 177.632 298.736 177.935 297.105 167.488C297.105 166.477 296.561 166.78 286.23 166.78C286.105 166.771 285.979 166.786 285.861 166.824C285.743 166.862 285.634 166.923 285.542 167.002C285.45 167.081 285.377 167.177 285.327 167.284C285.277 167.391 285.251 167.506 285.251 167.623ZM338.648 178.07C339.046 177.632 338.938 178.07 337.669 168.162C337.669 167.117 339.481 167.488 303.92 166.881C303.791 166.88 303.664 166.905 303.546 166.954C303.428 167.002 303.323 167.073 303.238 167.163C303.152 167.252 303.087 167.357 303.049 167.471C303.01 167.586 302.998 167.706 303.014 167.825C304.391 178.339 304.138 178.339 305.225 178.339C340.75 178.339 338.249 178.609 338.648 178.07ZM345.245 178.238C360.688 178.643 359.745 178.71 360.144 178.238C360.543 177.766 360.434 178.474 360.434 167.522C360.424 167.295 360.321 167.081 360.145 166.924C359.97 166.767 359.735 166.679 359.491 166.679C342.671 167.286 343.65 167.117 343.288 167.522C342.925 167.926 343.034 167.522 344.375 177.396C344.391 177.609 344.486 177.81 344.646 177.964C344.805 178.118 345.017 178.215 345.245 178.238ZM163.814 221.307C165.953 208.838 165.953 209.512 165.554 209.107C165.155 208.703 165.771 208.77 153.084 209.411C152.856 209.428 152.644 209.524 152.489 209.68C152.335 209.836 152.249 210.041 152.25 210.253V221.913C152.25 222.137 152.346 222.351 152.516 222.509C152.685 222.667 152.916 222.756 153.156 222.756L163.125 222.014C163.306 221.98 163.47 221.892 163.594 221.765C163.718 221.638 163.795 221.477 163.814 221.307ZM180.779 220.565C180.779 208.332 180.779 209.006 180.489 208.636C180.199 208.265 180.706 208.4 170.665 208.804C169.614 208.804 169.831 208.804 168.418 220.464C168.402 220.583 168.414 220.704 168.453 220.818C168.491 220.932 168.556 221.037 168.641 221.127C168.727 221.216 168.832 221.287 168.95 221.336C169.068 221.384 169.195 221.409 169.324 221.408H179.873C180.113 221.408 180.343 221.319 180.513 221.161C180.683 221.003 180.779 220.789 180.779 220.565ZM198.904 208.197C198.904 220.397 198.904 219.723 199.158 220.094C199.411 220.464 194.046 220.633 288.151 215.814C288.277 215.806 288.4 215.774 288.512 215.719C288.624 215.664 288.722 215.589 288.801 215.497C288.879 215.405 288.936 215.298 288.968 215.185C289 215.071 289.006 214.952 288.985 214.836L286.665 201.087C286.629 200.875 286.508 200.684 286.326 200.553C286.144 200.422 285.916 200.359 285.686 200.379C194.59 207.86 198.904 206.984 198.904 208.197ZM319.254 213.657C319.254 197.649 319.254 198.593 318.964 198.222C318.674 197.852 320.233 197.784 292.683 200.312C292.436 200.345 292.212 200.465 292.057 200.647C291.902 200.828 291.828 201.058 291.849 201.289C294.169 215.409 293.879 215.477 294.966 215.477L318.384 214.499C318.618 214.491 318.839 214.398 319.001 214.241C319.164 214.084 319.254 213.875 319.254 213.657ZM339.228 198.829V213.252C339.228 213.476 339.323 213.69 339.493 213.848C339.663 214.006 339.893 214.095 340.134 214.095H363.225C363.465 214.095 363.696 214.006 363.866 213.848C364.036 213.69 364.131 213.476 364.131 213.252C364.131 196.739 364.131 197.852 363.841 197.481C363.551 197.11 365.255 197.144 340.098 197.986C339.864 197.995 339.642 198.088 339.48 198.245C339.318 198.402 339.227 198.611 339.228 198.829ZM455.155 157.007C429.78 158.456 430.614 157.984 430.614 159.13V172.172C430.614 172.396 430.709 172.61 430.879 172.768C431.049 172.926 431.28 173.015 431.52 173.015H455.228C455.468 173.015 455.698 172.926 455.868 172.768C456.038 172.61 456.134 172.396 456.134 172.172C456.134 157.85 456.533 156.94 455.155 157.007ZM173.638 266.633C174.761 249.985 174.798 251.333 174.435 250.963C174.073 250.592 175.523 250.693 154.788 250.693C154.547 250.693 154.317 250.782 154.147 250.94C153.977 251.098 153.881 251.312 153.881 251.536V266.6C153.881 266.823 153.977 267.037 154.147 267.195C154.317 267.353 154.547 267.442 154.788 267.442H172.731C172.963 267.434 173.183 267.348 173.351 267.199C173.518 267.049 173.62 266.848 173.638 266.633ZM221.306 249.75C221.072 249.758 220.851 249.851 220.689 250.008C220.527 250.165 220.436 250.374 220.436 250.592V263.364C220.436 263.588 220.532 263.802 220.702 263.96C220.872 264.118 221.102 264.207 221.343 264.207H235.625C235.865 264.207 236.096 264.118 236.266 263.96C236.436 263.802 236.531 263.588 236.531 263.364V250.087C236.522 249.86 236.419 249.646 236.243 249.489C236.067 249.332 235.833 249.244 235.589 249.244L221.306 249.75ZM305.08 247.155C238.489 248.772 241.896 248.604 241.896 249.817C241.896 264.139 241.896 263.297 242.15 263.668C242.404 264.038 238.525 264.072 305.153 262.589C305.384 262.573 305.6 262.478 305.761 262.322C305.921 262.167 306.014 261.962 306.023 261.747V247.997C306.028 247.882 306.007 247.768 305.961 247.661C305.916 247.554 305.846 247.457 305.756 247.378C305.667 247.298 305.561 247.237 305.444 247.198C305.328 247.16 305.203 247.145 305.08 247.155ZM362.935 246.851C361.413 260.736 361.376 259.893 361.775 260.331C362.174 260.769 359.854 260.601 390.558 260.601C390.708 260.614 390.86 260.592 391 260.537C391.139 260.481 391.261 260.394 391.355 260.284C391.448 260.173 391.511 260.042 391.536 259.903C391.562 259.765 391.549 259.622 391.5 259.489C388.31 245.503 388.636 245.436 387.549 245.47C362.174 246.009 363.044 245.807 362.935 246.851ZM398.351 260.432H408.791C409.02 260.433 409.24 260.354 409.408 260.21C409.576 260.066 409.679 259.869 409.698 259.657C411.22 244.189 411.256 245.166 410.821 244.762C410.386 244.358 411.474 244.459 394.545 245.402C394.415 245.413 394.288 245.45 394.175 245.511C394.061 245.572 393.963 245.654 393.887 245.754C393.812 245.853 393.76 245.966 393.736 246.086C393.712 246.206 393.716 246.329 393.748 246.447C397.735 260.837 397.373 260.432 398.351 260.432ZM258.68 114.781C245.159 124.183 243.274 125.093 243.201 126.273C243.201 128.059 250.451 134.091 250.705 134.159C250.906 134.261 251.138 134.299 251.365 134.268C251.592 134.236 251.802 134.136 251.962 133.983C252.123 133.831 252.225 133.633 252.253 133.422C252.281 133.21 252.234 132.995 252.119 132.811C250.995 131.429 248.24 127.958 247.37 126.812C249.146 125.194 256.686 119.263 260.239 116.702C261.544 115.758 259.985 113.871 258.68 114.781ZM309.865 113.905C309.642 113.742 309.364 113.659 309.081 113.669C308.798 113.679 308.528 113.782 308.319 113.96C308.11 114.138 307.976 114.38 307.94 114.641C307.905 114.902 307.97 115.167 308.125 115.388C311.372 119.418 314.315 123.652 316.934 128.059C316.934 128.396 311.641 134.394 309.503 137.461C309.356 137.66 309.297 137.904 309.337 138.142C309.378 138.38 309.515 138.595 309.72 138.742C309.925 138.881 310.173 138.957 310.427 138.957C310.681 138.957 310.929 138.881 311.134 138.742C313.164 136.753 318.928 130.654 319.725 129.508C321.9 126.239 314.94 119.027 309.865 113.905ZM273.941 116.23C273.303 116.037 272.628 115.974 271.961 116.043C271.295 116.112 270.651 116.313 270.075 116.632C269.498 116.951 269.002 117.381 268.618 117.893C268.235 118.405 267.973 118.987 267.851 119.6C267.558 122.208 267.437 124.83 267.489 127.452H263.864C263.505 127.504 263.178 127.674 262.942 127.93C262.705 128.187 262.576 128.513 262.576 128.851C262.576 129.188 262.705 129.515 262.942 129.771C263.178 130.028 263.505 130.197 263.864 130.249L267.67 130.789C267.645 132.593 267.779 134.396 268.069 136.181C268.395 138 271.15 137.63 271.368 135.945C271.513 134.33 271.513 132.707 271.368 131.092C273.071 131.092 274.739 131.092 274.993 129.542C275.246 127.991 273.071 127.756 271.368 127.621C271.041 120.611 271.803 119.566 271.948 119.398C272.926 118.69 274.485 119.398 273.035 121.521C272.866 121.755 272.801 122.04 272.855 122.317C272.909 122.594 273.078 122.841 273.325 123.004C275.065 124.217 277.856 117.949 273.941 116.23ZM285.795 127.048C284.226 127.149 282.652 127.149 281.083 127.048C280.775 127.048 280.48 127.161 280.262 127.364C280.045 127.566 279.923 127.84 279.923 128.126C279.923 128.412 280.045 128.687 280.262 128.889C280.48 129.091 280.775 129.205 281.083 129.205L284.708 129.643C286.701 129.912 285.614 129.171 286.158 133.653C286.158 134.127 286.36 134.581 286.72 134.916C287.081 135.251 287.569 135.439 288.079 135.439C288.588 135.439 289.077 135.251 289.437 134.916C289.798 134.581 290 134.127 290 133.653C289.979 132.526 289.894 131.402 289.746 130.283H291.813C292.293 130.283 292.754 130.106 293.094 129.79C293.434 129.474 293.625 129.045 293.625 128.598C293.625 128.151 293.434 127.723 293.094 127.407C292.754 127.091 292.293 126.913 291.813 126.913C288.804 126.913 289.239 127.115 289.166 126.576C288.876 125.026 288.586 123.442 288.441 121.892C288.441 121.606 288.319 121.331 288.102 121.129C287.884 120.927 287.589 120.813 287.281 120.813C286.974 120.813 286.679 120.927 286.461 121.129C286.244 121.331 286.121 121.606 286.121 121.892C285.94 124.049 285.795 126.239 285.795 127.048Z" fill="black"/>
<path d="M304.5 126.374C304.315 124.976 304.206 123.57 304.174 122.161C304.125 121.904 303.98 121.671 303.764 121.502C303.549 121.334 303.277 121.242 302.995 121.242C302.714 121.242 302.442 121.334 302.226 121.502C302.011 121.671 301.866 121.904 301.817 122.161C301.817 123.678 301.6 125.093 301.455 126.61C300.067 126.69 298.674 126.69 297.286 126.61C296.964 126.659 296.67 126.813 296.459 127.044C296.247 127.276 296.131 127.57 296.131 127.874C296.131 128.177 296.247 128.471 296.459 128.703C296.67 128.934 296.964 129.088 297.286 129.137C298.627 129.137 299.86 129.34 301.237 129.441C300.947 132.406 300.657 135.406 303.086 135.406C305.515 135.406 305.225 132.373 304.935 129.575C306.929 129.575 309.539 129.575 309.466 127.823C309.394 126.071 306.602 126.205 304.5 126.374ZM230.84 146.156C226.272 147.268 223.59 151.48 223.155 157.378C222.974 162.264 224.46 168.465 219.856 171.33C219.537 171.528 219.287 171.81 219.139 172.14C218.991 172.469 218.95 172.832 219.022 173.183C219.675 176.149 225.402 171.903 224.242 184.506C223.804 186.109 223.814 187.79 224.271 189.388C224.728 190.986 225.616 192.45 226.852 193.639C227.995 194.392 229.307 194.892 230.689 195.103C232.071 195.313 233.486 195.227 234.827 194.852C235.077 194.793 235.298 194.658 235.456 194.469C235.614 194.28 235.7 194.047 235.7 193.808C235.7 193.568 235.614 193.336 235.456 193.146C235.298 192.957 235.077 192.822 234.827 192.763C232.326 192.426 229.426 192.763 228.121 190.775C227.014 188.047 226.85 185.067 227.65 182.249C228.013 180.436 227.896 178.568 227.309 176.806C226.721 175.045 225.681 173.443 224.279 172.139C230.477 165.095 222.575 151.11 231.529 148.279C231.761 148.147 231.941 147.947 232.038 147.71C232.135 147.473 232.145 147.213 232.067 146.97C231.988 146.727 231.825 146.516 231.603 146.368C231.381 146.221 231.112 146.146 230.84 146.156ZM276.334 148.549C273.615 145.751 269.809 147.099 266.909 146.628C266.74 146.594 266.565 146.593 266.395 146.622C266.226 146.651 266.064 146.712 265.919 146.799C265.774 146.887 265.649 147 265.552 147.133C265.454 147.265 265.385 147.414 265.35 147.571C265.314 147.728 265.312 147.89 265.344 148.048C265.375 148.206 265.44 148.357 265.534 148.491C265.629 148.626 265.751 148.742 265.893 148.833C266.035 148.923 266.196 148.987 266.365 149.02C269.41 149.56 272.817 148.751 274.086 151.312C276.479 156.232 271.005 168.937 275.717 174.329C271.512 179.081 276.515 186.596 272.745 190C271.331 191.163 269.484 191.768 267.597 191.685C267.316 191.638 267.027 191.69 266.785 191.83C266.542 191.969 266.363 192.187 266.283 192.441C266.202 192.696 266.225 192.969 266.347 193.208C266.469 193.448 266.682 193.637 266.945 193.74C267.99 194.055 269.091 194.174 270.186 194.092C271.28 194.01 272.347 193.727 273.323 193.26C274.3 192.794 275.168 192.152 275.878 191.373C276.587 190.594 277.124 189.692 277.457 188.719C277.942 186.745 277.942 184.694 277.457 182.72C276.261 174.666 279.959 176.857 280.031 174.464C280.104 172.071 276.66 173.925 277.276 166.949C278.255 157.816 279.524 151.817 276.334 148.549Z" fill="black"/>
<path d="M239.866 162.029C238.708 161.959 237.551 162.186 236.522 162.685C235.493 163.185 234.631 163.937 234.03 164.86C233.177 165.599 232.542 166.53 232.187 167.562C231.831 168.595 231.767 169.695 232 170.757C232.796 172.414 234.183 173.764 235.927 174.581C237.67 175.398 239.663 175.63 241.57 175.239C240.736 178.609 239.757 180.159 235.081 179.283C234.756 179.264 234.434 179.353 234.172 179.534C233.911 179.715 233.727 179.976 233.653 180.271C233.579 180.566 233.62 180.876 233.769 181.145C233.917 181.415 234.164 181.627 234.465 181.743C238.742 182.687 242.802 181.743 244.107 177.969C248.167 168.499 244.107 162.804 239.866 162.029ZM238.525 172.139C236.168 171.364 235.588 170.454 235.407 169.78C235.226 169.106 235.733 167.893 236.748 166.781C237.763 165.668 238.416 164.893 239.431 165.264C243.273 166.781 242.875 173.655 238.525 172.24V172.139ZM257.048 170.252C250.922 169.241 247.152 175.981 249.798 179.148C251.07 180.297 252.774 180.94 254.547 180.94C256.32 180.94 258.024 180.297 259.296 179.148C259.296 179.991 259.296 180.935 259.513 181.44C259.522 181.673 259.623 181.895 259.797 182.063C259.971 182.231 260.206 182.333 260.456 182.35C260.709 182.35 260.953 182.259 261.135 182.095C261.318 181.932 261.425 181.709 261.435 181.474C261.435 180.193 262.087 174.397 261.942 173.992C261.585 173.005 260.937 172.132 260.072 171.47C259.207 170.809 258.159 170.387 257.048 170.252ZM258.498 174.329C258.498 175.34 257.157 176.958 256.505 177.295C254.692 178.205 252.88 178.137 252.445 177.531C252.01 176.924 253.423 173.184 255.635 173.184C256.468 173.184 258.317 173.521 258.498 174.329ZM471.612 120.746C466.356 119.87 461.426 126.105 463.492 131.362C463.975 132.879 465.017 134.19 466.435 135.065C467.854 135.94 469.558 136.323 471.25 136.147C481.255 135.17 479.188 122.061 471.612 120.746ZM471.25 132.744C466.646 133.755 465.015 128.329 467.625 125.195C467.977 124.722 468.441 124.331 468.982 124.05C469.522 123.77 470.124 123.608 470.742 123.577C471.609 123.722 472.428 124.054 473.133 124.545C473.838 125.037 474.409 125.675 474.802 126.408C475.234 127.686 475.102 129.071 474.436 130.259C473.77 131.447 472.624 132.341 471.25 132.744ZM492.202 121.825C491.876 124.251 489.773 133.283 489.737 135.642C489.786 136.029 489.973 136.39 490.268 136.668C490.564 136.945 490.95 137.123 491.366 137.174C491.782 137.224 492.205 137.144 492.566 136.946C492.928 136.747 493.208 136.443 493.362 136.08C493.942 133.721 494.305 124.386 494.595 122.061C494.885 120.544 492.42 120.376 492.202 121.825ZM481.182 134.968C480.96 134.908 480.726 134.893 480.497 134.925C480.268 134.957 480.05 135.036 479.856 135.154C479.663 135.273 479.5 135.429 479.379 135.612C479.257 135.795 479.18 136.001 479.152 136.215C478.826 138.978 475.273 139.821 476.397 141.27C476.552 141.481 476.786 141.633 477.053 141.695C477.32 141.757 477.603 141.726 477.847 141.607C478.914 141.157 479.869 140.505 480.649 139.693C481.429 138.88 482.018 137.925 482.378 136.889C482.438 136.69 482.455 136.481 482.427 136.276C482.399 136.071 482.327 135.873 482.216 135.694C482.104 135.515 481.955 135.358 481.778 135.234C481.6 135.109 481.398 135.019 481.182 134.968ZM455.807 132.508C455.807 131.757 455.486 131.037 454.915 130.506C454.344 129.975 453.57 129.677 452.762 129.677C451.954 129.677 451.18 129.975 450.609 130.506C450.038 131.037 449.717 131.757 449.717 132.508C449.717 133.258 450.038 133.978 450.609 134.509C451.18 135.04 451.954 135.338 452.762 135.338C453.57 135.338 454.344 135.04 454.915 134.509C455.486 133.978 455.807 133.258 455.807 132.508ZM367.901 175.88C367.901 176.63 368.222 177.35 368.793 177.881C369.364 178.412 370.138 178.71 370.946 178.71C371.753 178.71 372.528 178.412 373.099 177.881C373.67 177.35 373.991 176.63 373.991 175.88C373.991 175.129 373.67 174.409 373.099 173.878C372.528 173.347 371.753 173.049 370.946 173.049C370.138 173.049 369.364 173.347 368.793 173.878C368.222 174.409 367.901 175.129 367.901 175.88ZM184.875 262.859C184.921 262.464 184.878 262.064 184.747 261.685C184.616 261.306 184.401 260.958 184.115 260.661C183.83 260.365 183.48 260.128 183.089 259.966C182.699 259.804 182.276 259.72 181.848 259.72C181.42 259.72 180.997 259.804 180.606 259.966C180.215 260.128 179.866 260.365 179.58 260.661C179.295 260.958 179.08 261.306 178.949 261.685C178.818 262.064 178.774 262.464 178.821 262.859C178.774 263.255 178.818 263.655 178.949 264.033C179.08 264.412 179.295 264.761 179.58 265.057C179.866 265.353 180.215 265.59 180.606 265.752C180.997 265.915 181.42 265.999 181.848 265.999C182.276 265.999 182.699 265.915 183.089 265.752C183.48 265.59 183.83 265.353 184.115 265.057C184.401 264.761 184.616 264.412 184.747 264.033C184.878 263.655 184.921 263.255 184.875 262.859ZM206.262 260.467C206.262 261.217 206.583 261.937 207.154 262.468C207.725 262.999 208.5 263.297 209.307 263.297C210.115 263.297 210.889 262.999 211.46 262.468C212.031 261.937 212.352 261.217 212.352 260.467C212.352 259.716 212.031 258.996 211.46 258.465C210.889 257.934 210.115 257.636 209.307 257.636C208.5 257.636 207.725 257.934 207.154 258.465C206.583 258.996 206.262 259.716 206.262 260.467ZM347.456 253.861C346.701 253.938 346.003 254.271 345.496 254.796C344.989 255.322 344.708 256.003 344.708 256.709C344.708 257.415 344.989 258.096 345.496 258.622C346.003 259.147 346.701 259.48 347.456 259.557C348.211 259.48 348.909 259.147 349.416 258.622C349.923 258.096 350.203 257.415 350.203 256.709C350.203 256.003 349.923 255.322 349.416 254.796C348.909 254.271 348.211 253.938 347.456 253.861ZM382.872 177.497C383.275 177.506 383.675 177.44 384.049 177.301C384.423 177.162 384.763 176.953 385.047 176.689C385.332 176.424 385.556 176.108 385.706 175.761C385.855 175.413 385.927 175.041 385.917 174.666C385.835 173.965 385.477 173.316 384.911 172.844C384.346 172.373 383.613 172.112 382.854 172.112C382.095 172.112 381.362 172.373 380.797 172.844C380.231 173.316 379.873 173.965 379.791 174.666C379.781 175.044 379.854 175.419 380.005 175.769C380.157 176.119 380.384 176.436 380.673 176.701C380.962 176.966 381.306 177.174 381.684 177.311C382.062 177.448 382.467 177.511 382.872 177.497ZM187.485 101.605C188.138 101.534 188.74 101.242 189.177 100.786C189.614 100.329 189.856 99.7391 189.856 99.1278C189.856 98.5166 189.614 97.9266 189.177 97.4699C188.74 97.0133 188.138 96.7218 187.485 96.6509C186.832 96.7218 186.229 97.0133 185.792 97.4699C185.355 97.9266 185.113 98.5166 185.113 99.1278C185.113 99.7391 185.355 100.329 185.792 100.786C186.229 101.242 186.832 101.534 187.485 101.605ZM200.861 101.605C201.514 101.534 202.116 101.242 202.553 100.786C202.991 100.329 203.232 99.7391 203.232 99.1278C203.232 98.5166 202.991 97.9266 202.553 97.4699C202.116 97.0133 201.514 96.7218 200.861 96.6509C200.208 96.7218 199.605 97.0133 199.168 97.4699C198.731 97.9266 198.49 98.5166 198.49 99.1278C198.49 99.7391 198.731 100.329 199.168 100.786C199.605 101.242 200.208 101.534 200.861 101.605ZM215.325 101.571C215.978 101.5 216.58 101.209 217.017 100.752C217.454 100.295 217.696 99.7054 217.696 99.0941C217.696 98.4829 217.454 97.8929 217.017 97.4362C216.58 96.9796 215.978 96.6881 215.325 96.6172C214.672 96.6881 214.069 96.9796 213.632 97.4362C213.195 97.8929 212.953 98.4829 212.953 99.0941C212.953 99.7054 213.195 100.295 213.632 100.752C214.069 101.209 214.672 101.5 215.325 101.571ZM202.021 240.112C202.116 239.933 202.159 239.735 202.146 239.536C202.133 239.337 202.064 239.145 201.947 238.979C201.83 238.812 201.668 238.677 201.478 238.586C201.287 238.495 201.075 238.452 200.861 238.46C199.918 238.46 199.737 239.37 199.012 240.685C193.973 249.986 187.195 262.59 186.687 264.275C186.552 264.631 186.569 265.022 186.734 265.368C186.899 265.714 187.199 265.988 187.574 266.134C187.949 266.28 188.37 266.288 188.751 266.155C189.132 266.023 189.444 265.76 189.623 265.42C190.892 263.567 200.752 242.37 202.021 240.112ZM212.28 237.011C212.172 236.836 212.016 236.691 211.828 236.59C211.64 236.489 211.427 236.435 211.21 236.435C210.993 236.435 210.78 236.489 210.592 236.59C210.404 236.691 210.249 236.836 210.141 237.011C204.16 248.57 195.025 265.05 194.662 266.33C194.609 266.568 194.612 266.814 194.673 267.05C194.733 267.286 194.849 267.507 195.012 267.697C195.174 267.886 195.38 268.041 195.614 268.148C195.848 268.256 196.105 268.314 196.366 268.319C197.78 268.319 198.251 267.881 210.576 241.83C212.316 238.292 212.823 237.786 212.28 237.011ZM321.936 265.252C318.399 260.481 316.383 254.879 316.12 249.09C315.857 243.301 317.358 237.56 320.45 232.529C320.623 232.288 320.685 231.993 320.624 231.708C320.563 231.424 320.383 231.174 320.123 231.013C319.864 230.852 319.546 230.793 319.24 230.85C318.934 230.907 318.665 231.075 318.492 231.316C314.294 236.421 312.169 242.74 312.494 249.158C312.819 255.577 315.573 261.683 320.268 266.398C320.455 266.524 320.681 266.591 320.912 266.59C321.143 266.59 321.368 266.52 321.553 266.393C321.739 266.265 321.876 266.085 321.945 265.88C322.014 265.675 322.011 265.455 321.936 265.252Z" fill="black"/>
<path d="M352.059 228.957C349.522 229.867 354.887 232.664 354.053 248.739C353.328 262.219 347.927 266.499 348.797 267.847C348.89 267.972 349.015 268.074 349.16 268.145C349.305 268.215 349.467 268.252 349.63 268.252C349.794 268.252 349.956 268.215 350.101 268.145C350.246 268.074 350.371 267.972 350.464 267.847C354.331 262.191 356.641 255.737 357.191 249.055C357.741 242.372 356.514 235.667 353.618 229.53C353.491 229.264 353.256 229.054 352.965 228.947C352.673 228.84 352.348 228.844 352.059 228.957ZM322.914 248.099C317.042 252.008 322.008 258.209 327.989 256.658V265.791C327.989 267.173 326.467 267.88 325.56 266.701C325.386 266.483 325.13 266.334 324.843 266.284C324.555 266.234 324.258 266.286 324.011 266.431C323.764 266.576 323.584 266.802 323.509 267.065C323.433 267.327 323.467 267.606 323.603 267.847C324.036 268.507 324.683 269.022 325.452 269.317C326.221 269.613 327.07 269.673 327.878 269.489C328.686 269.305 329.41 268.886 329.945 268.294C330.48 267.702 330.798 266.967 330.853 266.195C330.853 265.117 331.977 250.357 330.49 248.57C330.029 248.073 329.466 247.665 328.834 247.371C328.202 247.078 327.514 246.904 326.809 246.86C326.104 246.816 325.396 246.903 324.728 247.116C324.059 247.328 323.443 247.662 322.914 248.099ZM327.155 250.222C327.548 250.596 327.794 251.082 327.853 251.601C327.912 252.121 327.781 252.644 327.482 253.086C326.684 253.895 323.857 253.625 323.458 252.277C323.059 250.929 325.85 249.379 327.155 250.222ZM338.175 247.526C336.928 247.757 335.796 248.361 334.952 249.246C334.108 250.131 333.598 251.247 333.5 252.426C333.401 253.605 333.72 254.782 334.407 255.777C335.094 256.772 336.112 257.531 337.305 257.939C338.293 258.283 339.373 258.321 340.385 258.047C341.398 257.774 342.288 257.204 342.924 256.422C343.054 256.211 343.105 255.965 343.07 255.724C343.035 255.483 342.916 255.259 342.73 255.086C342.545 254.914 342.304 254.803 342.044 254.771C341.785 254.738 341.521 254.786 341.293 254.906C340.314 255.445 336.87 255.445 336.617 252.817C336.558 252.295 336.672 251.77 336.944 251.311C337.217 250.852 337.634 250.482 338.14 250.25C338.646 250.019 339.216 249.937 339.773 250.016C340.331 250.096 340.848 250.332 341.257 250.694C341.511 250.917 341.851 251.037 342.201 251.028C342.552 251.018 342.883 250.88 343.124 250.643C343.364 250.406 343.493 250.09 343.483 249.765C343.473 249.439 343.324 249.131 343.069 248.907C342.433 248.329 341.656 247.901 340.804 247.661C339.952 247.42 339.051 247.374 338.175 247.526ZM165.48 102.447C165.839 102.556 166.226 102.556 166.584 102.447C166.942 102.338 167.254 102.125 167.474 101.841C168.308 100.796 170.7 91.2251 171.425 88.9335C171.522 88.643 171.49 88.329 171.337 88.0604C171.184 87.7918 170.922 87.5906 170.61 87.5013C170.297 87.4119 169.96 87.4416 169.671 87.5838C169.382 87.726 169.165 87.969 169.069 88.2595C165.589 97.7292 162.725 101.638 165.48 102.447ZM272.273 412.959C269.3 416.087 266.129 419.047 262.775 421.822C262.59 421.991 262.443 422.193 262.343 422.416C262.242 422.639 262.191 422.878 262.191 423.12C262.191 423.361 262.242 423.6 262.343 423.823C262.443 424.046 262.59 424.248 262.775 424.417C265.567 426.742 268.503 428.865 271.185 431.157C271.383 431.299 271.625 431.376 271.874 431.376C272.124 431.376 272.366 431.299 272.563 431.157C272.719 430.982 272.805 430.761 272.805 430.534C272.805 430.306 272.719 430.085 272.563 429.91C270.642 427.585 268.72 425.293 266.69 423.17C269.487 420.47 272.056 417.575 274.375 414.509C275.499 413.195 273.288 411.746 272.273 412.959ZM395.124 425.394C395.559 425.394 395.124 425.394 399.8 422.53C408.464 416.868 409.334 416.497 409.08 414.88C408.754 412.521 405.455 412.15 396.574 408.14C396.238 407.966 395.841 407.923 395.47 408.021C395.1 408.119 394.786 408.349 394.599 408.662C394.411 408.975 394.365 409.344 394.47 409.689C394.576 410.033 394.824 410.325 395.16 410.499C396.828 411.375 402.084 414.442 404.114 415.588C398.858 420.171 394.399 423.979 394.399 423.979C394.304 424.11 394.247 424.262 394.234 424.42C394.222 424.578 394.254 424.736 394.327 424.879C394.4 425.022 394.512 425.145 394.652 425.235C394.792 425.325 394.955 425.38 395.124 425.394ZM368.952 419.632C373.809 419.632 378.413 418.89 383.089 418.688C383.426 418.688 383.748 418.564 383.986 418.343C384.224 418.121 384.358 417.821 384.358 417.508C384.358 417.196 384.224 416.896 383.986 416.674C383.748 416.453 383.426 416.329 383.089 416.329C378.34 416.329 373.809 415.621 368.952 415.925C368.423 415.925 367.916 416.12 367.542 416.467C367.168 416.815 366.958 417.286 366.958 417.778C366.958 418.27 367.168 418.741 367.542 419.089C367.916 419.436 368.423 419.632 368.952 419.632ZM342.018 420.575C344.338 420.575 354.343 419.598 355.43 419.53C355.757 419.53 356.071 419.41 356.302 419.195C356.533 418.98 356.663 418.689 356.663 418.385C356.663 418.081 356.533 417.789 356.302 417.574C356.071 417.36 355.757 417.239 355.43 417.239C354.343 417.239 344.338 416.632 342.018 416.902C341.54 416.962 341.102 417.182 340.785 417.519C340.467 417.857 340.292 418.29 340.292 418.739C340.292 419.187 340.467 419.62 340.785 419.958C341.102 420.296 341.54 420.515 342.018 420.575ZM309.175 418.418C308.923 418.423 308.674 418.473 308.443 418.567C308.212 418.661 308.003 418.796 307.827 418.965C307.652 419.134 307.515 419.334 307.423 419.552C307.331 419.77 307.286 420.004 307.29 420.238C307.29 422.226 309.502 422.125 310.915 422.125C315.077 421.948 319.227 421.577 323.349 421.013C323.672 420.964 323.965 420.81 324.176 420.579C324.388 420.347 324.504 420.053 324.504 419.75C324.504 419.446 324.388 419.152 324.176 418.92C323.965 418.689 323.672 418.535 323.349 418.486C320.92 418.654 311.495 418.351 309.175 418.418ZM294.567 420.272C291.884 420.272 281.662 419.834 279.052 420.272C278.571 420.272 278.11 420.449 277.77 420.765C277.43 421.081 277.239 421.51 277.239 421.957C277.239 422.404 277.43 422.832 277.77 423.148C278.11 423.464 278.571 423.642 279.052 423.642C281.77 423.979 291.92 423.035 294.567 422.934C294.946 422.934 295.311 422.794 295.579 422.544C295.848 422.295 295.999 421.956 295.999 421.603C295.999 421.25 295.848 420.911 295.579 420.662C295.311 420.412 294.946 420.272 294.567 420.272ZM154.352 51.5602C153.511 50.5857 152.418 49.8255 151.175 49.3507C149.933 48.876 148.581 48.7022 147.246 48.8458C145.911 48.9893 144.637 49.4455 143.544 50.1715C142.451 50.8975 141.573 51.8697 140.994 52.9969C140.415 54.1241 140.154 55.3695 140.234 56.6164C140.314 57.8633 140.733 59.0709 141.452 60.1262C142.17 61.1815 143.166 62.0498 144.344 62.6499C145.523 63.2501 146.846 63.5623 148.189 63.5574C149.695 63.5793 151.176 63.1988 152.456 62.4612C153.736 61.7237 154.761 60.66 155.41 59.3967C156.059 58.1333 156.305 56.7233 156.117 55.3342C155.929 53.945 155.317 52.6352 154.352 51.5602ZM152.358 58.3002C151.901 59.0926 151.189 59.7325 150.322 60.1304C149.455 60.5283 148.476 60.6644 147.521 60.5196C146.567 60.3748 145.685 59.9564 144.999 59.3228C144.313 58.6892 143.856 57.8722 143.694 56.9859C143.52 56.3502 143.502 55.6862 143.641 55.0431C143.78 54.3999 144.072 53.794 144.497 53.27C144.921 52.7459 145.467 52.3172 146.093 52.0155C146.72 51.7137 147.411 51.5466 148.117 51.5265C148.939 51.591 149.732 51.8409 150.427 52.2545C151.122 52.6681 151.697 53.233 152.104 53.9002C152.512 54.5675 152.737 55.3169 152.763 56.0836C152.788 56.8503 152.612 57.6111 152.249 58.3002H152.358ZM188.499 52.4027C187.454 51.1331 185.991 50.2167 184.333 49.7938C182.674 49.3709 180.913 49.4648 179.317 50.0612C177.722 50.6575 176.381 51.7234 175.499 53.0957C174.617 54.4681 174.243 56.0713 174.434 57.6599C174.596 59.2516 175.3 60.7538 176.443 61.9482C177.586 63.1426 179.109 63.967 180.791 64.3015C182.473 64.636 184.225 64.4631 185.794 63.8081C187.363 63.1531 188.666 62.05 189.514 60.6592C190.149 59.3232 190.39 57.8541 190.211 56.403C190.033 54.9519 189.442 53.5711 188.499 52.4027ZM179.799 53.1104C180.705 52.5567 181.793 52.3204 182.869 52.4439C183.945 52.5673 184.938 53.0425 185.672 53.7844C186.347 54.524 186.781 55.4277 186.922 56.389C187.064 57.3503 186.907 58.3292 186.469 59.2101C186.006 59.967 185.31 60.5772 184.469 60.9617C183.629 61.3463 182.684 61.4874 181.757 61.3669C180.795 61.2155 179.904 60.8024 179.195 60.1798C178.486 59.5572 177.991 58.7532 177.774 57.8693C177.557 56.9855 177.626 56.0616 177.974 55.2145C178.321 54.3674 178.931 53.6351 179.727 53.1104H179.799ZM222.538 53.2789C221.698 52.3055 220.607 51.5459 219.366 51.071C218.125 50.5961 216.774 50.4215 215.441 50.5635C214.108 50.7054 212.835 51.1594 211.741 51.8828C210.648 52.6063 209.77 53.5756 209.188 54.7003C208.607 55.825 208.342 57.0683 208.418 58.314C208.494 59.5597 208.909 60.7671 209.623 61.8235C210.337 62.8798 211.328 63.7506 212.503 64.3544C213.677 64.9582 214.997 65.2753 216.339 65.2761C217.848 65.3046 219.334 64.9289 220.619 64.1939C221.905 63.459 222.936 62.3957 223.589 61.131C224.243 59.8664 224.491 58.4536 224.305 57.0614C224.118 55.6691 223.505 54.3561 222.538 53.2789ZM220.508 60.0189C220.078 60.6605 219.478 61.1886 218.765 61.5527C218.052 61.9167 217.251 62.1045 216.438 62.0981C215.625 62.0917 214.827 61.8912 214.121 61.516C213.415 61.1407 212.824 60.6032 212.406 59.9549C211.988 59.3067 211.755 58.5694 211.731 57.8137C211.707 57.058 211.893 56.3093 212.269 55.6392C212.646 54.9692 213.201 54.4003 213.882 53.987C214.563 53.5737 215.347 53.3299 216.158 53.2789C216.998 53.3062 217.817 53.5283 218.541 53.925C219.265 54.3218 219.87 54.8805 220.303 55.5503C220.735 56.2202 220.98 56.9799 221.016 57.7603C221.052 58.5408 220.877 59.3172 220.508 60.0189Z" fill="black"/>
<path d="M531.679 109.423C532.713 107.46 533.189 105.284 533.062 103.101C532.935 100.919 532.21 98.8024 530.954 96.9543C528.018 92.9103 522.109 93.0451 517.36 93.1462C502.679 93.4832 158.05 83.6765 157.688 83.6428C155.586 83.1714 153.37 83.4605 151.489 84.4516C145.725 88.3608 145.907 102.279 152.395 105.784C154.314 106.588 156.442 106.857 158.522 106.559L520.442 115.557C522.731 115.55 524.977 114.978 526.951 113.901C528.926 112.823 530.557 111.278 531.679 109.423ZM178.169 87.9227C176.196 92.1988 174.561 96.6027 173.275 101.099C173.266 101.3 173.3 101.5 173.375 101.688C173.451 101.875 173.567 102.047 173.716 102.192C173.865 102.337 174.044 102.452 174.243 102.531C174.441 102.609 174.655 102.65 174.87 102.65C176.502 102.65 176.792 101.268 179.257 92.9777C180.598 88.3271 180.96 88.1923 180.308 87.552C232.254 89.0685 520.26 96.5162 520.84 96.5499C525.299 96.5499 527.728 97.8305 528.707 100.223C529.445 101.837 529.65 103.619 529.295 105.342C528.94 107.064 528.041 108.649 526.713 109.895C525.111 110.939 523.304 111.679 521.394 112.072C519.485 112.465 517.51 112.504 515.584 112.187C494.45 111.513 155.15 103.458 154.788 103.391C150.039 102.313 149.64 91.8993 152.54 87.8216C153.592 86.3725 155.187 86.4399 157.688 86.7432C181.25 87.8216 178.495 87.0465 178.169 87.9227ZM297.504 288.269C297.504 284.899 300.549 286.382 167.004 289.718C166.238 289.668 165.469 289.788 164.763 290.069C164.057 290.351 163.433 290.785 162.944 291.336C161.567 293.257 163.959 396.514 164.032 397.491C164.05 397.917 164.246 398.32 164.577 398.615C164.908 398.91 165.349 399.075 165.808 399.075C165.808 399.075 180.054 398.603 192.524 398.266C301.963 395.334 300.549 393.885 300.44 392.503C300.15 389.908 297.54 290.055 297.504 288.269ZM165.953 293.661C165.953 293.425 166.642 293.223 167.004 293.189C171.825 293.189 289.602 289.819 293.879 289.819C294.205 299.929 297.25 385.932 297.504 391.155C278.872 392.267 181.178 395.469 167.62 395.739C165.482 368.206 165.735 295.683 165.953 293.661Z" fill="black"/>
<path d="M172.151 387.011C174.979 385.09 228.085 343.571 229.861 342.223C243.89 352.637 283.33 381.922 291.74 388.257C293.045 389.235 294.713 387.482 293.444 386.471C278.436 374.879 240.301 346.031 232.58 340.1C236.205 337.472 281.771 302.019 287.571 297.672C288.804 296.695 287.209 295.01 285.94 295.919C270.969 307.108 235.625 333.63 229.753 338.044C218.515 329.788 182.229 303.805 173.493 297.941C173.25 297.81 172.965 297.765 172.69 297.815C172.414 297.864 172.167 298.005 171.995 298.21C171.822 298.416 171.736 298.673 171.751 298.933C171.767 299.193 171.883 299.44 172.079 299.626C184.513 309.062 226.091 339.46 227.034 340.066C215.144 349.267 174.181 381.315 170.339 384.921C170.041 385.145 169.851 385.469 169.81 385.823C169.769 386.177 169.881 386.531 170.121 386.808C170.362 387.085 170.711 387.262 171.091 387.3C171.472 387.338 171.853 387.234 172.151 387.011ZM431.919 375.182C419.92 366.015 394.98 345.863 390.231 342.021C400.853 333.326 433.731 304.951 440.329 299.357C440.574 299.142 440.718 298.846 440.728 298.533C440.738 298.22 440.614 297.917 440.383 297.689C440.153 297.461 439.834 297.327 439.497 297.318C439.161 297.308 438.834 297.424 438.589 297.638C433.695 301.851 389.071 338.651 387.621 339.864C381.749 335.113 335.53 297.133 333.718 295.717C333.491 295.554 333.207 295.474 332.921 295.494C332.635 295.514 332.367 295.631 332.169 295.824C331.97 296.017 331.856 296.271 331.848 296.538C331.839 296.804 331.937 297.064 332.123 297.267C335.131 300.132 376.783 335.753 384.721 342.257C380.48 345.627 338.466 380.169 333.971 383.876C333.804 383.999 333.684 384.17 333.63 384.362C333.577 384.554 333.592 384.758 333.674 384.941C333.756 385.124 333.901 385.277 334.085 385.377C334.27 385.477 334.484 385.518 334.696 385.494C336.4 385.494 383.888 347.076 387.223 344.38C395.161 350.615 423.074 371.744 430.106 376.968C431.556 377.912 433.224 376.193 431.919 375.182ZM74.4577 539.874C74.4577 539.874 173.166 534.617 174.943 534.482C175.226 534.463 175.5 534.382 175.743 534.247C175.987 534.111 176.193 533.925 176.344 533.702C176.496 533.479 176.589 533.226 176.616 532.963C176.644 532.701 176.604 532.436 176.501 532.19C176.683 509.948 179.184 468.16 177.661 466.003C177.168 465.442 176.519 465.016 175.784 464.772C175.049 464.529 174.257 464.477 173.493 464.622L75.0014 469.137C74.5396 469.155 74.1022 469.335 73.7788 469.642C73.4554 469.949 73.2703 470.359 73.2614 470.789C72.6452 484.033 71.3764 537.245 71.7027 538.189C71.8707 538.729 72.2405 539.195 72.7456 539.504C73.2507 539.813 73.8578 539.944 74.4577 539.874ZM174.616 468.699C174.616 471.463 174.435 483.291 173.239 531.179C163.27 531.55 77.3939 536.302 75.3639 536.403C75.3639 529.292 76.5964 480.393 76.9227 472.373L173.71 467.857C173.948 467.865 174.173 467.957 174.341 468.113C174.509 468.269 174.607 468.479 174.616 468.699ZM208.111 530.573C208.583 532.156 210.214 532.224 211.918 532.089C317.478 524.473 312.04 527.135 312.765 525.888C313.055 525.349 312.511 528.112 313.78 492.862C313.78 488.515 315.194 459.937 314.034 458.286C313.546 457.718 312.897 457.288 312.161 457.044C311.424 456.8 310.629 456.752 309.865 456.904C309.358 456.904 216.413 461.151 211.41 461.42C210.942 461.429 210.496 461.605 210.164 461.913C209.833 462.221 209.643 462.636 209.634 463.071C209.054 475.507 207.749 529.427 208.111 530.573ZM211.736 528.685C211.736 521.372 213.005 472.373 213.295 464.655L310.59 460.14C311.424 460.14 311.424 455.186 309.72 523.394C299.643 523.799 213.875 528.551 211.628 528.685H211.736ZM334.008 522.35C334.515 523.9 336.11 523.967 337.85 523.833C443.41 516.183 437.973 518.879 438.698 517.632C438.988 517.126 438.444 519.687 439.713 484.639C439.713 480.191 441.126 451.748 439.966 450.03C439.478 449.462 438.83 449.032 438.093 448.788C437.357 448.543 436.562 448.495 435.798 448.648L337.343 453.164C336.874 453.172 336.428 453.349 336.097 453.657C335.766 453.965 335.576 454.38 335.566 454.815C334.95 467.891 333.681 521.103 334.008 522.35ZM339.119 456.466L436.414 451.95C437.248 451.95 437.211 447.064 435.544 515.205C425.575 515.542 339.663 520.294 337.669 520.429C337.56 519.957 338.793 464.588 339.119 456.331V456.466Z" fill="black"/>
<path d="M169.432 470.316C158.557 478.168 130.174 496.939 126.15 499.669C122.851 497.815 85.6948 477.124 81.6711 474.798C81.4115 474.642 81.0957 474.588 80.7932 474.648C80.4907 474.708 80.2262 474.877 80.058 475.119C79.8897 475.36 79.8315 475.653 79.8961 475.935C79.9607 476.216 80.1428 476.462 80.4023 476.618C85.8036 479.988 116.072 497.849 122.924 501.826C120.749 503.275 83.5198 528.179 81.3086 529.864C81.118 530.005 80.9802 530.199 80.9146 530.417C80.8491 530.636 80.8592 530.867 80.9434 531.08C81.0277 531.293 81.1819 531.475 81.3841 531.602C81.5863 531.728 81.8262 531.793 82.0698 531.785C83.3023 531.785 125.57 504.522 126.549 503.848C135.067 508.465 165.626 524.27 168.997 525.921C169.214 526.05 169.474 526.1 169.727 526.063C169.981 526.026 170.211 525.903 170.375 525.719C170.482 525.489 170.504 525.232 170.438 524.988C170.373 524.745 170.223 524.528 170.012 524.371C156.527 516.957 142.897 509.273 129.702 501.826C137.569 496.4 170.882 472.237 170.882 472.237C171.156 472.058 171.343 471.786 171.401 471.479C171.458 471.173 171.383 470.857 171.19 470.603C170.998 470.348 170.705 470.175 170.375 470.121C170.046 470.067 169.706 470.138 169.432 470.316ZM307.654 461.689C304.826 463.543 261.29 491.648 257.991 493.839C250.125 488.818 224.532 472.237 218.769 468.092C217.536 467.216 216.05 469.002 217.246 469.878C226.997 477.023 249.327 492.423 254.729 496.029C246.645 501.624 219.457 519.08 214.274 523.866C214.144 523.981 214.055 524.13 214.017 524.294C213.979 524.457 213.994 524.627 214.06 524.782C214.126 524.937 214.24 525.071 214.388 525.166C214.535 525.261 214.71 525.312 214.89 525.315C215.397 525.315 218.044 523.933 257.774 497.984C266.655 503.443 295.365 519.35 301.817 522.551C302.016 522.629 302.239 522.639 302.445 522.578C302.65 522.516 302.826 522.389 302.94 522.218C303.053 522.048 303.098 521.845 303.065 521.646C303.032 521.448 302.924 521.267 302.76 521.136C297.395 517.766 263.719 497.546 261.072 495.793C267.597 491.514 306.312 465.093 308.922 463.34C309.158 463.184 309.317 462.947 309.365 462.682C309.412 462.416 309.344 462.144 309.176 461.925C309.008 461.706 308.753 461.558 308.467 461.514C308.182 461.47 307.889 461.533 307.654 461.689ZM389.071 484.133C398.061 489.727 425.321 507.42 431.194 511.599C431.315 511.694 431.455 511.766 431.607 511.811C431.758 511.855 431.917 511.872 432.075 511.859C432.234 511.847 432.388 511.806 432.529 511.738C432.67 511.67 432.795 511.577 432.897 511.464C433 511.351 433.077 511.221 433.125 511.08C433.173 510.939 433.191 510.791 433.178 510.644C433.164 510.497 433.12 510.354 433.047 510.223C432.974 510.092 432.874 509.975 432.752 509.88C428.076 506.51 399.257 486.492 392.479 482.044C396.104 479.853 429.49 458.454 433.477 455.994C433.615 455.914 433.735 455.81 433.83 455.687C433.925 455.565 433.993 455.426 434.03 455.279C434.067 455.131 434.072 454.979 434.046 454.83C434.019 454.681 433.962 454.538 433.876 454.41C433.79 454.282 433.678 454.17 433.546 454.082C433.414 453.994 433.265 453.931 433.107 453.896C432.949 453.862 432.785 453.857 432.624 453.881C432.464 453.906 432.31 453.959 432.172 454.039C428.91 456.027 390.847 478.438 388.672 479.752C381.169 475.371 356.047 461.689 349.305 458.791C349.045 458.675 348.747 458.66 348.475 458.748C348.203 458.836 347.98 459.022 347.855 459.263C347.057 460.678 347.239 459.667 385.265 481.842C374.644 488.582 341.765 510.251 338.43 512.677C338.248 512.853 338.129 513.078 338.09 513.319C338.051 513.56 338.094 513.807 338.212 514.025C338.368 514.237 338.604 514.387 338.873 514.443C339.142 514.499 339.424 514.458 339.662 514.328C343.577 512.239 389.071 484.133 389.071 484.133Z" fill="black"/>
<path d="M706.875 581.83C702.887 580.987 681.5 578.291 569.596 562.958C567.233 559.869 565.399 556.459 564.159 552.848C563.687 542.738 560.896 510.655 559.99 504.387C558.177 491.918 554.516 479.449 554.806 466.61C558.685 465.835 562.527 464.992 566.225 464.048C566.541 463.955 566.816 463.771 567.012 463.523C567.207 463.274 567.313 462.974 567.312 462.667C567.361 450.067 566.367 437.482 564.34 425.024C570.43 418.756 570.212 406.961 569.995 397.356C569.995 388.594 570.321 382.461 570.285 323.216C581.414 315.094 578.876 297.065 577.535 287.898C580.761 285.809 580.906 285.809 580.942 285.304C580.664 282.018 579.933 278.778 578.767 275.665C577.999 274.032 576.876 272.563 575.469 271.352C576.701 269.667 576.919 269.532 576.665 268.993C574.599 265.05 573.04 262.253 571.01 259.253V229.699C577.517 230.365 584.072 228.924 589.57 225.621C589.769 225.523 589.922 225.359 589.998 225.162C590.074 224.965 590.069 224.749 589.983 224.555C589.897 224.361 589.736 224.205 589.533 224.115C589.329 224.025 589.097 224.01 588.881 224.071C583.951 225.183 580.399 224.644 578.296 222.419C573.112 217.027 577.317 202.806 579.384 197.751C584.241 185.147 590.259 184.709 591.709 175.644C592.533 169.111 590.972 162.51 587.278 156.9C583.584 151.29 577.97 146.996 571.336 144.707C571.336 144.438 572.315 93.3147 572.351 91.7308C572.714 77.2061 573.185 57.3231 555.712 50.7516C551.77 49.5251 547.607 49.0327 543.46 49.3025C542.699 49.3025 159.681 37.9119 156.999 37.7434C149.762 36.9702 142.446 37.1063 135.249 38.1478C117.124 41.7874 116.87 58.3678 116.761 69.1518C116.761 70.0617 116.979 164.152 117.124 253.693C104.907 253.423 56.2237 253.356 46.0374 253.693C37.4462 253.693 29.9424 254.266 25.1574 257.67C22.8211 259.387 20.9257 261.566 19.6089 264.049C18.2921 266.533 17.587 269.257 17.5449 272.026C17.5449 305.018 21.1699 502.972 19.2124 568.889C18.9587 577.449 23.0912 584.189 30.0874 586.177C25.7737 591.603 30.0874 597.77 36.2499 600.331C83.9912 609.902 222.502 637.401 233.45 637.401C239.069 637.401 521.13 611.89 689.801 596.759C699.516 596.759 709.122 592.142 707.926 583.784C707.491 581.762 707.491 581.965 706.875 581.83ZM556.039 502.129C558.286 518.676 559.011 535.492 560.352 552.14C556.617 553.465 552.488 553.465 548.752 552.14C537.877 532.965 520.659 506.948 523.377 484.336C524.211 477.057 524.537 473.855 520.079 467.789C523.957 467.553 527.909 467.216 532.041 466.61C532.802 466.61 533.092 466.61 535.666 453.467C540.85 468.295 540.85 469.306 542.119 469.036L551.471 467.183C551 479.011 554.299 490.57 556.039 502.129ZM449.5 582.605C454.647 587.795 468.857 580.246 475.274 576.37C475.415 576.292 475.528 576.177 475.599 576.039C475.67 575.901 475.696 575.747 475.672 575.595C475.559 574.894 475.604 574.178 475.803 573.494C476.003 572.809 476.353 572.171 476.832 571.619C476.928 571.487 477.05 571.374 477.194 571.287C477.337 571.2 477.498 571.141 477.666 571.113C478.246 571.113 479.37 572.091 479.914 573.944C480.457 575.798 485.677 574.685 487.164 573.944C487.78 573.607 487.816 573.674 487.164 563.834C503.694 566.699 536.282 571.922 548.064 573.944C548.426 575.393 548.789 576.809 549.187 578.157C509.312 581.527 230.84 604.645 223.844 605.117C219.747 604.24 135.829 590.322 132.892 589.85C209.235 584.02 408.646 568.855 461.499 564.643C454.466 574.483 448.485 575.764 448.231 576.91C447.919 577.882 447.872 578.912 448.093 579.906C448.315 580.9 448.798 581.827 449.5 582.605ZM443.337 443.121C422.675 443.761 154.751 452.59 138.656 448.883C125.679 447.367 119.589 436.954 120.531 417.947C120.749 407.837 119.842 112.49 119.661 73.3306C178.604 75.8244 530.7 84.9571 568.835 85.2604C568.835 91.4949 568.219 122.33 567.82 143.595C555.712 140.697 540.741 143.224 542.916 154.278C542.954 154.461 543.056 154.627 543.206 154.75C544.577 155.745 545.72 156.985 546.569 158.395C547.418 159.806 547.956 161.36 548.152 162.967C548.348 164.573 548.197 166.2 547.709 167.752C547.221 169.303 546.405 170.749 545.309 172.004C544.439 172.948 546.867 177.059 545.707 191.483C544.149 210.86 554.842 225.183 567.059 228.721C567.059 233.102 566.877 249.413 566.877 253.255C554.154 234.821 547.447 231.62 526.277 218.847C525.19 218.173 525.154 219.959 529.069 206.109C531.574 205.361 533.868 204.101 535.781 202.422C537.694 200.742 539.179 198.686 540.125 196.403C540.925 188.557 540.925 180.659 540.125 172.813C541.092 169.812 541.317 166.647 540.783 163.555C540.25 160.462 538.971 157.521 537.044 154.952C533.733 149.752 528.75 145.65 522.797 143.224C511.234 138.709 500.504 143.224 491.006 147.1C480.131 151.852 480.784 154.716 482.125 165.702C482.14 166.578 482.374 167.439 482.808 168.217C483.242 168.995 483.865 169.668 484.626 170.184C482.089 178.104 478.427 192.696 481.182 200.514C482.238 203.319 483.889 205.898 486.037 208.098C488.186 210.298 490.788 212.074 493.689 213.32C493.435 214.331 492.891 216.219 492.492 217.634C490.716 217.196 487.454 216.455 485.532 216.05C473.316 210.759 462.224 204.727 449.681 205.94C448.711 206.068 447.79 206.415 446.999 206.951C445.163 205.311 443.011 204.007 440.655 203.109C438.697 199.739 406.145 151.211 405.746 150.638C404.115 148.246 402.737 146.156 403.934 143.73C405.13 141.304 408.32 136.99 407.957 133.418L437.682 133.249C438.644 133.249 439.566 132.894 440.246 132.262C440.925 131.63 441.307 130.773 441.307 129.879V120.578C441.307 119.684 440.925 118.827 440.246 118.195C439.566 117.563 438.644 117.208 437.682 117.208H329.875C328.914 117.208 327.991 117.563 327.312 118.195C326.632 118.827 326.25 119.684 326.25 120.578V131.429C326.25 132.323 326.632 133.18 327.312 133.812C327.991 134.444 328.914 134.799 329.875 134.799L370.801 134.429C374.786 140.835 380.729 145.996 387.875 149.257C389.397 149.998 389.252 150.099 392.189 164.557C396.974 187.843 401.904 211.939 417.564 231.181C417.274 231.855 417.056 232.529 416.802 233.203C416.728 233.428 416.711 233.666 416.755 233.897C416.798 234.129 416.901 234.347 417.053 234.535C417.205 234.722 417.403 234.874 417.631 234.976C417.858 235.079 418.108 235.129 418.361 235.124C419.56 235.093 420.752 235.299 421.858 235.729C422.965 236.159 423.96 236.803 424.777 237.618C424.161 244.19 425.539 247.728 433.912 253.558C436.015 255.007 450.189 262.185 453.922 264.005C452.255 270.139 450.841 276.407 449.5 282.709C411.474 283.888 328.28 284.596 326.25 286.079C325.645 286.523 325.16 287.093 324.832 287.742C324.505 288.391 324.345 289.103 324.365 289.819C323.785 303.299 322.552 380.27 322.661 383.809C322.661 390.549 323.857 394.66 331.579 393.919C337.197 393.919 406.652 392.267 435.145 391.593C434.71 396.042 434.565 396.109 435.145 396.48C438.404 398.781 442.09 400.506 446.02 401.569C443.441 415.281 442.529 429.219 443.301 443.121H443.337ZM507.5 238.595C498.836 239.539 485.097 238.258 482.632 230.844C481.69 227.474 485.134 221.442 486.982 219.353L493.29 220.734C493.674 220.817 494.078 220.758 494.416 220.569C494.754 220.38 495 220.077 495.102 219.723C495.574 217.836 496.154 215.814 496.552 214.331C497.966 214.769 499.489 215.309 499.815 214.062C499.853 213.929 499.863 213.791 499.844 213.654C499.824 213.518 499.776 213.387 499.702 213.268C499.628 213.149 499.529 213.044 499.412 212.961C499.294 212.878 499.16 212.816 499.017 212.781C488.142 209.984 482.234 200.043 484.517 188.484C485.657 180.864 487.279 173.313 489.375 165.871C492.53 169.162 496.756 171.404 501.409 172.256C506.062 173.107 510.887 172.522 515.149 170.589C514.246 176.759 514.768 183.038 516.68 189.006C518.593 194.974 521.853 200.494 526.241 205.199C522 218.679 521.855 218.679 522.942 220.162C524.03 221.644 527.691 223.06 531.86 226.025C525.63 232.802 516.982 237.265 507.5 238.595ZM507.5 244.661C505.615 244.661 507.5 241.46 509.059 241.46C510.617 241.46 508.732 244.56 507.5 244.661ZM496.371 243.819C496.371 245.571 492.746 246.886 491.441 246.009C490.136 245.133 492.13 243.077 494.087 242.639C494.554 242.525 495.049 242.584 495.469 242.804C495.889 243.025 496.2 243.389 496.335 243.819H496.371ZM484.191 240.752C484.043 240.873 483.865 240.959 483.674 241.003C483.482 241.047 483.282 241.047 483.09 241.004C482.899 240.962 482.721 240.876 482.572 240.756C482.423 240.636 482.307 240.485 482.234 240.314C481.835 238.528 484.699 237.551 485.279 238.258C485.859 238.966 485.424 239.775 484.155 240.752H484.191ZM537.95 292.313C538.185 292.403 538.384 292.558 538.52 292.757C538.656 292.956 538.723 293.19 538.711 293.425C538.645 293.653 538.505 293.855 538.31 294.006C538.116 294.157 537.876 294.248 537.624 294.268C526.749 293.358 518.592 286.786 516.345 274.284C516.287 274.002 516.352 273.711 516.526 273.474C516.699 273.237 516.966 273.074 517.269 273.02C517.572 272.966 517.886 273.027 518.14 273.188C518.395 273.349 518.571 273.598 518.629 273.879C519.803 278.263 522.206 282.278 525.594 285.517C528.982 288.755 533.233 291.1 537.914 292.313H537.95ZM395.85 134.227C396.067 135.069 393.494 135.372 391.246 141.135C391.189 141.4 391.237 141.675 391.382 141.91C391.528 142.144 391.76 142.321 392.035 142.408C392.311 142.494 392.611 142.485 392.879 142.381C393.147 142.277 393.366 142.086 393.494 141.843C395.415 136.99 399.91 137.9 399.04 133.957C397.336 126.307 399.366 122.364 402.194 123.139C402.737 123.139 402.447 129.879 404.224 131.598C407.377 134.968 401.65 140.023 400.599 143.764C400.308 144.983 400.321 146.248 400.635 147.463C400.949 148.677 401.556 149.81 402.411 150.773C403.1 151.751 435.616 200.582 437.791 203.75C430.13 210.755 423.707 218.842 418.76 227.71C401.215 204.693 397.771 175.745 391.862 149.324C391.13 147.894 389.831 146.783 388.237 146.224C382.611 143.511 377.877 139.436 374.535 134.429L395.85 134.227ZM438.009 207.726C439.64 206.041 439.821 205.704 440.437 205.839C441.921 206.534 443.309 207.394 444.57 208.4C440.292 211.534 428.584 224.172 425.502 233.844C423.958 232.868 422.176 232.266 420.319 232.091C423.654 222.723 430.976 215.106 438.009 207.726ZM435.471 388.628C406.109 389.1 332.231 391.02 327.591 390.38C326.25 389.268 326.322 386.808 326.359 384.82C326.359 384.449 327.374 295.11 327.917 289.381C327.917 288.236 318.927 288.741 448.702 285.775C442.25 318.296 439.06 353.613 435.471 388.628ZM448.811 402.377C452.742 403.048 456.771 403.048 460.701 402.377C460.893 402.351 461.07 402.267 461.207 402.14C461.344 402.013 461.434 401.848 461.462 401.67C468.93 363.926 461.97 361.23 468.712 292.718C472.337 254.333 477.775 241.662 476.687 240.415C470.815 233.675 474.44 226.362 481.907 221.408C478.282 227.474 479.297 232.395 482.197 235.461C481.292 235.774 480.519 236.349 479.993 237.103C479.466 237.856 479.215 238.746 479.276 239.643C479.337 240.539 479.707 241.393 480.331 242.078C480.955 242.764 481.8 243.244 482.741 243.448C484.054 243.527 485.349 243.139 486.365 242.363C487.382 241.588 488.043 240.482 488.215 239.269C489.338 239.694 490.488 240.055 491.659 240.348C486.765 243.044 486.91 248.975 492.637 248.975C494.26 249.074 495.862 248.597 497.12 247.639C498.379 246.682 499.199 245.317 499.416 243.819C499.416 240.213 495.356 241.662 504.382 241.46C500.939 247.964 510.4 249.514 512.321 243.212C512.656 242.341 512.656 241.388 512.321 240.516C529.069 237.146 519.897 231.047 512.321 257.568C506.34 278.26 508.696 302.929 511.85 320.149C507.677 323.202 503.796 326.585 500.25 330.259C496.117 322.205 494.341 318.565 493.435 316.982C492.529 315.398 492.492 315.768 491.985 315.903C490.064 316.51 484.916 318.397 479.986 320.318C482.052 299.727 483.249 287.09 487.236 256.928C487.26 256.666 487.177 256.405 487.003 256.198C486.829 255.99 486.578 255.851 486.298 255.808C486.019 255.766 485.733 255.823 485.497 255.968C485.261 256.113 485.092 256.336 485.025 256.591C481.871 274.587 478.137 297.874 476.579 321.7C472.954 323.115 471.069 323.823 470.126 324.328C469.184 324.834 469.256 325.07 469.437 325.508C470.235 327.294 472.555 332.248 475.419 338.347C471.794 364.33 462.949 443.222 462.079 454.646C456.401 451.842 451.147 448.352 446.455 444.266C445.531 430.266 446.321 416.212 448.811 402.377ZM507.826 345.694C509.856 344.076 513.046 341.246 515.076 339.392C520.26 381.618 523.849 361.196 519.752 432.168C518.919 446.524 518.194 459.128 518.665 464.689C510.196 465.214 501.69 464.909 493.29 463.779C493.725 455.185 497.785 378.754 498.51 370.699C503.99 368.683 509.298 366.284 514.387 363.521C515.112 362.915 514.931 363.656 507.826 345.694ZM546.179 554.634V559.79C519.209 556.083 496.661 553.05 486.439 551.5C486.257 549.478 486.112 547.827 486.004 546.816C492.964 525.349 503.259 496.838 493.834 476.046C492.565 473.215 491.55 475.742 496.045 467.385C502.868 468.096 509.739 468.322 516.599 468.059C523.015 476.248 520.405 477.495 519.825 484.909C517.795 509.813 533.056 532.257 546.179 554.634ZM546.396 563.295C546.614 565.789 547.012 568.384 547.484 570.945L487.055 561.071C487.055 558.914 486.801 556.757 486.656 554.735C498.727 556.622 520.767 559.756 546.396 563.295ZM489.737 463.24C481.237 461.904 472.978 459.477 465.196 456.028C465.559 452.927 475.781 361.061 477.811 343.638C487.78 364.701 490.499 370.598 491.477 372.081C491.949 372.789 492.021 372.62 492.275 372.62C493.252 372.456 494.211 372.208 495.139 371.879C492.782 396.412 489.919 454.309 489.737 463.24ZM492.601 466.845C488.722 473.181 488.36 473.585 490.172 476.484C493.797 482.314 494.015 493.098 493.797 499.804C493.181 512.172 483.357 542.704 482.379 545.703C480.867 546.945 478.999 547.75 477.003 548.019C475.007 548.289 472.97 548.011 471.141 547.22C470.38 546.95 470.634 547.725 470.199 542.367C468.785 524.574 465.087 478.539 462.949 458.656C472.342 462.737 482.335 465.497 492.601 466.845ZM542.735 410.6C544.402 423.878 549.804 458.252 550.746 464.116L543.206 465.868C542.01 462.498 538.167 449.894 536.681 446.963C536.52 446.689 536.274 446.467 535.975 446.325C535.675 446.183 535.337 446.129 535.004 446.169C534.671 446.209 534.359 446.342 534.109 446.549C533.858 446.757 533.681 447.03 533.6 447.333C532.512 452.793 531.461 458.286 530.41 463.745C527.329 464.015 524.537 464.217 521.964 464.385C521.964 447.333 522.616 429.91 523.704 412.622C529.757 412.184 539.581 411.139 542.735 410.6ZM528.996 362.578C528.976 362.359 529.048 362.142 529.196 361.972C529.345 361.803 529.56 361.693 529.794 361.668C555.169 358.837 554.154 358.601 554.516 359.545C555.32 362.033 555.591 364.643 555.314 367.228C555.314 368.138 556.365 367.599 530.809 370.598C529.54 370.902 529.757 369.756 528.996 362.578ZM554.081 463.341C549.586 441.335 548.462 432.808 545.49 410.162C549.549 409.832 553.581 409.258 557.561 408.443C561.888 425.77 564.089 443.497 564.122 461.285C560.642 461.925 557.162 462.667 554.081 463.341ZM566.769 363.555C566.406 409.555 567.675 412.858 563.506 420.609C562.672 416.093 561.73 411.544 560.642 407.129C561.785 406.377 562.81 405.481 563.687 404.467C564.739 403.287 560.86 360.657 554.589 329.821C557.634 328.743 563.687 326.451 566.95 324.901C566.986 337.741 566.877 350.85 566.769 363.555ZM573.765 312.466C572.956 315.702 570.891 318.546 567.965 320.453C552.486 329.754 515.62 334.337 515.257 334.371C515.085 334.402 514.924 334.474 514.791 334.581C514.657 334.687 514.556 334.824 514.496 334.977C511.989 338.246 509.055 341.212 505.76 343.807C503.834 345.879 501.323 347.408 498.51 348.222C496.299 348.525 490.934 346.031 496.879 345.525C498.458 345.573 500.013 345.15 501.316 344.32C502.62 343.49 503.605 342.295 504.129 340.909C504.212 340.692 504.211 340.455 504.124 340.239C504.038 340.023 503.873 339.843 503.657 339.729C501.555 338.819 503.295 343.436 493.254 343.099C490.825 343.099 487.707 340.201 491.695 340.47C498.147 340.942 502.57 336.831 500.975 335.719C500.806 335.59 500.595 335.52 500.377 335.52C500.159 335.52 499.947 335.59 499.779 335.719C496.987 338.482 492.819 337.808 488.614 337.336C486.547 337.1 484.989 335.045 487.707 334.64C491.332 334.101 500.214 334.135 501.229 333.191C512.104 321.969 527.764 314.521 540.524 308.557C552.302 303.174 563.589 296.907 574.272 289.819C575.573 297.335 575.401 305.007 573.765 312.466ZM572.931 274.25C574.935 277.047 576.018 280.326 576.049 283.686C566.503 290.319 556.541 296.419 546.215 301.951C545.925 300.03 545.417 296.492 545.345 295.211C559.084 287.966 568.799 280.518 572.931 274.25ZM137.17 40.6753C256.324 43.2365 540.524 52.0322 540.524 52.0322C545.707 52.0322 548.317 52.2681 549.586 52.2007H549.912C560.026 53.515 565.79 62.3107 567.675 69.3877C568.605 73.6442 568.994 77.9876 568.835 82.3285C506.014 81.3512 292.537 76.8354 119.625 69.9269C119.625 55.0315 121.147 42.6636 137.17 40.6753ZM119.625 438.099C110.417 438.099 81.4537 438.099 72.2462 438.504C72.2462 427.989 71.5937 355.332 71.4849 344.784C78.3362 345.02 109.801 344.279 117.015 344.11C117.087 428.967 116 429.101 119.625 438.099ZM116.942 313.409C106.901 313.409 76.3787 313.409 69.4549 313.713C69.6724 309.871 69.8174 300.233 69.9262 295.616C76.6687 295.616 106.611 294.841 117.051 294.302C116.906 300.536 116.906 306.939 116.906 313.173L116.942 313.409ZM116.942 291.268C111.94 291.268 70.5787 292.448 68.4762 292.617C66.3737 292.785 66.7724 294.605 66.6637 297.975C66.2649 309.129 66.1562 313.645 66.3737 315.499C66.5549 316.746 66.8449 316.779 67.3524 316.813C72.0649 317.116 112.194 316.51 116.979 316.442V341.077C67.0624 341.616 68.4399 341.549 68.4399 343.402C68.4399 344.279 68.4399 433.078 68.8387 440.795C68.8387 442.379 73.1162 441.975 121.292 441.604C127.056 451.714 136.3 452.523 148.589 453.332C160.877 454.141 431.629 446.794 444.135 446.39C448.572 450.974 453.912 454.726 459.867 457.443C461.644 476.416 464.217 511.363 465.812 533.673C443.011 535.088 63.4374 561.205 49.9524 562.115C49.9524 553.724 48.3212 275.868 48.3212 275.868C54.2662 275.868 109.946 275.025 116.87 274.823V291.033L116.942 291.268ZM32.6249 583.448C28.4562 579.437 30.2324 591.637 30.2324 270.037C30.2324 259.927 37.4824 257.299 45.9287 256.861C56.8037 256.288 76.7412 257.299 116.87 256.22V271.487C108.532 271.487 46.6174 272.43 46.6174 272.43C46.3781 272.438 46.1428 272.489 45.925 272.582C45.7072 272.674 45.5114 272.806 45.3487 272.969C44.6237 273.711 46.5087 564.003 46.6537 564.34C46.7244 564.49 46.8411 564.618 46.9892 564.708C47.1374 564.798 47.3106 564.846 47.4874 564.845C47.4874 564.845 429.309 539.166 466.03 536.369C466.03 538.525 467.045 550.691 467.19 552.342C418.18 556.049 36.2499 583.009 32.6249 583.448ZM231.42 622.236L41.3612 585.571C110.889 581.358 411.836 559.925 466.356 555.544C465.729 557.44 464.916 559.279 463.927 561.037C429.454 563.497 120.35 587.626 120.35 587.626C118.066 587.828 118.247 590.996 120.35 590.996L223.517 608.453C223.807 608.453 231.311 607.88 550.42 581.493C550.42 581.931 550.637 582.234 551 582.47C554.19 584.324 559.265 582.47 559.265 581.088C559.179 579.304 559.4 577.518 559.917 575.798C559.917 575.798 560.969 576.236 562.89 581.527C562.927 581.642 562.992 581.747 563.08 581.835C563.168 581.923 563.277 581.99 563.397 582.032C570.07 584.247 576.934 585.927 583.915 587.053C585.231 587.073 586.532 586.795 587.707 586.243C588.881 585.691 589.894 584.882 590.657 583.886C591.101 582.929 591.231 581.872 591.031 580.847C590.832 579.821 590.311 578.874 589.534 578.123C583.012 575.705 577.225 571.84 572.677 566.867C621.579 573.607 674.902 580.347 695.021 583.077L231.42 622.236Z" fill="black"/>
</svg>