<svg width="436" height="436" viewBox="0 0 436 436" fill="none" xmlns="http://www.w3.org/2000/svg">
<path d="M154.28 327.218C157.914 325.93 161.637 324.91 165.42 324.166L165.878 325.844C165.929 326.042 166.05 326.215 166.218 326.331C166.386 326.447 166.59 326.499 166.793 326.476L181.77 324.732C185.89 315.337 193.455 301.101 193.564 300.883C193.455 297.33 193.564 294.343 193.564 290.942C184.996 294.125 169.148 300.164 160.864 304.022C160.676 304.143 160.532 304.319 160.45 304.527C160.367 304.734 160.352 304.962 160.406 305.178C160.406 305.178 160.559 305.723 160.755 306.508C156.7 306.508 144.557 305.919 141.636 308.688C141.182 309.32 140.959 310.09 141.004 310.868C140.83 313.876 142.334 337.246 144.732 344.113C145.974 347.71 148.59 347.317 150.378 343.873C152.447 338.686 153.775 333.233 154.324 327.675C154.324 327.392 154.258 327.414 154.28 327.218ZM151.773 307.707C154.433 307.489 155.261 307.532 160.973 307.358C161.997 311.238 164.112 319.217 165.202 323.294C161.356 323.889 157.559 324.771 153.844 325.931C152.686 319.919 151.994 313.826 151.773 307.707Z" fill="black"/>
<path d="M354.927 116.914C355.472 116.151 354.774 115.17 354.186 114.407C355.853 112.692 357.702 111.164 359.701 109.85C363.074 108.169 366.157 105.962 368.835 103.31C369.947 102.155 372.04 99.7787 371.255 98.3835C370.47 96.9883 369.075 96.9011 367.178 97.7077C368 96.845 368.671 95.8501 369.162 94.7647C369.773 93.0643 368.334 91.6909 365.216 92.9553C366.35 91.1459 366.612 89.2493 364.693 88.3337C363.145 87.5925 360.878 89.3583 359.57 90.5137C357.002 92.7579 354.591 95.1761 352.354 97.7513C350.981 94.8737 348.801 91.5601 346.076 92.6065C343.351 93.6529 345.466 98.3399 346.861 100.891L341.912 104.313C341.164 103.909 340.319 103.721 339.471 103.768C333.846 104.727 308.013 124.391 305.397 124.391C303.392 124.391 274.746 110.657 249.982 106.689C249.934 106.541 249.845 106.409 249.725 106.309C249.606 106.208 249.46 106.144 249.306 106.123C244.986 105.385 240.607 105.057 236.226 105.142C236.093 105.15 235.964 105.188 235.847 105.252C235.73 105.316 235.629 105.405 235.55 105.512H233.719C233.283 103.746 231.67 99.6697 231.103 98.1001C232.585 96.8139 234.634 96.1599 235.703 94.0889C237.665 90.2521 237.577 83.5813 237.032 79.3085C239.496 77.4337 239.561 74.4253 238.994 71.3515C238.776 70.1089 238.101 67.2967 237.054 66.5991C236.466 66.2067 235.223 66.5991 234.155 66.9915C233.087 64.5063 233.087 65.6399 233.523 64.6371C233.725 64.175 233.843 63.6803 233.871 63.1765C235.027 63.5253 237.425 61.2145 236.596 58.1625C236.162 57.07 235.63 56.0192 235.005 55.0233C235.31 54.2821 235.964 53.3883 233.915 50.6633C233.032 49.7113 231.887 49.0435 230.623 48.7449H229.62C228.897 47.6948 227.835 46.9251 226.612 46.5649C224.766 46.0941 222.808 46.3682 221.162 47.3279C220.726 47.6549 220.377 48.0909 219.941 48.3961C218.955 47.7976 217.824 47.4811 216.671 47.4811C215.518 47.4811 214.387 47.7976 213.401 48.3961C212.824 48.6226 212.299 48.9633 211.857 49.3978C211.415 49.8324 211.065 50.3518 210.829 50.9249C209.761 50.5564 208.627 50.4145 207.501 50.5083C206.375 50.6022 205.281 50.9297 204.289 51.4699C200.523 53.512 197.706 56.9472 196.441 61.0401C196.406 61.6573 196.406 62.276 196.441 62.8931H196.201C192.931 62.4135 188.767 70.1743 192.103 76.2129C192.495 76.9323 192.996 77.6081 193.476 78.3929C194.871 80.5729 194.326 81.2269 197.444 83.8865C198.359 84.6713 198.512 84.6059 199.079 85.0855C199.645 85.5651 199.427 85.3253 199.754 86.5461C199.933 87.2653 200.252 87.9419 200.693 88.5369C201.135 89.1319 201.69 89.6334 202.327 90.0123C202.558 92.1446 203.468 94.1465 204.921 95.7239C205.381 96.2389 205.918 96.6801 206.512 97.0319C206.673 97.1223 206.852 97.1745 207.036 97.1845C207.69 101.239 208.496 106.515 208.845 108.76L206.905 109.807C204.366 110.828 201.898 112.015 199.515 113.36C199.328 113.489 199.196 113.684 199.144 113.905C196.833 115.126 194.653 116.281 193.411 117.023C176.101 127.29 126.942 194.979 126.441 198.075C126.386 198.252 126.386 198.442 126.441 198.62C127.146 199.744 128.004 200.764 128.992 201.65C128.687 202.205 128.322 202.724 127.902 203.198C123.542 206.054 117.002 210.305 113.492 214.098C113.246 214.317 113.061 214.597 112.956 214.91C112.851 215.223 112.829 215.557 112.893 215.881C112.957 216.204 113.104 216.506 113.32 216.755C113.536 217.004 113.813 217.193 114.124 217.303C114.778 217.521 114.887 217.455 119.138 215.123C117.97 216.147 117.014 217.392 116.326 218.785C116.042 219.984 117.132 220.682 118.506 220.464C119.279 220.261 120.014 219.937 120.686 219.504C120.293 220.111 120.083 220.819 120.083 221.543C120.083 222.266 120.293 222.974 120.686 223.581C122.866 226.328 128.577 217.673 131.586 215.537C132.807 217.085 134.463 220.703 137.101 219.744C139.39 218.894 136.883 213.858 137.101 212.398C137.988 211.546 138.935 210.759 139.935 210.043C141.617 211.29 143.54 212.174 145.581 212.637C149.178 212.637 186.718 174.749 189.574 171.719C188.549 181.354 183.383 222.709 184.473 230.753C184.974 234.394 193.716 234.917 197.4 235.113C196.288 261.273 195.547 300.906 195.351 301.32C189.574 313.768 188.004 317.168 186.064 320.94C182.532 327.698 167.665 352.637 165.986 358.305C165.746 359.199 165.725 359.548 166.662 361.204C163.853 364.158 161.245 367.297 158.858 370.6C157.659 372.78 162.803 393.098 166.444 400.292C167.272 401.905 168.624 404.39 170.433 404.325C175.883 404.129 175.862 384.552 175.709 379.08C175.708 378.912 175.646 378.749 175.535 378.622C176.522 377.148 177.6 375.736 178.761 374.393C179.454 374.87 180.183 375.293 180.941 375.658C181.682 375.985 182.511 375.418 183.121 374.917C190.38 369.205 229.533 320.417 237.926 297.396C241.741 286.888 246.821 272.369 248.259 262.08C249.139 255.574 249.219 248.985 248.499 242.46C248.499 242.367 248.536 242.278 248.601 242.213C248.667 242.148 248.755 242.111 248.848 242.111C248.94 242.111 249.029 242.148 249.095 242.213C249.16 242.278 249.197 242.367 249.197 242.46C250.288 249.022 250.501 255.701 249.829 262.32C248.216 276.599 236.945 306.355 230.928 317.299C236.117 316.34 246.668 314.247 251.769 312.721C268.773 307.555 284.469 292.142 285.843 274.833C286.287 266.678 286.287 258.506 285.843 250.351C285.695 239.094 284.232 227.893 281.483 216.976C286.104 214.469 290.333 211.526 291.707 208.822C294.65 203.045 286.867 169.8 285.167 160.47C294.475 161.495 310.324 163.348 317.714 157.571C326.173 150.769 344.441 131.629 354.927 116.914ZM174.532 377.881C170.608 375.505 165.114 369.859 164.286 365.434C165.18 364.3 166.117 363.254 166.989 362.076C169.943 366.585 173.627 370.57 177.889 373.87C176.692 375.14 175.571 376.479 174.532 377.881ZM347.842 101.501C347.954 101.429 348.035 101.317 348.068 101.187C348.1 101.057 348.082 100.92 348.016 100.803C347.253 99.3863 344.964 94.3941 346.556 93.8273C347.471 93.4785 348.278 94.0453 348.954 94.8083C349.986 96.1175 350.789 97.5916 351.33 99.1683C351.37 99.2965 351.445 99.4113 351.545 99.5005C351.646 99.5896 351.769 99.6497 351.901 99.6743C352.033 99.6989 352.169 99.6872 352.295 99.6403C352.421 99.5934 352.532 99.5132 352.616 99.4081C354.796 96.9883 359.897 91.4729 362.775 89.9905C364.955 88.8569 365.478 90.9497 360.137 95.8329C358.91 96.7683 357.732 97.7651 356.605 98.8195C356.543 98.9051 356.51 99.0081 356.51 99.1138C356.51 99.2195 356.543 99.3225 356.605 99.4081C356.605 99.9749 357.063 100.607 357.848 100.019C359.743 98.3551 361.746 96.8185 363.843 95.4187C364.914 94.6582 366.158 94.1785 367.462 94.0235C366.808 96.0291 360.726 101.479 360.202 102.09C360.036 102.238 359.936 102.446 359.921 102.669C359.907 102.891 359.981 103.11 360.127 103.279C360.272 103.447 360.479 103.552 360.701 103.57C360.923 103.588 361.143 103.518 361.314 103.376C363.734 101.806 367.963 98.1437 369.424 98.6887C370.884 99.2337 366.546 103.289 365.456 104.248C359.2 109.676 360.813 106.188 353.575 113.556C350.425 110.105 346.807 107.111 342.828 104.662L347.842 101.501ZM253.121 205.77C252.75 202.762 252.292 199.514 251.726 196.135L252.663 194.892C257.023 189.29 258.331 180.373 257.917 173.376C260.249 183.6 262.102 193.65 263.519 203.634L253.121 205.77ZM220.704 131.127C214.971 126.767 205.749 119.246 200.387 114.101L209.107 109.741C217.114 117.221 223.968 125.845 229.446 135.335C237.822 150.722 244.035 167.19 247.911 184.276L216.824 140.305L220.879 131.89C220.932 131.761 220.944 131.618 220.913 131.481C220.882 131.344 220.809 131.22 220.704 131.127ZM235.441 106.406C235.572 106.646 237.076 109.85 239.365 115.453C239.365 115.693 238.951 121.143 238.755 123.061C235.972 121.958 233.348 120.492 230.95 118.701C231.43 116.805 233.588 108.194 233.741 106.253L235.441 106.406ZM227.702 129.819C227.855 129.427 228.007 128.904 228.182 128.293L229.642 129.056C230.471 129.601 230.144 127.944 230.885 132.74C230.885 133.547 231.103 134.441 231.146 135.422C230.144 133.612 228.901 131.672 227.724 129.819H227.702ZM226.481 127.988C222.363 122.146 217.674 116.728 212.486 111.812L228.901 118.941C228.269 120.445 227.353 125.045 226.503 127.988H226.481ZM243.245 140.763C241.065 134.811 239.387 128.162 238.558 126.418C238.608 125.874 238.608 125.327 238.558 124.783C238.874 124.901 239.204 124.974 239.539 125.001C239.75 125.004 239.954 124.93 240.114 124.794C240.274 124.658 240.38 124.468 240.411 124.26C240.586 123.541 240.869 119.9 240.913 119.094C247.254 135.105 252.548 151.511 256.761 168.209C244.444 142.005 246.341 149.592 243.267 140.763H243.245ZM261.274 182.379C256.304 158.552 247.562 128.838 237.621 106.82C241.272 106.822 244.916 107.114 248.521 107.692C250.374 124.26 248.826 123.693 250.069 124.347C251.311 125.001 258.789 128.01 259.901 128.468C259.792 130.146 261.361 178.15 261.296 182.379H261.274ZM236.182 67.9943C237.319 70.4744 237.72 73.2284 237.338 75.9295C237.16 76.617 236.795 77.2417 236.284 77.7342C235.772 78.2267 235.134 78.5676 234.441 78.719C233.747 78.8704 233.025 78.8263 232.355 78.5917C231.685 78.3571 231.093 77.9411 230.645 77.3901C229.605 75.1989 228.822 72.8946 228.312 70.5231C228.901 69.7601 235.179 68.2341 236.182 67.9943ZM206.185 89.7943C205.389 89.4318 204.574 89.1116 203.744 88.8351C203.187 88.6061 202.689 88.2525 202.29 87.8015C201.89 87.3504 201.6 86.8139 201.44 86.2331C201.28 85.6523 201.255 85.0425 201.367 84.4506C201.479 83.8587 201.726 83.3003 202.087 82.8183C203.46 81.6629 204.703 81.7283 205.837 83.4505C206.556 84.7803 206.534 84.8893 206.861 85.0201C206.955 85.0615 207.057 85.0823 207.159 85.0812C207.262 85.0801 207.363 85.0571 207.455 85.0137C207.548 84.9704 207.631 84.9077 207.698 84.8298C207.764 84.752 207.814 84.6608 207.842 84.5623C208.165 83.1978 208.217 81.7831 207.995 80.3985C207.733 78.8943 207.69 72.2235 207.733 72.0055C208.37 72.3412 209.085 72.4993 209.804 72.4633C213.75 72.3107 214.535 70.2833 216.104 68.6265C217.914 68.8009 218.284 69.6729 220.334 68.6265C221.293 68.0807 222.173 67.4059 222.95 66.6209C223.576 66.8774 224.181 67.1836 224.759 67.5365C226.065 68.1648 227.539 68.3578 228.963 68.087C230.388 67.8163 231.688 67.0962 232.672 66.0323C232.912 66.4901 233.13 66.9479 233.326 67.4275C231.323 68.0491 229.437 68.9995 227.746 70.2397C227.375 70.6975 227.92 73.1827 228.051 73.7713C226.225 74.0011 224.457 74.5704 222.841 75.4499C222.514 74.3163 221.794 72.2017 220.661 71.6131C220.32 71.5087 219.955 71.5087 219.614 71.6131C217.652 71.9183 210.611 74.0329 209.761 75.1883C209.019 75.9949 211.134 82.2297 211.788 83.2543C214.295 87.1347 221.642 86.0011 223.015 81.4667C223.355 79.945 223.355 78.3669 223.015 76.8451C223.647 76.8451 225.544 76.1693 225.762 76.1039C227.266 79.4829 227.702 79.6791 229.446 83.3197C229.206 83.5159 228.814 83.8429 228.487 84.0609C226.939 85.0855 226.612 84.9111 226.699 85.3471C226.725 85.4337 226.781 85.508 226.857 85.5561C226.933 85.6043 227.024 85.623 227.113 85.6087C228.028 85.478 228.922 85.2288 229.773 84.8675C230.282 84.6776 230.702 84.3044 230.95 83.8211C231.561 82.4477 228.182 77.2811 226.852 75.7333C227.113 75.7333 227.724 75.2973 228.182 75.0575C228.792 77.4991 229.206 79.4175 231.561 80.3767C232.241 80.6336 232.966 80.7506 233.693 80.7206C234.42 80.6906 235.133 80.5144 235.79 80.2023C236.139 84.0391 236.073 90.2739 234.242 93.6747C233.305 95.4405 230.994 96.1163 229.511 97.5769C229.075 97.9911 229.359 98.5797 229.511 99.2119C231.931 105.948 231.975 105.926 231.844 106.798C231.202 110.418 230.306 113.987 229.163 117.48C228.618 117.241 222.492 113.992 210.502 109.327C210.131 106.864 208.147 93.7183 207.515 91.2985C207.559 90.4483 207.45 90.2521 206.185 89.6853V89.7943ZM221.445 80.8999C220.748 83.2761 217.456 84.3007 215.102 83.6467C212.747 82.9927 212.595 81.7937 211.483 78.9597C210.962 77.8771 210.602 76.724 210.415 75.5371C211.134 74.7523 219.004 73.1391 219.985 72.9865C221.361 75.3403 221.877 78.0988 221.445 80.7909V80.8999ZM136.142 211.787C135.314 212.594 136.425 215.232 136.6 217.521C136.6 217.717 136.6 218.567 136.469 218.632C135.27 219.025 134.158 217.215 133.482 216.125C132.807 215.035 132.131 213.553 131.063 213.945C128.883 214.97 123.825 221.684 121.841 222.382C120.838 220.464 126.572 214.992 126.768 214.687C126.852 214.546 126.896 214.386 126.895 214.222C126.895 214.059 126.849 213.899 126.764 213.759C126.678 213.62 126.556 213.507 126.411 213.432C126.266 213.357 126.103 213.324 125.94 213.335C125.547 213.335 125.286 213.684 124.675 214.229C122.819 216.041 120.693 217.555 118.375 218.72C120.477 216.308 122.727 214.029 125.111 211.896C125.229 211.775 125.312 211.624 125.351 211.46C125.351 211.46 124.893 210.305 123.999 210.763C122.735 211.46 116.587 215.014 114.647 215.929C114.386 215.755 114.538 215.493 114.647 215.232C117.721 211.46 124.479 206.882 128.621 203.983C129.107 203.482 129.512 202.908 129.82 202.282C132.689 204.951 135.749 207.407 138.976 209.629C137.982 210.281 137.035 211.002 136.142 211.787ZM186.871 231.603C186.391 231.298 186.042 231.015 185.977 230.622C184.778 221.728 191.449 171.326 191.34 169.343C191.34 169.226 191.316 169.111 191.271 169.004C191.226 168.896 191.16 168.799 191.077 168.718C190.993 168.637 190.894 168.573 190.786 168.531C190.678 168.488 190.562 168.468 190.446 168.471C189.334 168.471 191.296 168.471 163.523 195.067C161.692 196.789 147.696 210.174 145.363 211.068C142.159 210.828 130.103 201.214 128.141 198.184C131.935 190.51 177.933 127.378 193.847 117.72C195.067 116.979 197.16 115.824 199.449 114.603C200.241 115.349 201.094 116.027 202 116.63C207.057 121.426 214.099 127.399 219.44 131.89L215.276 140.152C215.213 140.262 215.18 140.386 215.18 140.512C215.18 140.638 215.213 140.762 215.276 140.872C249.088 189.377 248.586 188.832 248.804 188.832C250.972 200.04 252.32 211.392 252.837 222.796C252.837 225.87 252.837 225.608 252.968 225.39C253.099 225.172 252.968 225.543 252.968 225.543C247.693 231.298 195.482 236.661 186.871 231.603ZM307.381 159.38C297.506 160.753 286.344 158.704 284.186 158.617C282.986 152.805 280.596 147.305 277.166 142.463C277.114 142.393 277.037 142.344 276.95 142.328C276.864 142.312 276.775 142.329 276.7 142.376C276.626 142.423 276.572 142.496 276.549 142.581C276.526 142.666 276.537 142.756 276.578 142.834C277.842 145.406 282.071 156.502 283.118 159.206C282.791 160.252 292.971 202.348 290.094 208.016C287.521 213.139 272.545 219.592 267.138 221.445C266.069 209.308 264.322 197.241 261.906 185.3C262.647 179.022 261.688 141.7 261.405 127.901C261.396 127.74 261.343 127.586 261.25 127.454C261.158 127.323 261.03 127.221 260.882 127.16L251.093 123.039C251.049 117.859 250.721 112.684 250.112 107.54C274.55 111.769 303.021 125.743 305.397 125.764C308.842 125.764 334.435 106.144 339.732 105.36C342.087 104.989 352.202 113.818 353.379 116.26C343.046 130.691 324.886 149.657 316.472 156.219C313.761 158.031 310.631 159.12 307.381 159.38Z" fill="black"/>
<path d="M219.2 76.5396C219.173 76.3964 219.118 76.26 219.038 76.1382C218.958 76.0164 218.855 75.9115 218.734 75.8295C218.614 75.7475 218.478 75.69 218.336 75.6604C218.193 75.6307 218.046 75.6295 217.903 75.6567C217.76 75.6839 217.623 75.739 217.502 75.8189C217.38 75.8988 217.275 76.0019 217.193 76.1224C217.111 76.2428 217.053 76.3782 217.024 76.5209C216.994 76.6635 216.993 76.8106 217.02 76.9538C217.456 79.1338 217.543 79.6352 218.502 79.6352C218.684 79.6358 218.862 79.5912 219.022 79.5054C219.182 79.4196 219.318 79.2953 219.417 79.1438C219.517 78.9923 219.577 78.8183 219.592 78.6376C219.608 78.457 219.578 78.2753 219.505 78.1092C219.44 77.7604 219.244 76.7358 219.2 76.5396ZM225.871 90.9712C227.288 91.3854 228.639 90.7096 228.596 90.3608C228.552 90.012 228.596 90.1864 226.677 89.467C225.391 88.9874 223.974 87.287 223.473 87.5486C222.971 87.8102 223.734 89.2054 223.909 89.467C224.375 90.1746 225.066 90.7045 225.871 90.9712ZM265.743 70.2612C262.887 82.2294 260.794 92.3882 260.446 94.4156C260.214 95.2977 260.169 96.2184 260.315 97.1188C261.47 99.5822 276.403 104.444 278.3 103.484C280.196 102.525 285.123 91.429 290.857 79.984C294.369 80.0962 297.883 79.8405 301.342 79.221C304.985 78.5528 308.529 77.4323 311.894 75.8856C319.262 72.4848 327.328 57.9224 328.418 50.5976C329.235 42.645 327.551 34.6356 323.6 27.6858C305.31 -4.03323 251.66 13.0362 256.02 48.265C257.265 56.326 260.62 63.9145 265.743 70.2612ZM279.041 96.225C279.041 96.5738 278.649 96.5302 276.861 96.225C273.205 95.7655 269.664 94.6347 266.419 92.8896C264.893 92.0612 264.479 91.8868 264.631 91.5162C264.784 91.1456 265.111 91.2764 267.465 91.9304C267.683 91.9304 274.441 94.1104 276.381 94.7862C278.888 95.9198 279.041 95.9198 279.041 96.225ZM278.649 60.7564C280.977 60.8771 283.296 60.3966 285.385 59.3612C287.326 60.3016 289.426 60.8709 291.576 61.0398C287.914 67.8632 280.48 81.7716 278.082 89.1836L268.839 86.633C271.019 81.2702 275.836 68.7134 278.605 60.7564H278.649ZM277.886 58.947C276.258 58.7011 274.757 57.9283 273.611 56.7469C272.465 55.5656 271.738 54.041 271.542 52.407C270.931 48.047 273.722 43.1638 277.929 44.3192C280.567 45.0386 280.894 47.1314 280.436 49.7692C280.044 51.6876 278.627 56.5054 277.842 58.8598L277.886 58.947ZM283.815 53.715C284.048 52.2885 284.583 50.9283 285.385 49.7256C285.766 49.07 286.324 48.5345 286.994 48.1799C287.665 47.8254 288.421 47.666 289.178 47.72C290.791 48.1996 291.489 51.2516 290.159 53.17C288.881 54.866 287.29 56.3016 285.472 57.3992C284.846 57.032 284.348 56.4822 284.044 55.8236C283.74 55.1651 283.645 54.4292 283.772 53.715H283.815ZM263.781 26.0072C273.547 14.257 291.925 9.59177 305.201 14.4314C312.413 16.9071 318.48 21.9198 322.27 28.536C326.029 35.1491 327.637 42.768 326.87 50.336C325.867 57.1158 318.15 71.1986 311.37 74.316C305.172 77.1435 298.408 78.5155 291.598 78.3272C290.857 78.3272 290.072 78.3272 289.788 78.8504C288.502 81.4664 286.148 86.524 283.837 91.2764C282.241 90.5059 280.586 89.8644 278.888 89.358C281.417 82.1204 289.396 67.9068 293.189 61.018C296.476 61.2995 299.779 60.7289 302.781 59.3612C303.592 58.9343 304.265 58.2849 304.719 57.4893C305.174 56.6937 305.393 55.7848 305.349 54.8693C305.306 53.9539 305.002 53.0698 304.474 52.3209C303.946 51.572 303.215 50.9893 302.367 50.6412C298.988 48.9844 295.958 52.952 294.192 56.2874C293.712 57.1594 293.167 58.184 292.557 59.3394C290.794 59.2235 289.055 58.864 287.39 58.2712C289.048 57.1061 290.519 55.6946 291.75 54.0856C292.441 53.0433 292.79 51.8124 292.751 50.5629C292.712 49.3134 292.286 48.1068 291.532 47.1096C290.94 46.4218 290.117 45.9737 289.218 45.8493C288.319 45.7248 287.406 45.9327 286.649 46.4338C285.122 47.3719 283.899 48.7307 283.126 50.3471C282.352 51.9635 282.062 53.7688 282.289 55.5462C282.526 56.5495 283.067 57.4553 283.837 58.1404C282.407 58.7326 280.872 59.0292 279.324 59.0124C280.196 56.44 281.613 51.7966 281.984 49.9C282.216 48.8187 282.268 47.7063 282.137 46.6082C281.968 45.6654 281.53 44.7915 280.877 44.0915C280.223 43.3915 279.381 42.8952 278.452 42.6624C273.155 41.1582 269.253 47.0224 270.016 52.4942C270.231 54.4551 271.073 56.2943 272.416 57.7393C273.759 59.1843 275.531 60.1582 277.471 60.5166C274.681 68.3646 270.321 81.0304 268.141 86.4368L263.345 85.1942C266.419 69.7598 266.789 70.1304 266.353 69.9342C261.4 63.6187 258.231 56.0907 257.176 48.1342C256.662 44.1889 256.984 40.1797 258.122 36.3674C259.26 32.5551 261.188 29.0251 263.781 26.0072ZM294.039 59.4702C295.565 56.7016 298.617 50.6412 301.582 52.1236C302.175 52.3625 302.692 52.7588 303.076 53.2698C303.46 53.7808 303.697 54.387 303.762 55.023C303.719 58.8598 297.745 59.5356 293.952 59.4702H294.039ZM377.49 69.084C380.117 67.539 383.22 67.0115 386.21 67.6016C389.494 67.6603 392.632 68.9736 394.979 71.272C397.326 73.5704 398.704 76.6797 398.832 79.9622C396.857 78.8162 394.547 78.3851 392.292 78.7414C386.82 79.221 379.67 82.1858 380.629 87.4614C381.414 91.8214 387.169 91.2328 391.529 90.0556C395.889 88.8784 399.355 86.742 400.249 82.5346C405.546 86.3932 406.789 93.1512 407.007 99.7566C407.007 99.8491 407.044 99.9378 407.109 100.003C407.174 100.069 407.263 100.105 407.356 100.105C407.448 100.105 407.537 100.069 407.602 100.003C407.668 99.9378 407.705 99.8491 407.705 99.7566C407.857 92.3664 406.527 85.1288 400.489 80.9214C400.551 79.0286 400.228 77.143 399.54 75.3786C398.853 73.6142 397.814 72.0077 396.487 70.6565C395.16 69.3052 393.573 68.2373 391.821 67.5174C390.07 66.7974 388.19 66.4404 386.297 66.468C383.271 66.0261 380.185 66.6586 377.577 68.2556C376.77 68.648 377.141 69.2366 377.49 69.084ZM397.371 84.7146C394.908 87.941 387.932 89.6196 384.706 89.0746C383.507 88.8784 382.526 88.377 382.264 87.1344C381.479 82.7744 389 80.3982 393.491 80.2456C395.32 80.1054 397.143 80.5728 398.679 81.5754C398.514 82.7151 398.064 83.7949 397.371 84.7146ZM367.505 43.5998C369.838 40.7222 368.268 35.7082 361.75 35.6864C359.221 35.6864 358.001 38.2588 358.175 40.7222C358.567 46.5864 365.173 46.412 367.505 43.5998ZM359.701 40.6132C359.701 39.1744 360.377 37.2996 361.881 37.3214C365.391 37.3214 367.004 38.9564 367.004 40.7658C366.917 44.886 359.418 47.0224 359.701 40.6132ZM358.807 287.76C339.645 280.108 330.751 317.146 315.098 348.974C314.999 350.312 315.043 351.657 315.229 352.985C315.229 356.321 315.6 378.404 317.54 380.911C318.063 381.914 320.265 380.911 321.289 380.279C329.991 374.892 338.192 368.734 345.793 361.88C345.857 361.806 345.906 361.719 345.936 361.625C345.966 361.532 345.977 361.433 345.967 361.335C350.022 355.558 365.216 325.474 368.901 310.388C371.473 299.706 368.922 291.749 358.807 287.76ZM365.652 315.446C355.394 314.131 345.475 310.892 336.419 305.897C341.52 296.24 347.82 285.231 358.219 289.373C369.794 293.973 369.555 303.499 365.652 315.38V315.446ZM329.377 372.126C328.708 371.565 327.976 371.082 327.197 370.687C324.251 369.189 320.848 368.862 317.671 369.771C317.453 367.177 316.21 350.304 316.21 350.151C332.538 356.125 327.502 353.53 343.678 361.575C341.978 363.188 335.59 367.657 329.377 372.082V372.126ZM340.626 309.037C342.752 310.198 344.935 311.253 347.166 312.198C342.169 320.046 337.754 328.251 333.955 336.744C330.293 344.396 330.424 344.353 326.696 352.702C324.516 352.004 322.336 351.35 320.156 350.696C322.51 346.009 339.253 311.74 340.626 308.993V309.037ZM327.546 352.92C334.631 340.211 341.847 324.406 348.038 312.481C350.218 313.397 352.398 314.138 354.578 314.792C353.423 316.972 350.044 322.771 349.15 324.449C348.256 326.128 339.296 343.786 338.664 345.137C337.661 347.317 334.914 353.4 334.064 355.34C331.841 354.359 329.704 353.618 327.459 352.876L327.546 352.92ZM334.849 355.623C336.179 353.203 341.651 343.045 342.326 341.737C343.351 339.709 354.774 316.361 355.406 315.01C357.412 315.577 359.527 316.056 360.878 316.318C356.889 327.218 345.4 348.211 341.258 358.566C337.487 356.8 336.637 356.364 334.762 355.58L334.849 355.623ZM336.179 306.53L340.081 308.71C332.217 322.101 325.367 336.063 319.589 350.478L316.319 349.476C328.985 322.487 329.573 318.956 336.092 306.486L336.179 306.53ZM345.16 360.463L341.869 358.893C345.422 351.917 356.54 334.019 361.619 316.47C362.84 316.688 364.039 316.885 365.195 317.037C359.592 331.985 352.866 346.487 345.073 360.419L345.16 360.463ZM276.861 374.611C277.73 373.892 278.351 372.918 278.636 371.826C278.922 370.735 278.858 369.582 278.452 368.529C278.267 367.01 277.571 365.599 276.477 364.529C275.384 363.459 273.958 362.792 272.436 362.64C270.913 362.488 269.384 362.859 268.1 363.691C266.817 364.524 265.854 365.769 265.372 367.221C262.582 365.411 259.552 363.493 256.652 361.662C258.832 358.762 265.242 360.049 265.896 362.425C265.91 362.517 265.961 362.6 266.036 362.655C266.112 362.711 266.206 362.734 266.299 362.719C266.391 362.705 266.474 362.654 266.53 362.578C266.585 362.503 266.608 362.408 266.593 362.316C266.266 358.523 258.375 356.299 255.192 360.768C252.38 359.046 248.892 356.953 245.97 355.362C248.477 353.182 254.08 354.402 254.69 356.67C254.719 356.747 254.774 356.812 254.846 356.853C254.918 356.893 255.003 356.907 255.084 356.891C255.165 356.875 255.238 356.831 255.29 356.767C255.341 356.702 255.368 356.621 255.366 356.539C255.083 353.007 247.78 350.631 244.466 354.511C243.078 353.733 241.618 353.091 240.106 352.593C239.83 352.478 239.527 352.446 239.233 352.5C238.939 352.555 238.667 352.693 238.449 352.898C232.934 359.765 214.339 377.598 205.749 379.669C205.533 379.701 205.33 379.79 205.159 379.926C204.989 380.062 204.857 380.241 204.777 380.445C204.698 380.648 204.673 380.869 204.706 381.084C204.739 381.3 204.828 381.504 204.965 381.674C206.851 383.589 209.011 385.212 211.374 386.492C209.194 388.672 207.493 390.634 206.229 392.051C205.575 392.749 205.226 406.09 205.793 409.033C205.877 409.321 206.063 409.569 206.316 409.731C209.063 411.606 244.444 426.909 248.063 424.86C250.483 423.487 279.368 393.424 279.826 392.509C280.523 391.07 280.284 381.478 280.24 377.641C280.066 376.486 277.907 375.243 276.861 374.611ZM207.101 403.409V398.547C216.148 402.907 236.858 411.802 244.706 414.287C246.712 414.941 246.886 414.854 247.932 414.287C253.927 410.45 275.095 386.601 278.976 382.96V387.56C267.204 399.354 247.213 420.02 246.842 418.843C244.684 418.712 208.976 404.281 207.101 403.409ZM276.316 367.264C277.1 368.585 277.521 370.089 277.537 371.624C277.529 372.113 277.409 372.593 277.186 373.028C276.963 373.463 276.643 373.84 276.251 374.131C274.419 372.911 270.953 370.643 266.855 367.984C269.1 363.558 274.092 363.493 276.229 367.264H276.316ZM206.556 381.216C215.843 378.47 233.479 361.466 239.409 354.097C240.836 354.494 242.211 355.058 243.507 355.776C241.327 359.831 243.66 364.278 244.488 363.646C244.946 363.297 244.117 363.166 243.987 361.03C243.931 359.469 244.284 357.921 245.011 356.539C248.02 358.108 251.551 360.158 254.538 361.88C252.707 365.956 254.908 369.989 255.671 369.401C256.434 368.812 255.323 368.943 255.192 366.807C255.139 365.406 255.407 364.011 255.977 362.73C259.05 364.539 262.19 366.414 265.067 368.18C264.624 369.266 264.448 370.443 264.554 371.612C264.66 372.78 265.046 373.906 265.678 374.894C265.706 374.932 265.742 374.963 265.783 374.986C265.823 375.01 265.868 375.025 265.915 375.031C265.961 375.037 266.009 375.034 266.054 375.022C266.099 375.009 266.142 374.988 266.179 374.96C266.216 374.931 266.247 374.895 266.271 374.855C266.294 374.814 266.309 374.769 266.316 374.723C266.322 374.676 266.318 374.629 266.306 374.583C266.294 374.538 266.273 374.496 266.244 374.458C265.853 373.592 265.659 372.65 265.678 371.699C265.697 370.749 265.928 369.815 266.353 368.965C271.433 372.06 275.531 374.655 276.796 375.505C276.556 375.723 253.818 395.953 246.079 401.97C241 400.64 214.339 387.408 206.556 381.216ZM207.384 393.359C217.26 397.719 239.692 407.834 244.859 408.815C245.752 408.99 246.101 409.055 247.802 407.703C255.061 401.883 278.67 377.183 278.888 377.445C278.899 377.51 278.899 377.576 278.888 377.641V382.001C274.027 385.903 246.995 414.287 246.559 412.935C244.379 412.935 208.954 398.482 207.145 397.675C207.101 396.76 207.297 394.318 207.384 393.359ZM247.082 423.399C244.902 424.642 211.701 411.148 207.254 408.401C207.087 407.012 207.006 405.614 207.014 404.215C216.562 408.924 244.335 420.653 246.886 420.544C250.614 420.347 276.97 390.678 278.845 388.607C278.866 389.72 278.757 390.832 278.518 391.92C278.147 392.64 248.521 422.593 247.082 423.399ZM66.4692 300.513C66.6218 302.845 66.7308 304.873 66.7308 306.769C66.7308 307.058 66.8456 307.336 67.0501 307.54C67.2545 307.745 67.5317 307.859 67.8208 307.859C68.1099 307.859 68.3871 307.745 68.5915 307.54C68.796 307.336 68.9108 307.058 68.9108 306.769C68.9108 304.742 68.8018 302.736 68.6492 300.36C68.629 300.071 68.4947 299.802 68.276 299.612C68.0573 299.422 67.772 299.326 67.4829 299.346C67.1938 299.367 66.9246 299.501 66.7345 299.72C66.5444 299.938 66.449 300.224 66.4692 300.513ZM398.636 256.804C398.493 256.812 398.354 256.849 398.226 256.912C398.098 256.974 397.984 257.062 397.891 257.17C397.797 257.278 397.726 257.403 397.682 257.539C397.638 257.674 397.621 257.817 397.633 257.959C397.764 259.965 397.895 262.123 397.895 264.216C397.895 264.505 398.009 264.782 398.214 264.987C398.418 265.191 398.695 265.306 398.985 265.306C399.274 265.306 399.551 265.191 399.755 264.987C399.96 264.782 400.075 264.505 400.075 264.216C400.075 262.036 399.944 259.856 399.791 257.807C399.783 257.664 399.746 257.525 399.683 257.397C399.62 257.269 399.533 257.155 399.425 257.062C399.317 256.968 399.192 256.897 399.056 256.853C398.921 256.809 398.778 256.792 398.636 256.804ZM60.823 295.085C61.1121 295.085 61.3893 294.97 61.5938 294.765C61.7982 294.561 61.913 294.284 61.913 293.995C61.913 293.705 61.7982 293.428 61.5938 293.224C61.3893 293.019 61.1121 292.905 60.823 292.905C58.1852 292.905 55.9834 293.101 53.8034 293.057C53.5123 293.057 53.2327 293.171 53.0249 293.375C52.817 293.579 52.6973 293.856 52.6916 294.147C52.6916 294.436 52.8064 294.714 53.0109 294.918C53.2153 295.122 53.4925 295.237 53.7816 295.237C56.027 295.281 58.4904 295.194 60.823 295.085ZM391.878 250.351C389.262 250.351 387.06 250.504 384.858 250.525C384.569 250.525 384.292 250.64 384.087 250.845C383.883 251.049 383.768 251.326 383.768 251.615C383.768 251.904 383.883 252.182 384.087 252.386C384.292 252.591 384.569 252.705 384.858 252.705C387.213 252.705 389.654 252.705 392.009 252.531C392.298 252.514 392.568 252.382 392.76 252.165C392.952 251.949 393.05 251.665 393.033 251.376C393.016 251.086 392.884 250.816 392.668 250.624C392.451 250.432 392.167 250.334 391.878 250.351ZM65.8806 281.612C66.0114 283.618 66.1422 285.776 66.1422 287.869C66.1478 288.156 66.2644 288.43 66.4676 288.633C66.6708 288.837 66.9449 288.953 67.2322 288.959C67.5213 288.959 67.7985 288.844 68.0029 288.64C68.2074 288.435 68.3222 288.158 68.3222 287.869C68.3222 285.689 68.1914 283.509 68.0606 281.46C68.0404 281.171 67.9061 280.901 67.6874 280.711C67.4687 280.521 67.1834 280.426 66.8943 280.446C66.6052 280.466 66.336 280.6 66.1459 280.819C65.9558 281.038 65.8604 281.323 65.8806 281.612ZM399.486 245.315C399.486 243.135 399.355 240.955 399.203 238.906C399.182 238.617 399.048 238.348 398.829 238.158C398.611 237.967 398.325 237.872 398.036 237.892C397.747 237.913 397.478 238.047 397.288 238.265C397.098 238.484 397.002 238.77 397.023 239.059C397.153 241.064 397.284 243.222 397.284 245.315C397.284 245.604 397.399 245.882 397.603 246.086C397.808 246.29 398.085 246.405 398.374 246.405C398.665 246.405 398.945 246.291 399.153 246.087C399.361 245.883 399.48 245.606 399.486 245.315ZM81.969 294.801C82.1122 294.796 82.2528 294.762 82.383 294.702C82.5131 294.642 82.6301 294.557 82.7272 294.451C82.8244 294.346 82.8999 294.223 82.9493 294.088C82.9988 293.954 83.0212 293.811 83.0154 293.668C82.9934 293.382 82.8643 293.116 82.6541 292.922C82.4438 292.728 82.1679 292.62 81.8818 292.621C79.244 292.73 77.0422 292.817 74.8404 292.774C74.5513 292.774 74.2741 292.889 74.0697 293.093C73.8652 293.297 73.7504 293.575 73.7504 293.864C73.7504 294.153 73.8652 294.43 74.0697 294.634C74.2741 294.839 74.5513 294.954 74.8404 294.954C77.173 294.997 79.6146 294.91 81.969 294.801ZM413.024 250.068C410.844 250.177 408.424 250.242 406.004 250.242C405.86 250.236 405.717 250.259 405.582 250.31C405.447 250.361 405.324 250.439 405.22 250.539C405.117 250.639 405.034 250.759 404.978 250.891C404.921 251.024 404.892 251.166 404.892 251.31C404.892 251.601 405.006 251.881 405.21 252.089C405.414 252.297 405.691 252.416 405.982 252.422C408.468 252.422 410.473 252.422 413.111 252.248C413.254 252.242 413.395 252.208 413.525 252.148C413.655 252.088 413.772 252.003 413.869 251.898C413.966 251.792 414.042 251.669 414.091 251.535C414.141 251.4 414.163 251.257 414.157 251.114C414.13 250.831 414 250.567 413.791 250.374C413.582 250.181 413.308 250.072 413.024 250.068ZM31.8726 230.208C32.156 230.426 93.632 221.313 96.2698 219.7C96.4159 219.594 96.5325 219.452 96.6088 219.288C96.685 219.124 96.7184 218.943 96.7058 218.763C96.7058 215.951 93.0216 189.551 91.2558 182.967C91.0378 182.161 90.8198 181.354 90.3184 181.071C86.983 179.065 28.2102 190.139 24.7004 192.407C24.6053 192.463 24.5231 192.538 24.4592 192.629C24.3954 192.719 24.3513 192.821 24.3298 192.93C23.5886 195.568 29.976 228.9 31.8726 230.208ZM25.6596 193.453C29.8452 191.556 83.1898 181.79 89.2938 182.553C90.7762 186.368 94.7438 214.316 95.0054 218.414C91.9752 219.308 32.701 229.488 32.483 229.532C32.265 229.576 32.2432 229.837 31.7854 228.464C29.867 222.709 25.5506 198.38 25.6596 193.453Z" fill="black"/>
<path d="M101.066 221.641C101.184 221.421 101.237 221.171 101.218 220.921C101.218 217.455 96.248 178.978 94.4822 175.904C94.3438 175.678 94.1478 175.492 93.9142 175.365C93.6807 175.239 93.4178 175.177 93.1524 175.185C85.8494 174.291 24.2426 186.325 20.1878 189.137C19.621 189.529 19.7082 190.51 19.7736 191.557C20.1224 197.29 26.3136 235.004 28.4936 234.786C28.7334 234.786 28.6462 234.612 28.0794 235.767C24.6786 242.765 18.2258 265.175 18.3566 269.688C18.3566 271.585 18.7926 274.048 20.6674 273.917C34.118 272.26 100.063 261.796 119.029 257.894C119.77 257.742 120.25 257.066 120.228 255.954C120.004 254.102 119.443 252.306 118.571 250.657C115.912 245.664 104.881 225.892 101.066 221.641ZM28.6244 234.11C26.924 231.93 20.6674 194.369 21.147 190.205C25.943 187.72 86.7214 175.97 93.087 176.929C94.831 181.725 99.3436 216.365 99.627 220.529C91.9098 223.189 38.478 231.821 28.6244 234.11ZM29.5836 234.764C31.4148 234.307 93.7846 223.864 99.4962 222.36C102.614 225.26 116.696 250.308 117.612 252.444C105.099 254.624 30.8698 267.028 19.948 268.685C20.1006 262.08 26.8804 238.994 29.5836 234.764Z" fill="black"/>
<path d="M37.7798 257.371C39.6764 257.088 79.9192 252.248 94.4598 248.302C94.5495 248.279 94.6262 248.221 94.6732 248.142C94.7202 248.062 94.7337 247.967 94.7105 247.877C94.6874 247.788 94.6296 247.711 94.5499 247.664C94.4702 247.617 94.3751 247.603 94.2854 247.627C91.4296 248.215 56.5932 252.859 37.7362 256.695C37.6841 256.686 37.6306 256.689 37.5797 256.703C37.5287 256.717 37.4817 256.743 37.4422 256.778C37.4028 256.814 37.3718 256.857 37.3517 256.906C37.3317 256.955 37.323 257.008 37.3264 257.061C37.3298 257.114 37.3452 257.165 37.3714 257.211C37.3976 257.257 37.4339 257.297 37.4776 257.327C37.5213 257.356 37.5712 257.376 37.6236 257.384C37.6759 257.391 37.7294 257.387 37.7798 257.371ZM67.188 105.687C66.3737 107.526 65.6889 109.42 65.1388 111.355C65.1064 111.665 65.192 111.977 65.3786 112.227C67.5804 115.54 90.1434 140.981 96.0294 144.556C96.836 145.058 97.7952 145.406 98.3838 144.687C102.66 139.367 108.24 135.243 114.581 132.719C119.743 130.893 125.154 129.871 130.626 129.689C134.986 129.296 135.749 128.86 137.428 126.004C139.408 122.246 142.035 118.866 145.188 116.02C149.209 112.504 153.673 109.529 158.465 107.169C158.68 107.047 158.849 106.856 158.944 106.627C159.039 106.398 159.054 106.144 158.988 105.905C158.251 104.03 157.276 102.257 156.088 100.629C156.873 100.368 157.745 100.128 157.745 99.343C157.745 97.163 138.736 69.6514 133.46 64.463C132.915 63.918 132.13 63.1986 131.411 63.2422C120.511 63.8526 109.894 74.1422 103.747 83.1238C96.7052 82.8622 92.149 82.23 84.1266 85.609C78.4632 88.013 73.3571 91.5605 69.1282 96.0294C68.4742 96.7052 64.027 101.414 63.9616 101.785C63.8962 102.155 64.027 102.155 67.188 105.687ZM154.388 105.076C145.297 106.624 139.499 114.189 135.226 122.407C133.329 126.07 133.504 126.244 131.498 126.201C127.991 126.002 124.473 126.133 120.99 126.593C118.436 126.975 115.925 127.603 113.491 128.468C107.954 130.43 101.61 136.708 98.2312 141.373C98.1595 141.469 98.0682 141.549 97.9635 141.607C97.8587 141.665 97.7429 141.701 97.6235 141.711C97.5041 141.721 97.3839 141.706 97.2707 141.667C97.1575 141.628 97.054 141.565 96.9668 141.482C89.8818 134.179 77.3468 121.361 71.0466 113.993C70.7414 113.666 71.2646 113.186 71.5698 113.535C75.6464 117.895 86.1758 128.337 97.4682 139.695C101.283 134.833 107.169 128.947 112.99 126.898C116.164 125.766 119.467 125.034 122.822 124.718C125.964 124.48 129.119 124.48 132.261 124.718C133.547 123.236 139.913 106.406 154.344 104.531C154.387 104.562 154.421 104.603 154.446 104.649C154.471 104.695 154.484 104.746 154.487 104.799C154.489 104.851 154.479 104.903 154.458 104.951C154.437 104.999 154.406 105.042 154.366 105.076H154.388ZM131.389 65.008C135.749 68.06 153.494 94.329 155.805 98.9288C151.795 100.199 147.924 101.872 144.251 103.921C140.773 105.665 137.727 108.163 135.336 111.232C132.945 114.302 131.269 117.867 130.43 121.666C122.604 108.935 111.682 94.9176 104.422 84.6062C104.858 84.3228 117.11 65.8582 131.389 65.008ZM84.6062 86.808C92.5632 83.6034 96.9668 84.3446 103.55 84.628C110.09 95.7896 121.841 111.529 129.58 121.841C122.437 120.15 114.92 121.184 108.499 124.74C104.64 126.92 99.9316 132.152 97.0322 135.4C92.8466 132.043 68.6922 106.319 64.8118 101.959C70.785 95.201 76.3004 90.1216 84.6062 86.7208V86.808ZM44.7122 142.245C44.1734 141.867 43.5365 141.654 42.8786 141.63C42.2208 141.607 41.5704 141.775 41.0062 142.115C40.5954 142.298 40.2247 142.56 39.9153 142.887C39.6059 143.213 39.3638 143.597 39.2028 144.017C39.0419 144.437 38.9653 144.885 38.9774 145.335C38.9894 145.784 39.0899 146.227 39.2731 146.638C39.4564 147.049 39.7187 147.42 40.0452 147.729C40.3717 148.038 40.7559 148.281 41.176 148.441C41.596 148.602 42.0436 148.679 42.4933 148.667C42.9429 148.655 43.3858 148.554 43.7966 148.371C44.4529 148.228 45.0501 147.888 45.5089 147.397C45.9678 146.907 46.2667 146.288 46.366 145.624C46.4653 144.959 46.3603 144.281 46.065 143.677C45.7696 143.074 45.2979 142.575 44.7122 142.245ZM43.2734 146.605C41.7474 147.085 40.8318 146.605 40.4612 145.864C39.7636 144.316 40.6356 141.94 42.9028 142.638C44.4942 143.226 45.7804 145.908 43.2734 146.714V146.605ZM155.565 42.4886C156.197 43.7748 159.14 43.2952 160.427 42.881C161.102 42.663 161.538 42.4232 161.604 41.7692C161.8 40.1342 162.018 25.9642 161.277 24.5908C161.2 24.4468 161.083 24.3286 160.939 24.251C160.796 24.1735 160.633 24.14 160.47 24.1548C158.144 24.1483 155.83 24.4863 153.603 25.1576C152.709 25.7026 154.78 41.0498 155.565 42.4886ZM154.061 25.6808C156.075 25.3927 158.111 25.2978 160.143 25.3974C160.274 27.0106 159.925 40.9844 159.903 41.2024C158.982 41.5324 157.999 41.6516 157.026 41.5512C156.873 41.0498 156.612 39.6982 156.285 37.9978C155.324 33.9348 154.582 29.8232 154.061 25.6808ZM42.5976 123.846C42.8068 123.953 43.0384 124.009 43.2734 124.009C43.5084 124.009 43.7401 123.953 43.9492 123.846C44.7915 123.327 45.4594 122.568 45.8676 121.666C45.9231 121.522 45.9402 121.366 45.9173 121.213C45.8943 121.06 45.8322 120.916 45.7368 120.794C44.6904 119.552 33.2672 106.319 31.872 107.147C30.159 108.256 28.5338 109.495 27.0106 110.853C26.9493 110.908 26.9001 110.975 26.8663 111.051C26.8325 111.126 26.8148 111.207 26.8144 111.289C26.7708 112.423 39.4584 122.582 42.5976 123.846ZM32.1336 107.714C33.725 108.87 39.0878 115.497 44.0582 121.361C43.8444 121.698 43.5797 121.999 43.2734 122.255C38.0477 118.91 33.0582 115.21 28.3404 111.18C29.5231 109.939 30.7906 108.78 32.1336 107.714ZM66.3814 59.6234C66.861 51.165 71.7878 47.241 76.9326 46.2382C75.472 51.601 75.7118 58.577 81.0092 59.4708C83.538 59.885 84.7806 58.577 86.6118 57.051C94.438 50.511 88.116 43.971 79.287 44.4288C82.5788 35.4036 90.187 28.057 100.28 27.8172C100.373 27.8172 100.462 27.7804 100.527 27.715C100.592 27.6496 100.629 27.5609 100.629 27.4684C100.629 27.3759 100.592 27.2872 100.527 27.2217C100.462 27.1563 100.373 27.1196 100.28 27.1196C89.3804 26.9016 80.813 34.7496 77.434 44.5596C71.6134 45.5624 65.8364 49.9224 65.6838 59.4926C65.6752 59.5384 65.6758 59.5854 65.6854 59.631C65.695 59.6767 65.7134 59.7199 65.7398 59.7584C65.7661 59.7968 65.7997 59.8297 65.8387 59.8552C65.8778 59.8807 65.9214 59.8982 65.9672 59.9068C66.013 59.9154 66.0601 59.9149 66.1057 59.9053C66.1513 59.8957 66.1946 59.8772 66.233 59.8509C66.2715 59.8246 66.3044 59.7909 66.3299 59.7519C66.3553 59.7129 66.3729 59.6692 66.3814 59.6234ZM78.7856 45.9766C82.0338 45.7586 86.8734 46.7614 88.2032 49.7044C88.9662 51.383 88.2032 53.454 85.5 55.7212C84.7661 56.4564 83.9289 57.0806 83.0148 57.5742C79.7448 58.9694 76.126 54.9364 78.7856 45.9766ZM85.0204 354.294C82.9143 353.73 80.7165 353.593 78.5565 353.89C76.3966 354.188 74.318 354.915 72.4431 356.028C70.5682 357.142 68.9349 358.618 67.6393 360.372C66.3438 362.126 65.412 364.121 64.899 366.24C63.9306 370.643 64.7508 375.25 67.1793 379.048C69.6077 382.846 73.4455 385.524 77.8482 386.493C82.251 387.461 86.8582 386.641 90.6562 384.212C94.4542 381.784 97.132 377.946 98.1004 373.543C98.5141 371.42 98.5034 369.235 98.0689 367.116C97.6344 364.997 96.7847 362.984 95.5688 361.195C94.3529 359.406 92.7948 357.875 90.9844 356.69C89.174 355.506 87.1471 354.691 85.0204 354.294ZM91.7566 372.061C90.8819 375.55 88.7879 378.61 85.8532 380.689C82.9184 382.768 79.3367 383.729 75.7554 383.397C72.468 382.112 69.7388 379.71 68.0482 376.611C66.3575 373.513 65.8136 369.918 66.5122 366.458C67.328 362.885 69.4025 359.725 72.3566 357.555C75.3107 355.386 78.947 354.352 82.6006 354.643C85.9206 356.014 88.6502 358.513 90.3091 361.699C91.9679 364.885 92.4496 368.555 91.6694 372.061H91.7566Z" fill="black"/>
<path d="M114.059 360.506C112.161 359.852 110.127 359.694 108.151 360.049C107.332 358.171 106.324 356.381 105.143 354.708C106.56 353.421 110.44 349.846 109.503 348.168C106.167 344.177 102.206 340.754 97.7743 338.031C95.9239 336.994 93.8862 336.334 91.7793 336.09C90.3841 336.287 87.0705 341.715 86.3293 342.936C85.8497 342.936 84.1493 342.391 84.0185 342.325C84.0185 340.756 83.5607 335.088 82.1437 334.434C80.5592 333.85 78.9137 333.448 77.2387 333.235C75.6909 332.995 61.7607 335.545 60.7361 337.42C60.0603 338.685 61.6299 343.459 62.0877 344.789C60.912 345.436 59.7829 346.164 58.7087 346.969C56.5287 348.516 57.1173 348.451 56.7249 348.277C56.2507 348.05 55.7425 347.903 55.2207 347.841C53.4793 346.819 51.4375 346.434 49.4437 346.751C47.4381 347.405 42.7075 358.174 41.9445 360.942C41.6948 361.641 41.6273 362.391 41.7483 363.122C42.2715 364.561 45.7595 365.717 47.2201 366.174C46.8168 368.979 46.8168 371.828 47.2201 374.633C45.3017 375.156 41.3123 376.333 41.5303 378.295C41.7483 380.257 46.8495 393.206 48.9641 394.231C50.1225 394.879 51.4035 395.277 52.7249 395.401C54.0464 395.525 55.3791 395.372 56.6377 394.95C57.3466 394.596 58.0311 394.196 58.6869 393.751C59.5589 394.405 60.4745 394.994 61.4119 395.561C60.7361 397.239 59.2319 400.989 59.7115 402.689C59.9513 403.583 60.6707 403.867 61.6735 404.237C64.4421 405.24 79.3533 408.815 81.6205 408.423C82.4707 408.292 82.9285 407.398 83.1901 406.548C83.6745 404.613 83.9594 402.633 84.0403 400.64C85.1599 400.53 86.2731 400.362 87.3757 400.139C88.0491 401.324 88.9105 402.391 89.9263 403.3C91.0381 404.085 91.9755 403.692 93.2399 402.886C93.8503 403.67 94.7659 404.76 95.7469 404.869C98.2103 405.153 108.391 395.561 109.437 393.599C110.309 391.964 107.127 389.043 105.71 387.756C107.242 385.45 108.446 382.94 109.285 380.301C110.857 380.538 112.448 380.625 114.037 380.562C114.757 380.562 115.585 380.301 115.89 379.625C117.22 376.595 116.828 365.106 115.89 362.185C115.759 361.335 114.778 360.768 114.059 360.506ZM114.582 362.512C115.323 365.346 115.563 376.05 114.473 378.818C112.588 379.004 110.686 378.916 108.827 378.557C108.628 378.523 108.424 378.564 108.255 378.673C108.085 378.782 107.963 378.951 107.911 379.145C107.043 382.093 105.695 384.877 103.922 387.386C103.796 387.552 103.739 387.761 103.763 387.968C103.787 388.175 103.891 388.365 104.053 388.498C105.582 389.71 106.882 391.186 107.89 392.858C106.8 394.645 98.2757 402.45 95.9213 403.104C95.5725 403.104 94.6133 401.796 94.3735 401.447C93.5682 400.237 92.8401 398.977 92.1935 397.675C92.0991 397.486 91.9373 397.338 91.7397 397.261C91.5421 397.185 91.323 397.185 91.1253 397.261C84.8033 399.637 82.4053 398.242 82.4053 399.812C82.4081 402.162 82.0252 404.496 81.2717 406.722C76.1486 406.165 71.1035 405.039 66.2297 403.365C66.4651 401.038 67.1148 398.771 68.1481 396.673C68.8021 395.212 66.1861 395.626 61.3029 390.656C61.1458 390.51 60.9394 390.429 60.7252 390.429C60.511 390.429 60.3047 390.51 60.1475 390.656C57.9675 392.443 55.1335 394.187 54.5667 393.904C53.4549 393.359 48.3319 381.74 48.0267 379.385C49.5773 378.305 51.3375 377.562 53.1933 377.205C53.3912 377.149 53.5622 377.023 53.6744 376.851C53.7866 376.679 53.8326 376.471 53.8037 376.268C53.2695 373.181 53.2695 370.025 53.8037 366.937C53.837 366.747 53.7971 366.552 53.6919 366.39C53.5867 366.228 53.4242 366.112 53.2369 366.065C51.5935 365.635 50.0113 364.997 48.5281 364.169C48.0485 363.82 48.0921 363.842 48.1357 363.471C49.5467 358.382 51.8096 353.569 54.8283 349.236C56.0055 348.909 59.1883 351.241 60.2783 352.07C60.3922 352.18 60.5447 352.242 60.7034 352.242C60.8621 352.242 61.0146 352.18 61.1285 352.07C62.1302 351.031 63.2087 350.069 64.3549 349.192C67.6685 346.685 68.5623 347.012 68.2789 346.14C67.2768 343.953 66.7138 341.59 66.6221 339.186C66.96 338.905 67.3434 338.684 67.7557 338.532C69.7909 337.727 71.882 337.071 74.0123 336.57C76.5945 335.85 79.2485 335.419 81.9257 335.284C82.3835 335.48 82.7977 337.464 82.9067 338.074C83.7133 342.434 83.1683 343.328 83.8005 343.393C90.0135 344.004 91.2779 345.726 91.7139 344.963C92.9228 342.849 94.3317 340.856 95.9213 339.012C96.3791 338.554 96.3573 338.336 97.7307 339.121C101.834 341.802 105.508 345.087 108.631 348.865C108.958 349.432 106.124 352.44 104.053 354.206C103.333 354.838 104.358 355.122 106.233 358.697C108.108 362.272 107.672 363.275 108.674 363.057C110.607 362.594 112.597 362.411 114.582 362.512ZM417.144 180.351C412.574 178.485 407.782 177.217 402.887 176.58C399.312 176.013 395.105 175.446 391.551 174.988C394.974 170.149 405.111 157.897 406.811 154.911C407.291 154.104 406.375 152.97 405.699 152.295C401.906 148.24 394.581 146.714 388.957 145.842C385.73 145.319 372.258 143.662 369.969 144.752C367.222 146.06 346.905 176.58 346.294 181.223C346.294 182.008 346.556 182.313 347.319 182.597C350.524 183.774 364.977 185.605 368.203 186.368C363.843 193.998 344.463 219.787 342.566 223.428C342.109 224.344 342.392 224.889 342.937 225.063C344.899 225.842 346.918 226.468 348.976 226.938C349.761 227.178 351.483 226.109 353.99 224.583C365.239 217.825 413.504 185.954 417.21 181.834C417.312 181.737 417.392 181.619 417.445 181.489C417.498 181.358 417.522 181.218 417.516 181.077C417.51 180.937 417.473 180.799 417.409 180.674C417.345 180.548 417.255 180.438 417.144 180.351ZM370.296 206.511C351.766 218.741 345.51 222.316 345.292 222.469C348.278 217.913 366.83 192.494 370.013 186.412C370.068 186.294 370.097 186.166 370.096 186.036C370.096 185.906 370.066 185.778 370.01 185.661C369.953 185.544 369.871 185.441 369.77 185.36C369.669 185.278 369.551 185.221 369.424 185.191C367.244 184.406 351.374 182.706 347.624 181.376C348.104 177.321 367.898 146.67 370.296 145.449C372.694 144.229 395.955 146.997 400.315 150.115C398.026 154.584 385.382 170.236 383.333 173.877C382.918 174.618 382.788 175.337 383.594 175.533C384.401 175.73 404.893 178.128 409.362 179.588C403.912 184.144 376.4 202.413 370.296 206.424V206.511ZM230.449 73.2259C230.449 73.4221 230.58 73.6619 230.907 74.9263C230.993 75.2006 231.181 75.431 231.433 75.5692C231.685 75.7074 231.981 75.7426 232.259 75.6675C232.536 75.5866 232.77 75.3987 232.909 75.1452C233.048 74.8918 233.081 74.5935 233 74.3159C232.782 73.4657 232.586 72.7463 232.455 72.3975C232.328 72.1581 232.116 71.9746 231.861 71.8828C231.606 71.791 231.326 71.7975 231.076 71.9009C230.825 72.0044 230.622 72.1974 230.506 72.4424C230.391 72.6874 230.37 72.9667 230.449 73.2259Z" fill="black"/>
</svg>