<svg width="502" height="502" viewBox="0 0 502 502" fill="none" xmlns="http://www.w3.org/2000/svg">
<path fill-rule="evenodd" clip-rule="evenodd" d="M433.878 199.495C434.279 200.323 435.81 200.574 436.814 200.75C444.997 202.206 480.463 202.959 483.877 200.022C486.864 197.512 485.207 156.499 482.296 154.842C478.531 152.608 437.467 152.182 434.606 154.466C432.522 156.198 431.217 193.697 433.878 199.495ZM435.233 154.993C437.517 153.085 477.627 154.516 481.241 156.273C483.174 161.443 484.429 193.923 482.547 198.541C479.484 200.65 441.96 200.574 435.409 198.541C432.849 192.392 433.802 156.198 435.233 154.993ZM334.055 150.6C333.06 152.303 331.716 153.776 330.111 154.922C328.506 156.069 326.676 156.863 324.743 157.252C324.684 157.237 324.622 157.235 324.562 157.248C324.502 157.26 324.445 157.286 324.397 157.324C324.349 157.361 324.31 157.409 324.283 157.464C324.256 157.519 324.242 157.58 324.242 157.641C324.242 157.702 324.256 157.762 324.283 157.817C324.31 157.872 324.349 157.92 324.397 157.958C324.445 157.996 324.502 158.022 324.562 158.034C324.622 158.046 324.684 158.045 324.743 158.03C329.161 159.184 334.908 155.168 334.908 150.751C334.928 150.638 334.903 150.521 334.837 150.427C334.771 150.333 334.67 150.269 334.557 150.249C334.444 150.229 334.327 150.255 334.233 150.321C334.139 150.386 334.075 150.487 334.055 150.6ZM313.548 128.136V130.646C313.548 130.979 313.681 131.298 313.916 131.533C314.151 131.768 314.47 131.901 314.803 131.901C315.134 131.894 315.45 131.76 315.684 131.526C315.918 131.292 316.052 130.977 316.058 130.646V128.136C316.058 127.803 315.926 127.484 315.691 127.248C315.455 127.013 315.136 126.881 314.803 126.881C314.47 126.881 314.151 127.013 313.916 127.248C313.681 127.484 313.548 127.803 313.548 128.136ZM338.573 130.52C338.573 130.853 338.705 131.172 338.941 131.408C339.176 131.643 339.495 131.775 339.828 131.775C340.161 131.775 340.48 131.643 340.715 131.408C340.951 131.172 341.083 130.853 341.083 130.52V127.408C341.083 127.075 340.951 126.756 340.715 126.52C340.48 126.285 340.161 126.153 339.828 126.153C339.495 126.153 339.176 126.285 338.941 126.52C338.705 126.756 338.573 127.075 338.573 127.408C338.473 128.487 338.573 129.742 338.573 130.52Z" fill="black"/>
<path fill-rule="evenodd" clip-rule="evenodd" d="M484.103 312.094C483.939 311.814 483.705 311.581 483.425 311.416C481.267 310.362 469.52 310.889 467.085 310.989C467.512 245.152 432.824 204.088 382.473 192.317C373.236 190.158 373.211 190.007 372.96 190.158L371.253 185.464C376.073 185.314 380.013 181.599 384.431 182.352C387.769 182.904 389.451 185.866 392.739 187.121C398.311 189.229 408.226 185.991 411.263 180.695C412.819 177.934 411.439 175.073 412.417 173.165C414.174 171.634 419.169 169.174 420.6 167.392C423.537 163.728 423.662 155.52 422.332 151.077C419.93 146.05 416.659 141.487 412.668 137.599C408.327 133.416 404.479 128.75 401.198 123.693C397.157 115.636 397.006 104.492 393.668 96.0831C389.988 88.491 384.292 82.0568 377.202 77.484C370.277 72.5927 361.928 70.1304 353.458 70.4811C345.551 70.9831 342.464 74.3465 338.774 75.5011C335.084 76.6557 334.306 75.5011 328.307 78.1366C325.925 79.5879 323.804 81.4291 322.032 83.5833C321.279 84.3865 321.33 84.4367 320.049 84.4869C318.671 84.3832 317.287 84.3832 315.908 84.4869C313.558 85.0085 311.31 85.916 309.256 87.1726C295.276 95.556 299.041 112.423 293.77 124.823C290.18 133.256 280.191 141.364 279.337 150.174C279.035 154.225 279.906 158.277 281.847 161.845C287.947 172.563 296.706 164.154 301.25 170.705C302.68 172.764 303.76 174.772 306.42 175.173C309.809 175.625 314.427 172.939 317.188 170.956C317.768 171.633 318.425 172.239 319.146 172.764C321.593 174.413 324.22 175.777 326.977 176.83L320.602 185.74C308.654 184.385 290.306 188.25 278.484 191.89C278.057 188.878 274.342 164.004 271.531 162.799C267.641 161.092 226.803 165.836 224.318 168.522C222.486 170.48 225.774 207.753 229.338 213.325C229.865 214.179 231.672 214.204 232.676 214.229C226.803 218.245 221.13 222.311 219.097 223.792C217.516 218.32 209.208 189.38 206.146 184.636C205.267 183.255 204.464 183.281 200.423 184.636C198.119 173.143 195.204 161.782 191.688 150.6C193.006 148.433 194.06 146.116 194.826 143.698C195.761 139.868 195.898 135.886 195.227 132.001C198.289 133.03 216.587 138.05 219.549 136.595C220.345 136.027 220.935 135.217 221.231 134.285C224.469 127.207 230.016 103.036 230.442 95.3803C230.618 94.4001 230.45 93.3892 229.966 92.5189C227.029 89.4567 187.521 78.0864 184.183 79.5924C182.15 80.5211 176.653 98.568 176.076 100.702C171.282 116.791 173.716 113.252 171.056 114.18C167.994 115.26 165.358 121.71 164.279 124.697C163.2 127.684 162.07 131.7 163.35 134.059C162.83 135.019 162.621 136.116 162.752 137.2C162.882 138.283 163.345 139.3 164.078 140.109C163.28 140.998 162.76 142.102 162.581 143.284C162.403 144.466 162.574 145.674 163.074 146.76C163.802 149.044 168.345 150.55 170.604 151.203C168.821 156.009 167.337 160.921 166.161 165.911C164.159 173.655 162.559 181.496 161.367 189.405C160.625 193.248 160.38 197.171 160.639 201.076L156.523 202.934C156.365 203.006 156.231 203.123 156.137 203.27C156.044 203.417 155.995 203.588 155.996 203.762C155.996 203.762 156.774 234.183 166.789 259.459C178.887 290.056 198.791 300.297 229.087 288.851C229.36 291.253 229.951 293.608 230.844 295.854C231.296 296.657 232.827 296.808 233.856 296.908C242.767 297.2 251.687 296.923 260.562 296.08L268.092 343.77C266.059 349.643 242.992 416.56 243.319 422.785C243.319 423.437 243.57 423.939 244.649 424.441C251.301 427.529 314.327 435.761 316.711 428.884C317.314 427.202 318.769 416.485 319.045 414.452L354.512 410.536L388.321 412.77C388.686 416.155 389.29 419.51 390.129 422.81C390.43 423.563 390.781 423.964 391.66 423.889C394.998 423.563 412.794 420.35 417.714 419.421C436.589 415.857 436.162 415.556 435.61 413.699C434.28 409.306 421.93 375.045 417.111 359.056C424.161 359.808 431.271 359.808 438.321 359.056C438.397 359.328 438.54 359.576 438.738 359.778C438.935 359.979 439.18 360.128 439.45 360.21C444.043 361.892 485.082 359.558 488.445 356.194C491.482 353.509 486.387 315.909 484.103 312.094ZM184.233 80.6717C184.509 80.245 184.409 80.0693 186.618 80.3956C195.83 81.7008 225.95 91.4145 228.56 93.6986C229.062 99.4465 221.607 130.997 218.671 134.812C216.537 135.54 202.381 131.926 200.197 131.349C183.581 127.006 184.233 126.329 180.443 125.45C178.485 124.772 178.285 124.747 178.335 124.471C178.341 124.409 178.37 124.352 178.417 124.31C178.463 124.268 178.523 124.245 178.586 124.245C180.845 124.245 186.894 124.07 188.375 122.313C188.702 121.955 188.946 121.53 189.089 121.068C189.233 120.605 189.272 120.117 189.205 119.637C189.138 119.158 188.966 118.699 188.701 118.293C188.436 117.888 188.085 117.546 187.672 117.293C184.446 116 181.075 115.107 177.632 114.632C176.603 114.431 175.348 114.08 174.093 113.929C175.825 106.098 181.548 84.8383 184.233 80.6717ZM162.672 200.248V196.358C162.898 191.589 165.182 179.064 165.86 175.625C166.965 170.053 167.216 168.798 170.428 156.7C170.428 156.373 172.361 150.977 172.361 150.977C172.396 150.883 172.41 150.783 172.403 150.683C172.396 150.584 172.368 150.487 172.32 150.399C172.273 150.311 172.207 150.234 172.127 150.174C172.048 150.113 171.956 150.07 171.859 150.048C171.583 150.048 165.057 148.442 164.329 146.358C163.601 144.275 163.451 141.765 165.283 140.661C165.35 140.612 165.405 140.548 165.443 140.474C165.481 140.399 165.501 140.317 165.501 140.234C165.501 140.151 165.481 140.069 165.443 139.995C165.405 139.92 165.35 139.856 165.283 139.807C164.481 139.149 163.941 138.225 163.761 137.203C163.582 136.18 163.774 135.128 164.304 134.235C164.881 133.055 161.794 133.633 165.459 125.174C166.387 123.091 169.525 116.69 171.658 115.987C173.547 115.803 175.454 116.017 177.256 116.615C180.402 117.11 183.494 117.9 186.492 118.974C186.683 119.077 186.848 119.222 186.973 119.398C187.098 119.575 187.181 119.778 187.215 119.992C187.249 120.205 187.233 120.424 187.169 120.631C187.105 120.838 186.993 121.027 186.844 121.183C185.741 121.808 184.533 122.225 183.28 122.413C175.373 123.969 176.779 122.237 175.75 124.923C172.729 124.746 169.71 125.288 166.939 126.504C165.86 126.73 166.312 127.433 167.09 127.308C170.453 126.205 174.05 126.023 177.507 126.78C179.512 127.147 181.473 127.728 183.355 128.512C185.062 129.206 186.577 130.299 187.772 131.7C187.986 132.231 188.066 132.806 188.004 133.375C187.943 133.944 187.743 134.49 187.421 134.963C186.819 135.892 183.907 135.264 182.803 134.963C181.297 134.511 179.715 134.135 178.234 133.658C176.151 133.005 176.377 132.83 175.724 132.88C173.422 133.206 171.171 133.822 169.023 134.712C168.962 134.719 168.904 134.74 168.852 134.773C168.801 134.806 168.757 134.85 168.725 134.902C168.694 134.954 168.674 135.013 168.669 135.074C168.663 135.135 168.671 135.196 168.693 135.253C168.715 135.311 168.749 135.362 168.794 135.404C168.838 135.446 168.892 135.477 168.95 135.495C169.009 135.513 169.071 135.517 169.131 135.508C169.191 135.498 169.249 135.475 169.299 135.44C171.221 134.898 173.186 134.52 175.172 134.31C176.302 134.31 175.574 134.31 178.41 135.44C179.69 135.917 180.92 136.293 182.276 136.745C183.147 137.044 184.047 137.254 184.961 137.373C186.568 138.879 187.722 142.393 185.564 143.02C184.716 143.166 183.843 143.062 183.054 142.719C177.306 140.836 181.196 139.481 168.722 142.041C168.62 142.054 168.526 142.105 168.461 142.185C168.395 142.264 168.363 142.365 168.37 142.468C168.37 143.121 168.797 142.719 175.699 142.468C176.534 142.384 177.375 142.384 178.209 142.468C180.368 143.572 183.581 145.455 186.066 144.727C189.103 143.748 189.002 140.385 187.045 137.925C186.342 137.071 186.266 137.322 186.869 137.222C187.309 137.174 187.735 137.036 188.12 136.816C188.504 136.595 188.839 136.298 189.103 135.942C189.697 135.122 190.03 134.141 190.056 133.129C190.083 132.117 189.803 131.12 189.253 130.269L193.47 131.524C194.305 135.412 194.236 139.439 193.269 143.296C193 144.238 192.647 145.153 192.215 146.032C190.383 149.898 189.705 150.023 189.931 150.751C193.419 162.092 196.293 173.613 198.54 185.263C189.078 188.577 171.734 196.207 162.672 200.248ZM361.289 374.668C372.032 375.12 395.124 375.948 405.716 375.622C404.988 378.784 404.536 380.792 404.411 381.244C399.365 381.244 366.761 375.597 361.289 374.668ZM409.782 373.388C403.055 374.969 315.732 371.556 308.252 368.368C309.031 362.746 316.36 331.145 317.841 324.694C324.429 326.711 331.282 327.726 338.172 327.706C340.682 329.011 344.823 331.27 347.308 332.45C347.032 334.583 346.354 339.628 347.86 341.134C349.366 342.64 384.029 355.366 414.425 358.93C413.199 363.847 411.648 368.677 409.782 373.388ZM317.037 312.972C315.882 312.621 314.813 312.031 313.9 311.24C313.247 310.538 313.473 308.404 313.9 307.4C314.133 306.912 314.547 306.534 315.055 306.346C315.667 306.079 316.321 305.918 316.987 305.869C317.187 305.864 317.38 305.799 317.541 305.681C317.702 305.564 317.824 305.4 317.889 305.212C317.955 305.024 317.961 304.82 317.907 304.628C317.854 304.436 317.743 304.264 317.59 304.137C316.121 302.9 315.099 301.216 314.678 299.343C314.678 297.962 315.205 296.532 317.414 295.277C319.924 295.478 327.454 301.702 330.943 298.113C334.432 294.524 330.315 286.115 334.206 285.412C338.096 284.71 340.054 296.406 340.732 297.686C342.991 302.079 349.065 305.216 352.529 308.831C350.437 316.312 348.761 323.904 347.509 331.571C342.489 328.886 338.774 326.551 338.398 326.551C333.152 326.376 319.071 324.92 315.406 321.18C314.754 320.677 314.308 319.953 314.151 319.145C313.994 318.336 314.137 317.498 314.553 316.787C314.819 316.316 315.18 315.903 315.611 315.575C316.043 315.247 316.537 315.011 317.063 314.88C317.278 314.827 317.469 314.703 317.604 314.528C317.74 314.353 317.812 314.137 317.809 313.916C317.806 313.695 317.728 313.481 317.588 313.309C317.448 313.138 317.254 313.019 317.037 312.972ZM344.999 229.389C340.336 228.943 335.652 228.759 330.968 228.837C330.366 228.837 329.864 229.138 329.688 229.716C329.261 231.322 322.158 283.53 321.806 286.09C320.3 260.99 318.744 234.56 317.59 215.183C326.324 229.113 327.077 230.494 328.458 229.515C333.112 225.687 337.514 221.562 341.635 217.166C342.388 219.952 343.593 224.495 344.999 229.389ZM367.965 220.579C366.259 218.069 364.577 215.559 363.949 214.63L372.057 194.224L367.965 220.579ZM373.814 191.764C383.307 193.722 392.564 196.692 401.424 200.625C401.047 201.804 396.203 216.613 390.405 234.284C387.744 233.957 372.508 232.1 367.815 231.598L373.814 191.764ZM363.548 217.417L367.514 223.39L366.259 231.422L362.368 230.92C362.945 225.474 363.347 220.303 363.548 217.417ZM432.849 243.897C432.817 247.165 432.498 250.424 431.895 253.636C423.286 251.427 348.187 232.953 340.556 237.296C336.741 239.505 324.191 291.01 322.986 295.653L322.083 295.201C326.048 267.315 331.319 230.745 331.319 230.644C339.878 229.665 422.332 239.003 432.849 243.897ZM389.049 296.381C383.427 296.005 361.113 294.9 356.419 298.013C355.691 298.515 355.39 298.615 352.805 307.902C349.467 304.363 343.869 301.025 341.987 297.084C341.133 295.352 339.753 282.702 333.905 283.681C326.023 285.011 336.088 301.251 324.442 296.231C325.195 293.043 337.544 239.881 340.983 237.923C348.262 233.782 427.653 253.987 437.693 256.824C437.116 262.948 429.736 295.628 428.381 301.602C415.382 299.104 402.25 297.361 389.049 296.381ZM350.395 120.807C351.801 121.76 351.751 124.045 351.5 125.701C349.743 136.921 338.498 143.723 330.692 132.98C328.91 130.47 327.529 122.488 328.734 120.731C329.537 119.702 336.013 119.652 337.318 119.652C339.728 119.677 349.14 120.054 350.295 120.807H350.395ZM320.501 122.614C320.501 127.333 318.92 135.164 314.728 137.423C307.976 140.937 301.124 135.365 300.948 128.111C300.691 125.463 300.818 122.791 301.325 120.179L301.576 120.054C301.174 119.351 318.82 119.125 320.401 120.706C320.454 121.341 320.454 121.979 320.401 122.614H320.501ZM329.236 177.257C333.578 178.512 340.581 177.909 343.945 174.47C344.015 174.396 344.055 174.297 344.055 174.194C344.055 174.092 344.015 173.993 343.945 173.918C343.367 173.215 343.945 174.571 337.419 175.55C330.893 176.529 326.952 175.55 320.351 171.258C317.316 168.47 315.044 164.954 313.749 161.042C311.047 154.422 309.354 147.433 308.729 140.309C311.092 140.696 313.516 140.299 315.632 139.18C317.686 137.979 319.277 136.122 320.15 133.909C319.303 136.561 318.607 139.26 318.067 141.991C317.949 142.341 317.931 142.716 318.016 143.075C318.1 143.435 318.283 143.763 318.543 144.024C320.279 145.085 322.323 145.527 324.342 145.279C324.401 145.294 324.463 145.296 324.523 145.283C324.583 145.271 324.639 145.245 324.687 145.207C324.736 145.17 324.775 145.122 324.802 145.067C324.829 145.012 324.843 144.951 324.843 144.89C324.843 144.829 324.829 144.768 324.802 144.713C324.775 144.658 324.736 144.61 324.687 144.573C324.639 144.535 324.583 144.509 324.523 144.497C324.463 144.484 324.401 144.486 324.342 144.501C322.853 144.335 321.415 143.856 320.125 143.095C319.547 142.694 319.798 142.945 319.974 142.117C320.15 141.288 323.413 129.316 323.589 128.563C324.367 128.563 327.328 128.161 327.328 127.433C327.328 126.705 324.969 126.504 324.091 126.555C324.091 126.228 324.241 125.952 324.316 125.701C324.356 125.601 324.355 125.49 324.313 125.391C324.27 125.292 324.19 125.214 324.091 125.174C323.991 125.134 323.879 125.135 323.78 125.178C323.681 125.22 323.603 125.3 323.563 125.4C322.685 127.107 323.287 126.479 322.108 126.78C322.561 124.46 322.561 122.073 322.108 119.752C320.677 117.544 312.068 118.046 309.256 118.221C310.687 109.813 316.259 105.671 319.673 98.9445C320.629 97.3832 321.904 96.0405 323.413 95.0038C324.166 94.803 325.647 96.6855 326.55 97.1373C327.454 97.5891 328.307 100.074 329.06 100.927C331.428 103.623 334.156 105.98 337.168 107.93C339.678 109.712 343.593 109.989 345.3 112.273C346.021 114.215 346.37 116.275 346.329 118.347C343.091 118.146 329.587 117.945 327.981 120.254C326.525 122.112 327.153 130.596 329.286 133.859C334.658 141.991 342.916 142.493 349.366 135.164C350.06 134.299 350.65 133.355 351.123 132.353C355.942 139.883 359.733 144.376 359.908 153.211C360.109 164.405 356.946 182.954 369.07 185.289L371.153 191.036C361.113 216.287 361.64 214.706 361.64 214.957C361.64 215.208 361.163 222.487 360.285 230.82C355.466 230.318 350.973 229.891 346.982 229.565C346.681 228.536 342.941 215.233 343.016 214.957C343.392 213.702 341.51 211.242 340.054 209.058C334.595 201.154 328.634 193.609 322.208 186.468L329.236 177.257ZM320.401 187.146C320.828 187.799 338.9 207.678 341.108 214.982C337.048 219.483 332.66 223.678 327.981 227.532C326.299 225.323 321.756 218.044 317.439 211.242C316.661 198.115 316.134 188.978 316.008 187.071C317.414 186.97 318.995 187.046 320.3 187.146H320.401ZM230.769 212.246C227.907 207.226 223.942 174.596 224.87 169.576C224.87 169.124 224.87 168.974 226.979 168.396C235.964 166.062 267.49 163.376 270.803 164.506C273.313 169.4 278.81 201.353 277.505 206.272C274.945 208.33 238.148 213.526 230.668 212.246H230.769ZM232.526 294.825C229.639 289.152 227.506 252.782 228.936 251.402C231.07 249.344 271.13 247.587 274.92 249.068C277.43 254.339 280.994 286.718 279.513 291.11C276.099 293.67 238.449 296.18 232.425 294.825H232.526ZM289.829 252.757C291.636 252.28 304.236 249.068 305.742 248.164C306.822 247.537 308.052 249.57 286.943 191.639C289.453 189.33 311.39 186.368 314.854 187.447C314.854 188.828 318.142 247.411 320.727 294.423C319.497 293.821 317.715 292.892 316.586 293.52C311.867 296.03 311.566 300.196 315.055 304.263C314.403 304.422 313.798 304.733 313.288 305.168C312.778 305.604 312.377 306.154 312.118 306.773C311.716 307.715 311.545 308.739 311.619 309.761C311.693 310.783 312.01 311.772 312.545 312.646C313.13 313.206 313.799 313.672 314.527 314.026C313.778 314.529 313.186 315.234 312.821 316.06C312.492 316.771 312.296 317.537 312.243 318.319L289.829 252.757ZM352.303 408.955L319.522 412.594C319.673 411.389 323.363 382.298 324.542 372.434C331.37 373.037 339.602 373.564 348.412 374.041C349.868 392.138 352.428 404.637 352.203 408.955H352.303ZM354.035 408.754C354.386 403.031 349.667 374.342 349.642 374.091L352.152 374.216C360.686 375.798 382.674 379.688 385.058 380.09C385.862 388.172 387.87 406.997 388.347 410.862C350.922 408.453 354.964 408.653 353.909 408.754H354.035ZM487.215 355.04C484.705 357.048 447.834 360.411 440.228 358.755C437.292 353.057 435.208 316.712 436.639 315.332C438.798 313.248 478.857 311.542 482.597 312.997C484.956 318.243 488.596 350.748 487.115 355.04H487.215Z" fill="black"/>
<path fill-rule="evenodd" clip-rule="evenodd" d="M232.576 336.591C232.376 335.688 232.099 334.382 231.371 334.081C228.861 332.575 212.321 332.274 209.384 332.224C208.731 320.251 207.577 306.421 205.694 302.706C204.464 300.196 123.341 299.945 120.555 299.92C120.756 286.416 120.781 265.834 120.555 252.23C124.094 252.23 141.764 252.23 144.199 250.222C147.312 247.712 145.228 214.203 143.823 207.552C143.622 206.648 143.321 205.343 142.618 205.042C138.953 202.858 97.8395 202.331 94.9279 204.665C93.3968 205.946 92.8195 221.633 92.7442 223.616C86.9963 223.616 51.4547 222.888 38.7541 223.189V202.683C42.0422 202.683 61.3441 203.21 63.8541 201.101C66.8912 198.591 65.8872 157.578 63.0007 155.921C60.1142 154.265 42.0924 153.738 38.98 153.662C38.98 150.098 38.7039 141.112 38.6788 140.886C50.3001 140.46 80.9221 141.439 93.5474 141.439C93.5474 145.379 93.3215 159.41 94.9781 162.999C95.3797 163.853 96.9108 164.104 97.9148 164.28C105.897 165.685 141.488 166.513 144.977 163.552C148.466 160.59 146.031 123.065 143.998 119.024C143.864 118.734 143.656 118.483 143.396 118.296C139.606 116.062 98.5423 115.786 95.706 117.92C94.0745 119.3 93.5223 137.272 93.4721 139.431C80.646 139.431 50.4758 138.452 38.5282 138.878C38.5282 134.034 38.2772 129.14 38.2772 124.32C41.8414 124.32 63.3772 123.994 66.0629 121.635C68.7486 119.275 66.0629 81.2488 63.9043 77.1324C63.7701 76.8407 63.5515 76.5959 63.2768 76.4296C59.4616 74.2961 18.398 74.9487 15.5868 77.3081C13.4533 79.1655 13.0768 116.69 15.9382 122.488C16.1353 122.812 16.4361 123.06 16.7916 123.191C19.653 124.396 33.0062 124.421 36.1437 124.421C36.1437 135.64 36.6457 144.752 36.7461 153.712C34.2361 153.712 17.1179 153.336 15.2103 154.867C13.3027 156.398 10.9935 193.898 13.6541 200.047C14.0306 200.875 15.5617 201.177 16.5657 201.352C23.2178 202.313 29.9252 202.841 36.6457 202.934V239.981C34.2612 239.981 17.9211 239.68 16.0888 241.161C14.2565 242.642 11.8469 280.191 14.5075 286.341C14.884 287.194 16.4151 287.47 17.4191 287.671C25.5515 289.227 60.9927 290.583 64.4816 287.671C67.9705 284.76 66.1633 247.135 64.2557 243.144C64.1199 242.847 63.913 242.588 63.6533 242.391C60.9174 240.734 41.8916 240.182 38.5533 240.107V225.599C51.5551 225.273 85.6409 226 92.5183 226.026C92.5183 230.267 92.1167 246.256 93.9239 250.147C94.088 250.484 94.3757 250.744 94.7271 250.875C97.965 252.355 114.807 252.657 118.246 252.682C118.572 266.336 118.547 286.968 118.246 300.372C84.5114 300.196 49.522 300.547 42.4689 301.978C41.7159 302.129 40.486 302.38 40.4358 303.434C40.4358 303.434 39.0804 325.12 38.4529 332.575C36.219 332.575 21.5355 332.575 19.8287 334.081C18.1219 335.587 16.2394 373.187 19.0004 379.261C19.3769 380.089 20.908 380.365 21.912 380.541C29.9189 381.947 65.4856 382.775 68.9745 379.813C72.4634 376.852 70.0036 339.252 67.9956 335.286C68.0963 335.046 68.1285 334.783 68.0887 334.526C68.0488 334.269 67.9384 334.028 67.7697 333.83C64.8832 332.098 44.2761 331.948 40.8625 331.922C41.4649 324.392 42.7701 303.434 42.7701 303.434C51.3543 300.924 194.148 301.225 204.138 303.76C205.669 307.425 206.648 320 207.451 332.023C204.941 332.023 185.865 331.872 183.882 333.529C181.899 335.185 180.393 372.861 183.054 378.709C183.23 379.046 183.525 379.305 183.882 379.437C188.325 381.445 229.414 382.348 233.028 379.261C233.649 378.509 234.01 377.575 234.057 376.6C235.237 368.97 234.208 344.121 232.576 336.591ZM96.2331 118.221C98.467 116.364 138.527 117.694 142.241 119.501C143.174 123.463 143.712 127.507 143.848 131.574C127.759 129.943 106.022 131.198 94.9279 131.574C94.9781 130.068 95.3797 118.823 96.2331 118.146V118.221ZM94.9028 132.955C113.176 133.532 134.862 132.578 143.923 132.679C144.199 137.121 145.178 157.929 143.547 161.77C141.689 163.05 127.056 163.276 124.822 163.301C119.425 163.301 101.63 163.301 96.4088 161.795C94.6016 157.402 94.7773 137.899 94.9028 132.879V132.955ZM16.2394 77.5089C18.4733 75.5511 58.6082 75.9276 62.2728 77.5089C63.0964 80.3066 63.6181 83.1844 63.829 86.0931C47.615 85.615 31.3889 86.4544 15.3107 88.6031C15.3358 87.6995 15.5115 78.1615 16.2394 77.5089ZM17.5697 121.057C15.5366 116.514 15.2605 95.3801 15.3107 89.4565C17.4191 89.2055 63.0007 86.9465 63.9294 86.9465C64.4816 91.9665 66.4394 115.385 64.6824 119.777C61.319 122.212 23.5435 122.689 17.5697 121.057ZM15.8378 155.018C18.1219 153.185 58.1564 155.168 61.8461 157.026C62.6671 160.771 63.121 164.588 63.2015 168.421C63.4525 168.421 27.7101 167.015 14.382 167.442C14.4573 165.961 15.0597 155.62 15.8378 155.018ZM63.1513 285.538C60.3903 287.345 23.3678 287.119 16.0386 284.785C14.2314 280.292 14.7836 259.685 15.0346 254.439C15.2856 254.439 49.5973 257.099 63.9545 255.418C64.2055 260.011 64.8832 281.622 63.1513 285.513V285.538ZM62.5489 243.219C63.3661 246.974 63.8283 250.798 63.9294 254.64C64.1804 254.64 28.5133 253.234 15.0848 253.636C15.1967 249.601 15.6247 245.581 16.3649 241.613C16.5406 241.111 16.3649 241.01 18.6239 240.759C27.6097 239.755 59.3361 241.588 62.5489 243.194V243.219ZM15.3107 198.566C13.5286 194.073 14.0808 173.617 14.3318 168.245C14.633 168.245 48.8443 170.906 63.2517 169.224C63.5027 173.843 64.2055 195.328 62.4485 199.344C59.06 201.553 21.3598 200.499 15.3107 198.566ZM68.3219 348.288C68.6231 352.956 69.5769 373.714 67.9454 377.655C65.2848 379.512 28.1117 379.889 20.8076 377.655C19.0004 373.287 19.1761 353.634 19.3016 348.388C35.4911 349.016 50.1997 348.288 68.3219 348.288ZM66.6402 335.386C67.5687 339.341 68.1151 343.375 68.2717 347.434C52.3081 345.828 29.8185 347.108 19.3267 347.585C19.3267 346.004 19.8036 334.784 20.6319 334.106C22.8909 332.249 62.9254 333.579 66.6402 335.386ZM95.3797 204.992C97.6889 203.059 137.749 204.515 141.388 206.272C142.343 210.392 142.897 214.595 143.045 218.822C132.151 218.245 105.043 216.513 94.0996 217.868C94.2251 216.437 94.6518 205.669 95.3797 204.992ZM95.6307 248.49C93.7984 244.098 93.9992 224.018 94.1498 218.772C97.6889 218.42 123.291 220.027 135.188 219.926C138.225 219.926 140.961 219.801 143.17 219.725C143.446 224.193 144.375 244.6 142.769 248.465C139.48 250.799 101.73 250.423 95.6307 248.49ZM184.309 334.106C186.568 332.249 226.602 333.579 230.342 335.386C231.262 339.35 231.8 343.393 231.949 347.459C216.136 345.853 193.245 347.133 183.029 347.459C183.054 346.129 183.481 334.859 184.309 334.181V334.106ZM231.648 377.655C228.912 379.512 191.739 379.889 184.51 377.655C182.678 373.312 182.853 353.584 183.004 348.363C199.896 349.016 212.572 348.363 231.999 348.363C232.3 352.981 233.254 373.814 231.648 377.73V377.655Z" fill="black"/>
</svg>