<svg width="504" height="504" viewBox="0 0 504 504" fill="none" xmlns="http://www.w3.org/2000/svg">
<path d="M242.349 238.492C243.271 238.774 244.265 238.697 245.133 238.278C246.001 237.859 246.679 237.129 247.032 236.232C247.385 235.335 247.387 234.338 247.037 233.44C246.688 232.542 246.013 231.808 245.146 231.386C244.366 231.079 243.524 230.965 242.691 231.053C241.857 231.14 241.057 231.428 240.358 231.89C239.828 232.377 239.447 233.004 239.256 233.698C239.066 234.392 239.076 235.126 239.284 235.815C239.491 236.505 239.889 237.121 240.431 237.595C240.974 238.068 241.638 238.379 242.349 238.492ZM240.913 234.612C240.913 232.495 245.121 232.243 245.524 234.612C246.305 237.913 240.787 237.711 240.913 234.612ZM239.401 77.2124C235.52 81.7736 236.452 87.6452 242.551 90.518C243.931 90.1622 245.339 89.9261 246.759 89.8124C248.378 89.9187 249.987 90.1461 251.572 90.4928C253.254 89.4823 254.561 87.9528 255.297 86.1347C256.034 84.3166 256.159 82.3084 255.655 80.4128C255.185 78.7642 254.269 77.2775 253.008 76.1167C251.747 74.956 250.189 74.1665 248.508 73.8353C246.826 73.5042 245.085 73.6443 243.478 74.2403C241.871 74.8363 240.46 75.8648 239.401 77.2124ZM237.989 120.96C237.96 120.811 237.88 120.677 237.763 120.581C237.645 120.485 237.498 120.432 237.347 120.432C237.195 120.432 237.048 120.485 236.931 120.581C236.814 120.677 236.734 120.811 236.704 120.96C236.517 122.364 236.408 123.777 236.377 125.193C236.443 125.395 236.571 125.57 236.743 125.695C236.915 125.819 237.122 125.886 237.334 125.886C237.547 125.886 237.753 125.819 237.925 125.695C238.097 125.57 238.226 125.395 238.292 125.193C238.418 124.765 237.989 121.388 237.989 120.96ZM257.872 121.413C257.843 121.265 257.762 121.131 257.645 121.035C257.528 120.938 257.381 120.886 257.23 120.886C257.078 120.886 256.931 120.938 256.814 121.035C256.697 121.131 256.617 121.265 256.587 121.413C256.587 121.766 256.159 125.168 256.285 125.647C256.351 125.848 256.479 126.024 256.651 126.149C256.823 126.273 257.03 126.34 257.242 126.34C257.455 126.34 257.661 126.273 257.833 126.149C258.005 126.024 258.134 125.848 258.2 125.647C258.326 125.168 257.872 121.791 257.872 121.413ZM238.166 112.669C235.142 112.417 233.756 117.104 233.705 117.306C233.662 117.449 233.677 117.604 233.748 117.737C233.819 117.869 233.94 117.968 234.083 118.011C234.227 118.055 234.382 118.039 234.515 117.968C234.647 117.897 234.746 117.777 234.789 117.633C234.94 117.255 236.553 114.508 238.443 114.609C239.401 114.685 239.879 112.795 238.166 112.669ZM258.628 117.986C258.582 117.098 258.265 116.245 257.719 115.543C257.174 114.84 256.428 114.321 255.579 114.055C255.325 113.988 255.055 114.025 254.828 114.157C254.601 114.289 254.436 114.506 254.369 114.76C254.303 115.014 254.339 115.284 254.472 115.511C254.604 115.738 254.821 115.903 255.075 115.97C255.694 116.19 256.249 116.561 256.689 117.05C257.129 117.538 257.44 118.128 257.595 118.767C257.635 118.904 257.728 119.02 257.853 119.088C257.979 119.157 258.126 119.173 258.263 119.133C258.4 119.092 258.515 119 258.584 118.874C258.652 118.749 258.668 118.602 258.628 118.465C258.628 118.465 258.679 118.188 258.628 117.986ZM246.961 131.367C247.062 131.334 247.149 131.27 247.212 131.184C247.274 131.098 247.307 130.995 247.307 130.888C247.307 130.782 247.274 130.679 247.212 130.593C247.149 130.507 247.062 130.443 246.961 130.41C245.801 130.183 244.441 130.107 244.441 128.973C244.574 127.558 244.793 126.153 245.096 124.765C245.11 124.64 245.079 124.513 245.008 124.409C244.937 124.305 244.832 124.229 244.71 124.196C244.589 124.162 244.459 124.173 244.345 124.227C244.231 124.28 244.14 124.373 244.088 124.488C243.461 126.112 243.021 127.803 242.777 129.528C242.828 131.04 244.441 132.174 246.961 131.367ZM250.111 134.668C249.556 135.269 248.875 135.738 248.117 136.044C247.358 136.349 246.542 136.481 245.726 136.432C245.167 136.339 244.633 136.129 244.16 135.816C243.687 135.504 243.285 135.096 242.979 134.618C242.909 134.488 242.79 134.391 242.648 134.348C242.506 134.305 242.353 134.321 242.223 134.391C242.093 134.461 241.996 134.58 241.953 134.722C241.911 134.864 241.926 135.017 241.996 135.147C242.399 136.021 243.031 136.77 243.824 137.314C244.618 137.859 245.543 138.179 246.503 138.241C247.464 138.303 248.423 138.104 249.279 137.666C250.136 137.228 250.859 136.567 251.371 135.752C251.698 134.92 250.791 134.064 250.111 134.668ZM249.833 284.407C249.896 284.45 249.971 284.473 250.048 284.473C250.124 284.473 250.199 284.45 250.262 284.407C252.958 282.718 273.244 266.59 274.907 265.154C274.963 265.103 275.002 265.036 275.019 264.962C275.036 264.889 275.03 264.812 275.003 264.741C274.976 264.671 274.929 264.61 274.867 264.567C274.805 264.523 274.731 264.5 274.655 264.499C274.655 264.499 233.075 263.692 225.742 263.44C225.314 263.44 225.238 263.894 225.465 264.096C226.801 265.406 242.903 279.09 249.833 284.407ZM337.429 478.522C339.319 474.667 335.791 468.19 334.203 465.57C334.172 465.506 334.124 465.452 334.064 465.414C334.003 465.376 333.934 465.356 333.863 465.356C333.792 465.356 333.722 465.376 333.662 465.414C333.602 465.452 333.554 465.506 333.523 465.57C332.237 468.09 329.541 474.692 332.111 478.497C333.85 481.32 336.068 481.521 337.429 478.522ZM183.961 451.432C183.709 451.584 165.262 462.193 164.557 463.276C163.851 464.36 163.876 465.166 164.834 465.242C172.394 465.721 175.292 466.351 175.594 466.704C176.073 468.392 176.602 475.246 177.61 476.607C177.718 476.775 177.871 476.908 178.053 476.991C178.234 477.073 178.435 477.101 178.632 477.072C178.829 477.043 179.014 476.957 179.163 476.826C179.313 476.694 179.421 476.522 179.475 476.33C180.533 472.348 183.86 459.95 184.515 457.909C185.17 455.868 186.279 450.601 183.961 451.432ZM183.608 453.801C183.356 455.464 182.146 460.278 178.568 472.575C178.272 470.01 177.732 467.478 176.955 465.015C173.939 464.113 170.825 463.58 167.681 463.428C172.873 460.202 178.316 457.102 183.532 453.801H183.608ZM196.989 461.84C197.196 461.82 197.391 461.73 197.539 461.585C197.688 461.439 197.782 461.247 197.806 461.04C197.829 460.833 197.781 460.624 197.669 460.449C197.557 460.273 197.388 460.142 197.191 460.076C196.258 459.804 195.288 459.684 194.318 459.723V456.069C194.318 455.895 194.249 455.729 194.126 455.606C194.003 455.483 193.836 455.414 193.663 455.414C193.489 455.414 193.322 455.483 193.199 455.606C193.076 455.729 193.007 455.895 193.007 456.069C193.007 457.38 192.781 458.589 192.68 459.824C191.495 459.824 190.311 460.051 189.076 460.227C187.841 460.404 188.371 461.815 189.278 461.739C190.344 461.676 191.412 461.676 192.478 461.739C192.478 462.848 192.251 464.032 192.201 465.166C192.241 465.429 192.373 465.668 192.575 465.841C192.776 466.013 193.032 466.108 193.297 466.108C193.562 466.108 193.819 466.013 194.02 465.841C194.221 465.668 194.354 465.429 194.393 465.166V461.815C195.257 461.879 196.124 461.887 196.989 461.84ZM257.696 448.056C257.48 447.421 257.079 446.866 256.544 446.461C256.01 446.057 255.366 445.822 254.697 445.788C252.379 445.788 250.211 448.635 248.372 451.281H248.195C246.406 450.021 245.852 450.021 244.189 451.785C241.971 454.179 242.903 454.608 245.776 456.825C243.836 459.522 238.947 466.477 238.216 467.737C237.485 468.997 235.343 472.55 237.712 474.516C238.199 474.864 238.787 475.04 239.384 475.017C239.982 474.995 240.555 474.774 241.013 474.39C244.674 469.951 248.041 465.28 251.093 460.404C253.613 461.916 253.815 462.218 255.781 460.605C256.066 460.419 256.305 460.17 256.48 459.877C256.654 459.585 256.76 459.256 256.789 458.917C256.789 457.682 255.302 456.825 254.269 455.994C255.151 454.708 255.932 453.474 256.637 452.188C257.105 451.619 257.443 450.954 257.626 450.239C257.808 449.525 257.832 448.78 257.696 448.056ZM249.733 452.214C250.567 451.085 251.459 450 252.404 448.963C253.639 447.627 254.546 447.3 255.377 447.879C256.789 448.812 256.007 449.643 253.109 454.91L249.733 452.214ZM239.023 473.23C237.586 472.903 238.519 470.71 239.199 469.4C239.879 468.09 244.995 460.681 246.961 457.682C247.742 458.236 249.052 459.093 249.682 459.471C247.969 462.394 243.105 469.551 242.122 470.66C241.139 471.769 240.232 473.508 239.023 473.23ZM246.205 451.861L246.608 452.012C247.011 452.163 255.226 458.866 255.226 459.018C254.86 459.561 254.378 460.017 253.815 460.353C252.857 459.597 246.91 455.565 244.693 453.826C245.155 453.14 245.66 452.483 246.205 451.861ZM301.796 464.436C301.796 464.436 313.237 476.708 314.245 477.036C315.933 477.489 325.055 466.956 326.265 465.544C327.449 466.552 328.054 466.729 329.39 465.393C330.216 464.529 330.904 463.543 331.431 462.47C331.519 462.304 331.552 462.114 331.525 461.929C331.498 461.743 331.412 461.57 331.28 461.437C318.453 448.434 316.16 446.014 315.631 445.813C313.967 445.107 313.111 447.148 312.128 447.879C310.767 449.19 310.036 449.593 312.279 452.113C302.048 463.201 301.241 463.125 301.796 464.436ZM312.581 449.643C313.253 448.868 314.005 448.167 314.824 447.552C314.824 447.552 322.384 455.112 329.541 462.168C329.083 463.021 328.525 463.816 327.878 464.536C327.601 464.259 312.985 450.072 312.481 449.643H312.581ZM325.181 464.385C314.194 476.028 315.303 475.574 314.144 474.465C313.463 473.886 305.021 465.192 303.736 463.705C304.643 462.697 313.01 453.625 313.564 453.121C313.438 453.222 323.367 462.823 325.081 464.385H325.181Z" fill="black"/>
<path d="M311.875 459.069C309.355 461.741 307.39 462.522 307.667 463.958C308.897 465.782 310.316 467.471 311.9 468.998C311.997 469.077 312.117 469.121 312.242 469.123C312.367 469.125 312.488 469.085 312.587 469.009C312.687 468.933 312.757 468.826 312.788 468.705C312.819 468.585 312.808 468.457 312.757 468.343C312.757 468.343 310.766 464.941 309.91 463.807C310.111 463.555 312.253 460.682 312.833 460.027C312.96 459.9 313.031 459.728 313.031 459.548C313.031 459.369 312.96 459.196 312.833 459.069C312.706 458.942 312.534 458.871 312.354 458.871C312.174 458.871 312.002 458.942 311.875 459.069Z" fill="black"/>
<path d="M349.07 489.989L287.279 489.586C287.279 485.277 285.893 449.493 285.793 446.444C285.793 445.511 284.306 445.511 284.356 446.444C284.356 448.964 285.263 487.217 285.389 489.561H218.131C218.131 485.479 217.475 453.449 217.425 451.257C217.425 451.077 217.353 450.904 217.226 450.776C217.098 450.648 216.925 450.577 216.745 450.577C216.564 450.577 216.391 450.648 216.264 450.776C216.136 450.904 216.064 451.077 216.064 451.257V489.561C210.823 489.561 155.584 489.561 148.024 490.115C147.863 490.146 147.718 490.232 147.613 490.359C147.509 490.485 147.451 490.644 147.451 490.808C147.451 490.973 147.509 491.132 147.613 491.258C147.718 491.384 147.863 491.471 148.024 491.501C154.753 491.804 343.022 492.157 349.196 490.72C349.278 490.689 349.346 490.63 349.389 490.554C349.432 490.478 349.448 490.389 349.433 490.303C349.418 490.217 349.374 490.138 349.308 490.081C349.241 490.024 349.157 489.992 349.07 489.989ZM167.831 35.2806C168.411 36.2886 174.308 36.6162 174.837 36.4146C175.185 36.2926 175.485 36.0631 175.694 35.7594C177.693 37.4267 179.788 38.9749 181.969 40.3962C182.28 40.6476 182.64 40.8313 183.026 40.9354C183.412 41.0396 183.816 41.0619 184.211 41.001C185.27 40.6986 205.153 28.8546 205.455 28.653C206.765 27.8466 206.791 27.0402 206.614 26.511C206.236 25.4778 185.925 15.9522 182.674 12.399C182.58 12.3308 182.473 12.2819 182.36 12.2552C182.247 12.2284 182.13 12.2242 182.015 12.243C181.9 12.2617 181.79 12.303 181.691 12.3643C181.593 12.4257 181.507 12.506 181.439 12.6006C178.919 15.4986 176.677 18.4722 174.383 21.4206C172.074 21.3495 169.767 21.604 167.529 22.1766C167.282 26.5457 167.383 30.9276 167.831 35.2806ZM185.144 27.7206C184.887 28.4244 184.398 29.0198 183.758 29.409C182.498 29.8374 181.238 28.653 180.809 28.1238C179.423 26.511 182.573 23.0838 184.665 25.7802C184.926 26.0531 185.109 26.3917 185.193 26.7599C185.277 27.1282 185.26 27.5124 185.144 27.8718V27.7206ZM183.329 23.0586C182.575 22.9261 181.799 23.0057 181.088 23.2886C180.376 23.5715 179.757 24.0465 179.3 24.6607C178.842 25.2748 178.565 26.004 178.497 26.7668C178.43 27.5296 178.576 28.296 178.919 28.9806C179.434 29.827 180.186 30.503 181.083 30.9243C181.979 31.3456 182.98 31.4935 183.959 31.3494C184.636 31.1026 185.237 30.6852 185.705 30.1378C186.173 29.5903 186.492 28.9314 186.631 28.2246C189.403 28.2246 198.928 28.2246 202.733 28.0482L183.959 38.985C182.901 38.5314 176.702 33.945 175.946 33.3402C175.946 31.9542 175.946 23.6634 175.769 22.3278C177.886 19.8078 180.053 17.1114 182.12 14.415C185.194 16.935 199.382 24.495 203.54 26.6874H186.706C186.597 25.82 186.208 25.0118 185.599 24.3845C184.99 23.7573 184.193 23.345 183.329 23.2098V23.0586ZM169.217 23.5122L173.879 23.3358C173.879 24.117 174.182 33.4158 174.056 34.7262C172.465 34.8311 170.867 34.755 169.293 34.4994C169.444 32.7606 169.318 25.629 169.217 23.6634V23.5122ZM90.3163 155.989C90.5806 156.141 90.8804 156.222 91.1857 156.222C91.4909 156.222 91.7907 156.141 92.0551 155.989C94.0459 155.006 98.0023 151.553 109.544 143.918C109.883 143.734 110.175 143.475 110.397 143.16C110.62 142.845 110.768 142.484 110.829 142.103C110.829 142.103 111.257 131.343 110.653 130.99C108.712 129.781 103.093 125.95 101.48 126.202C101.278 126.202 80.0095 139.457 79.9591 140.087C79.7484 142.837 79.7064 145.598 79.8331 148.353C83.1573 151.124 86.6592 153.675 90.3163 155.989ZM81.3703 141.826C83.3107 143.137 88.7287 146.866 90.2155 147.622V153.368C80.7907 147.068 81.3955 148.126 81.4711 146.261C81.4963 145.228 81.4207 142.809 81.3703 141.826ZM91.2487 145.531C91.0882 145.649 90.8939 145.713 90.6943 145.713C90.4947 145.713 90.3003 145.649 90.1399 145.531C89.7367 145.279 84.0919 141.247 82.5799 140.163C102.387 127.563 101.681 127.412 102.74 127.79C103.244 127.991 105.613 129.503 108.813 131.62C105.033 134.846 91.6267 145.279 91.2487 145.531ZM108.889 142.179C108.359 142.683 94.7263 151.73 91.7023 153.695V147.395C93.4915 146.035 105.31 136.761 108.989 133.611C109.09 141.927 109.241 141.927 109.015 142.179H108.889ZM369.633 157.526C374.339 157.416 378.918 155.974 382.838 153.368C384.793 152.136 386.266 150.269 387.009 148.081C387.752 145.893 387.721 143.515 386.92 141.347C388.583 140.087 393.901 135.577 394.934 134.594C397.076 134.72 399.571 130.915 400.906 128.848C401.461 127.991 402.191 127.109 401.813 126.127C398.412 122.526 394.811 119.119 391.028 115.921C390.775 115.653 390.447 115.469 390.087 115.392C389.727 115.316 389.352 115.351 389.012 115.492C386.502 117.925 384.24 120.601 382.258 123.481C382.171 123.854 382.216 124.245 382.384 124.589C382.384 124.766 378.881 134.921 378.453 136.156C376.567 136.347 374.816 137.221 373.53 138.613C372.244 140.006 371.512 141.821 371.473 143.716C371.17 151.075 376.991 153.443 369.406 156.165C369.301 156.255 369.221 156.371 369.174 156.502C369.126 156.632 369.113 156.773 369.136 156.909C369.159 157.046 369.217 157.175 369.304 157.283C369.391 157.391 369.504 157.474 369.633 157.526ZM384.199 123.934C385.836 121.529 387.766 119.337 389.944 117.407C391.305 118.491 399.167 125.749 400.024 126.933C399.394 128.017 395.866 132.603 394.984 132.704C394.909 132.628 384.526 124.237 384.199 123.934ZM386.013 139.709C384.728 137.826 382.756 136.523 380.519 136.081C381.023 134.392 382.863 128.218 383.493 125.723C385.408 127.361 390.146 131.343 393.044 133.636C391.91 134.77 387.626 138.424 386.013 139.709ZM373.665 155.535C375.631 153.746 375.152 151.402 374.245 149.159C372.632 144.119 373.111 140.869 375.807 139.079C376.503 138.638 377.28 138.34 378.093 138.202C378.905 138.065 379.737 138.09 380.539 138.278C381.342 138.466 382.099 138.812 382.766 139.295C383.433 139.779 383.998 140.391 384.425 141.095C388.407 147.37 380.948 154.099 373.665 155.535ZM212.083 27.7206C213.116 27.7206 219.164 26.9394 224.683 26.3598C224.876 26.3598 225.062 26.2828 225.199 26.1458C225.336 26.0087 225.413 25.8228 225.413 25.629C225.413 25.4352 225.336 25.2493 225.199 25.1123C225.062 24.9752 224.876 24.8982 224.683 24.8982C222.616 25.0998 212.914 25.6794 211.856 25.9062C211.651 25.9744 211.477 26.1113 211.362 26.2937C211.247 26.476 211.199 26.6925 211.226 26.9064C211.252 27.1202 211.352 27.3182 211.509 27.4667C211.665 27.6151 211.868 27.7048 212.083 27.7206ZM231.839 26.1078C232.52 26.1078 245.901 24.999 248.849 25.1502C249.832 25.1502 249.908 23.7138 248.849 23.6382C243.09 23.3574 237.317 23.5428 231.587 24.1926C231.37 24.264 231.184 24.4092 231.062 24.6031C230.94 24.7971 230.889 25.0275 230.919 25.2547C230.949 25.4819 231.057 25.6915 231.225 25.8472C231.394 26.003 231.611 26.0952 231.839 26.1078ZM256.435 24.6714L267.296 24.369C267.476 24.3363 267.639 24.2414 267.756 24.101C267.873 23.9605 267.937 23.7834 267.937 23.6004C267.937 23.4175 267.873 23.2403 267.756 23.0999C267.639 22.9594 267.476 22.8645 267.296 22.8318L256.485 22.5294C256.228 22.5623 255.991 22.6863 255.818 22.8788C255.644 23.0713 255.545 23.3197 255.539 23.5788C255.533 23.8379 255.62 24.0906 255.784 24.291C255.949 24.4915 256.179 24.6265 256.435 24.6714ZM275.939 25.0242C280.576 25.0242 297.309 25.8054 301.391 26.511C302.399 26.7126 302.752 25.1502 301.744 24.9738C293.196 23.6738 284.561 23.0168 275.914 23.0082C275.647 23.0116 275.392 23.121 275.205 23.3124C275.019 23.5038 274.916 23.7615 274.919 24.0288C274.922 24.2962 275.032 24.5512 275.223 24.7379C275.414 24.9246 275.672 25.0276 275.939 25.0242ZM309.531 29.3838C316.202 31.357 322.367 34.753 327.599 39.3378C328.406 40.0686 329.54 38.8842 328.759 38.1534C323.473 33.0898 317.04 29.3807 310.01 27.3426C309.756 27.3191 309.501 27.3884 309.294 27.5377C309.087 27.6869 308.94 27.9061 308.882 28.1548C308.824 28.4035 308.857 28.6649 308.977 28.8908C309.096 29.1166 309.293 29.2918 309.531 29.3838ZM331.883 63.0006C331.675 63.0516 331.492 63.1772 331.369 63.3537C331.246 63.5302 331.192 63.7454 331.217 63.959C331.241 64.1726 331.343 64.3698 331.503 64.5135C331.663 64.6572 331.87 64.7376 332.085 64.7394C335.411 64.7394 339.317 60.8586 339.645 55.491C339.973 50.1234 336.293 45.8142 332.765 42.2106C332.615 42.0569 332.41 41.9692 332.195 41.9669C331.98 41.9645 331.773 42.0476 331.619 42.198C331.465 42.3484 331.377 42.5537 331.375 42.7687C331.373 42.9837 331.456 43.1909 331.606 43.3446C335.588 47.4774 337.528 51.2574 337.553 54.9366C337.62 56.7159 337.102 58.4681 336.078 59.9246C335.054 61.3811 333.58 62.4617 331.883 63.0006ZM304.39 71.1906C306.91 71.1906 323.517 67.3854 326.264 66.7302C326.456 66.6668 326.618 66.5333 326.716 66.3562C326.814 66.1792 326.843 65.9716 326.795 65.7748C326.747 65.5779 326.627 65.4062 326.459 65.2937C326.291 65.1813 326.086 65.1363 325.886 65.1678C322.131 66.0246 308.876 68.343 304.214 69.1494C303.969 69.2034 303.752 69.3445 303.604 69.5465C303.455 69.7485 303.385 69.9976 303.407 70.2474C303.428 70.4972 303.54 70.7306 303.721 70.9041C303.902 71.0777 304.14 71.1795 304.39 71.1906ZM297.561 69.5274C292.193 70.107 286.574 70.611 281.156 71.4174C280.928 71.4856 280.731 71.6303 280.597 71.827C280.464 72.0237 280.402 72.2604 280.423 72.4973C280.444 72.7341 280.545 72.9566 280.711 73.1271C280.877 73.2976 281.096 73.4058 281.332 73.4334C282.869 73.4334 295.167 71.8206 297.637 71.5182C298.922 71.3418 298.846 69.351 297.561 69.5274ZM259.559 75.9786C261.021 75.9786 271.101 74.3406 273.445 74.013C273.641 73.9635 273.813 73.8439 273.927 73.6767C274.042 73.5095 274.092 73.3062 274.067 73.105C274.042 72.9039 273.945 72.7187 273.793 72.5842C273.641 72.4498 273.446 72.3754 273.243 72.375C270.169 72.7278 262.382 73.4082 259.358 73.9374C259.112 73.9925 258.894 74.1358 258.746 74.3402C258.598 74.5447 258.53 74.7962 258.555 75.0472C258.58 75.2983 258.696 75.5317 258.881 75.7032C259.066 75.8748 259.307 75.9728 259.559 75.9786ZM217.501 79.6074C222.893 79.6074 228.412 78.6498 233.755 78.1458C234.863 78.1458 234.863 76.3062 233.755 76.407C228.387 76.8354 222.767 77.0622 217.349 77.8182C216.266 77.9442 216.392 79.6074 217.501 79.6074ZM190.94 81.9258C190.719 81.9782 190.524 82.1097 190.393 82.2955C190.262 82.4813 190.203 82.7086 190.228 82.9347C190.253 83.1607 190.359 83.3699 190.527 83.5229C190.696 83.6759 190.914 83.7622 191.141 83.7654C192.855 83.7654 206.69 81.7242 208.781 81.447C209.002 81.3952 209.195 81.2629 209.322 81.0761C209.45 80.8893 209.504 80.6615 209.472 80.4374C209.44 80.2133 209.326 80.0091 209.152 79.8649C208.977 79.7207 208.755 79.6468 208.529 79.6578C205.228 80.061 193.737 81.3462 190.94 81.9258ZM152.56 89.133C162.34 87.0808 172.225 85.5666 182.17 84.597C183.481 84.597 183.43 82.455 182.17 82.581C172.101 83.1809 162.11 84.7335 152.333 87.2178C152.117 87.2878 151.931 87.4308 151.808 87.6225C151.685 87.8141 151.633 88.0425 151.659 88.2687C151.686 88.4948 151.791 88.7046 151.955 88.8623C152.119 89.0199 152.333 89.1156 152.56 89.133ZM118.843 102.136C125.563 98.11 132.903 95.2234 140.565 93.5934C141.901 93.3162 141.371 91.3002 140.061 91.5774C132.17 93.1441 124.609 96.0596 117.709 100.196C117.492 100.365 117.345 100.606 117.293 100.876C117.242 101.145 117.29 101.424 117.428 101.661C117.566 101.898 117.786 102.077 118.046 102.164C118.306 102.252 118.589 102.242 118.843 102.136ZM97.5487 122.397C100.33 114.906 105.691 108.651 112.669 104.757C113.601 104.253 112.82 102.867 111.862 103.346C104.265 107.122 98.4292 113.699 95.5831 121.691C95.1043 123.103 97.0699 123.657 97.5487 122.397ZM103.042 152.536C102.286 151.679 101.077 152.864 101.782 153.695C103.546 155.737 112.845 162.893 114.735 162.893C114.933 162.892 115.126 162.825 115.283 162.704C115.439 162.583 115.552 162.413 115.604 162.222C115.655 162.03 115.642 161.827 115.567 161.643C115.492 161.46 115.359 161.306 115.189 161.205C110.914 158.646 106.852 155.747 103.042 152.536ZM138.171 168.689C132.483 168.127 126.915 166.691 121.665 164.431C120.506 163.927 119.548 165.64 120.733 166.195C126.189 168.779 132.075 170.334 138.095 170.781C139.481 170.857 139.481 168.841 138.171 168.689ZM143.639 172.142C146.563 172.57 158.482 174.511 161.506 174.662C161.757 174.669 162.001 174.583 162.191 174.42C162.382 174.257 162.505 174.029 162.536 173.781C162.568 173.532 162.505 173.281 162.362 173.076C162.218 172.87 162.003 172.726 161.758 172.671C158.86 172.066 147.041 170.655 144.118 170.151C142.934 170.126 142.455 171.94 143.639 172.142ZM182.473 175.216C177.584 175.65 172.657 175.241 167.907 174.007C167.709 173.984 167.51 174.033 167.346 174.145C167.181 174.257 167.062 174.424 167.01 174.616C166.959 174.808 166.977 175.013 167.063 175.192C167.149 175.371 167.297 175.514 167.479 175.594C172.383 177.023 177.507 177.544 182.599 177.131C183.733 177.005 183.707 175.141 182.473 175.216ZM349.952 162.843C355.204 162.268 360.381 161.144 365.399 159.491C366.458 159.139 366.004 157.475 364.921 157.803C360.026 159.226 355.004 160.171 349.927 160.625C348.465 160.777 348.49 162.969 349.952 162.843ZM326.566 164.758C326.363 164.823 326.189 164.956 326.071 165.134C325.954 165.312 325.901 165.524 325.922 165.737C325.943 165.949 326.035 166.148 326.185 166.3C326.334 166.452 326.531 166.548 326.743 166.573C328.582 166.573 341.157 164.355 343.299 164.053C344.534 163.826 344.055 162.037 342.871 162.213C336.369 163.145 331.531 163.801 326.566 164.758ZM320.039 165.539C313.765 166.648 307.439 167.303 301.442 167.883C300.131 168.034 300.182 170.05 301.442 169.949C307.79 169.438 314.107 168.597 320.367 167.429C320.491 167.408 320.61 167.362 320.716 167.295C320.823 167.227 320.915 167.14 320.987 167.037C321.06 166.934 321.111 166.818 321.139 166.695C321.167 166.572 321.17 166.445 321.148 166.321C321.127 166.197 321.081 166.078 321.014 165.971C320.946 165.865 320.859 165.773 320.756 165.7C320.653 165.628 320.536 165.576 320.414 165.549C320.291 165.521 320.164 165.518 320.039 165.539ZM135.928 255.352C137.037 255.352 137.087 253.79 135.928 253.639C130.816 252.877 125.618 252.877 120.506 253.639C120.264 253.692 120.051 253.835 119.909 254.039C119.768 254.242 119.709 254.492 119.744 254.737C119.779 254.983 119.906 255.206 120.099 255.362C120.291 255.518 120.536 255.596 120.783 255.579C125.815 255.054 130.883 254.978 135.928 255.352ZM359.679 254.017C359.47 254.082 359.29 254.218 359.168 254.401C359.047 254.583 358.992 254.802 359.013 255.02C359.033 255.239 359.128 255.443 359.282 255.6C359.435 255.757 359.638 255.856 359.855 255.881C360.107 255.881 373.388 255.503 376.588 255.881C377.445 256.007 377.722 254.697 376.865 254.571C371.162 253.905 365.413 253.72 359.679 254.017ZM352.799 256.007C353 256.007 353.192 255.928 353.334 255.786C353.476 255.644 353.555 255.452 353.555 255.251C353.555 255.051 353.476 254.859 353.334 254.717C353.192 254.575 353 254.495 352.799 254.495C349.085 254.254 345.355 254.517 341.711 255.277C340.628 255.503 340.93 257.091 341.963 257.091C345.518 256.29 349.157 255.926 352.799 256.007ZM410.155 287.281C409.953 288.289 411.415 288.919 411.843 287.936C414.01 283.047 415.094 275.563 412.372 270.296C411.843 269.288 410.331 270.145 410.835 271.153C413.884 277.201 410.961 283.375 410.155 287.281ZM105.839 362.881C102.294 365.826 99.3285 369.407 97.0951 373.439C97.0454 373.522 97.0126 373.614 96.9984 373.709C96.9842 373.805 96.9889 373.902 97.0123 373.996C97.0596 374.185 97.18 374.347 97.3471 374.447C97.5141 374.548 97.7142 374.577 97.9033 374.53C98.0923 374.483 98.2548 374.363 98.3551 374.195C100.661 370.396 103.611 367.027 107.074 364.241C108.082 363.511 106.847 362.2 105.839 362.881ZM122.673 348.088C119.22 350.671 115.937 353.474 112.845 356.48C112.695 356.634 112.612 356.841 112.614 357.056C112.616 357.271 112.704 357.476 112.858 357.626C113.011 357.777 113.219 357.86 113.434 357.858C113.649 357.855 113.854 357.768 114.004 357.614C115.415 356.127 123.001 350.205 123.757 349.575C124.513 348.945 123.605 347.761 122.673 348.088ZM130.233 343.502C130.762 343.502 129.2 344.006 138.599 337.807C138.796 337.671 138.934 337.467 138.988 337.235C139.041 337.003 139.007 336.759 138.89 336.551C138.773 336.343 138.584 336.186 138.357 336.111C138.131 336.035 137.885 336.047 137.667 336.143C134.89 338.036 132.238 340.107 129.729 342.343C129.644 342.443 129.59 342.565 129.571 342.695C129.552 342.825 129.569 342.958 129.622 343.078C129.674 343.199 129.759 343.302 129.867 343.377C129.975 343.452 130.102 343.495 130.233 343.502Z" fill="black"/>
<path d="M143.11 333.522C143.765 333.799 143.337 333.522 151.275 328.482C150.764 334.81 150.857 341.173 151.552 347.483C147.62 345.346 143.847 342.929 140.263 340.251C139.582 339.721 138.675 340.679 139.381 341.259C143.297 344.614 147.515 347.6 151.981 350.179C155.284 375.266 168.082 398.13 187.739 414.061C178.718 416.178 173.023 417.363 170.805 417.589C169.847 417.589 169.847 419.152 170.805 419.152C172.997 419.152 186.958 416.43 189.907 415.825C226.094 444.629 273.671 441.807 308.347 415.271C315.289 417.106 322.343 418.487 329.464 419.404C329.685 419.387 329.894 419.294 330.054 419.141C330.214 418.988 330.316 418.784 330.343 418.564C330.37 418.344 330.32 418.122 330.201 417.935C330.082 417.748 329.902 417.608 329.691 417.539C326.566 417.01 317.797 415.347 310.237 413.784C329.196 398.769 341.831 377.187 345.643 353.304C346.6 352.699 347.533 352.044 348.44 351.364C349.347 350.683 348.44 349.096 347.457 349.726L346.021 350.608C349.095 323.845 339.67 297.184 323.013 277.15C327.751 271.933 331.052 265.759 329.111 258.905C331.5 258.177 333.932 257.605 336.394 257.191C337.503 257.04 337.1 255.402 336.041 255.553C333.489 255.88 330.963 256.385 328.481 257.065C326.641 252.502 323.48 248.592 319.403 245.835C315.327 243.079 310.521 241.601 305.6 241.593C309.625 237.36 312.579 232.226 314.214 226.619C315.85 221.012 316.119 215.094 314.999 209.362C310.337 187.942 293.68 167.58 272.714 155.862C273.227 153.026 273.072 150.11 272.26 147.345C271.706 144.825 270.043 143.968 268.102 142.708C267.094 142.053 266.137 141.448 265.078 140.843C267.859 136.516 269.313 131.471 269.261 126.328C274.931 125.773 275.133 117.508 268.909 116.248C275.234 86.5622 220.323 81.5222 223.549 117.205C222.43 117.525 221.428 118.161 220.663 119.037C219.899 119.914 219.404 120.993 219.239 122.145C219.09 122.934 219.138 123.748 219.378 124.515C219.618 125.281 220.044 125.977 220.617 126.54C221.19 127.103 221.893 127.516 222.663 127.743C223.434 127.97 224.249 128.003 225.035 127.84C224.804 131.103 225.485 134.366 227.001 137.265C225.74 137.554 224.567 138.14 223.576 138.972C222.586 139.805 221.808 140.86 221.306 142.053C220.189 145.233 219.971 148.66 220.676 151.956C200.642 161.096 184.624 177.221 175.618 197.316C168.487 213.57 171.964 225.465 184.564 237.863C178.921 236.043 172.823 236.23 167.302 238.392C163.84 239.881 160.743 242.107 158.228 244.914C155.713 247.721 153.839 251.042 152.737 254.646C150.313 254.259 147.851 254.157 145.403 254.344C145.236 254.375 145.085 254.464 144.976 254.595C144.867 254.727 144.808 254.892 144.808 255.062C144.808 255.232 144.867 255.397 144.976 255.529C145.085 255.66 145.236 255.749 145.403 255.78C147.725 255.681 150.047 255.954 152.283 256.587C150.544 267.196 159.541 276.167 168.285 282.467C158.9 295.217 153.121 310.259 151.552 326.013C148.595 327.815 145.743 329.783 143.009 331.909C142.866 331.995 142.748 332.118 142.67 332.266C142.592 332.413 142.556 332.58 142.566 332.747C142.577 332.914 142.633 333.074 142.729 333.211C142.825 333.348 142.957 333.456 143.11 333.522ZM254.519 147.672L255.578 147.345C256.157 147.949 257.72 149.31 258.677 150.117C251.193 154.048 241.919 153.72 232.243 149.008C233.326 148.025 235.09 146.236 235.745 145.48C237.478 146.143 239.245 146.715 241.037 147.193C241.773 148.284 242.756 149.185 243.907 149.823C245.057 150.461 246.342 150.818 247.657 150.865C248.971 150.912 250.278 150.647 251.471 150.092C252.664 149.537 253.708 148.708 254.519 147.672ZM234.359 144.774C233.503 145.732 231.587 147.773 230.957 148.302C230.252 147.916 229.546 147.513 228.841 147.093C228.704 147.009 228.539 146.983 228.383 147.021C228.227 147.059 228.093 147.157 228.009 147.294C227.926 147.431 227.9 147.596 227.938 147.752C227.975 147.908 228.074 148.042 228.211 148.126C234.334 152.057 240.307 155.031 247.539 155.031C250.469 155.17 253.393 154.651 256.097 153.513C258.8 152.375 261.215 150.646 263.163 148.453C263.267 148.346 263.324 148.203 263.321 148.054C263.319 147.905 263.257 147.763 263.15 147.66C263.044 147.556 262.9 147.499 262.751 147.501C262.602 147.504 262.46 147.565 262.357 147.672C261.674 148.235 260.959 148.757 260.215 149.235C259.534 148.655 257.972 147.395 257.216 146.715C259.78 145.747 262.108 144.243 264.045 142.305C266.565 143.373 268.825 144.972 270.673 146.992C271.599 149.737 271.747 152.685 271.101 155.509C268.783 162.666 250.034 169.747 230.781 159.693C224.002 156.291 221.155 153.493 222.364 145.026C222.454 143.529 223.029 142.102 224.002 140.961C224.975 139.82 226.293 139.027 227.757 138.701C229.417 141.244 231.687 143.332 234.359 144.774ZM254.872 166.32C258.98 165.816 268.732 163.951 272.185 157.576C292.219 168.664 313.109 193.461 313.588 216.065C313.761 221.033 312.768 225.973 310.69 230.489C308.611 235.005 305.504 238.971 301.618 242.071C298.054 242.727 294.639 244.025 291.538 245.902C293.756 211.655 293.831 213.721 293.579 213.469C293.327 213.217 289.497 213.192 283.247 213.041C284.029 212.058 286.12 209.286 286.599 208.732C286.716 208.608 286.779 208.443 286.774 208.273C286.77 208.103 286.698 207.942 286.574 207.825C286.45 207.708 286.285 207.645 286.115 207.649C285.945 207.654 285.784 207.726 285.667 207.85C284.075 209.616 282.393 211.299 280.627 212.89H280.097C280.74 205.247 280.909 197.571 280.601 189.907C280.601 189.303 279.543 189.303 279.593 189.907C279.845 193.511 278.157 209.664 277.955 212.764C259.181 212.386 227.883 212.058 208.983 211.882C206.667 204.046 205.687 195.876 206.085 187.715C206.085 186.858 204.875 186.858 204.8 187.715C203.985 195.833 204.66 204.031 206.791 211.907H206.261C203.736 209.383 201.339 206.733 199.079 203.969C198.988 203.843 198.852 203.755 198.7 203.723C198.547 203.691 198.388 203.716 198.253 203.795C198.118 203.873 198.018 203.999 197.97 204.147C197.922 204.296 197.932 204.457 197.996 204.599C198.273 205.128 201.297 209.639 203.288 212.008H193.51C192.779 212.008 193.006 212.008 192.956 212.587C192.704 215.435 193.611 231.16 194.317 242.349C192.797 241.401 191.214 240.559 189.579 239.829C176.601 227.077 169.696 217.149 176.752 200.113C185.176 179.596 201.047 163.024 221.18 153.72C224.002 159.743 238.341 168.286 254.872 166.32ZM194.569 213.797C197.441 213.797 285.843 214.578 292.017 215.133C290.833 225.061 288.64 254.394 287.884 264.247H282.365C279.241 266.944 256.057 286.197 254.393 287.608C253.814 288.061 254.872 288.439 257.367 290.682C258.936 291.834 260.252 293.297 261.232 294.979C262.211 296.661 262.835 298.527 263.062 300.46C263.069 300.549 263.109 300.632 263.174 300.693C263.24 300.754 263.326 300.788 263.415 300.787C272.386 301.165 279.971 309.154 273.747 314.093C268.027 318.629 259.181 314.093 254.797 309.91C258.753 304.744 261.071 300.233 256.636 295.571C256.107 295.017 250.412 290.38 243.179 284.483C215.787 262.131 217.979 263.391 217.627 263.391C216.215 263.391 201.247 262.357 198.55 262.206C196.559 246.078 195.098 222.516 194.569 213.797ZM220.928 313.186C217.223 313.463 210.999 313.942 208.328 310.187C206.589 307.667 209.185 304.719 211.982 303.912C218.105 306.13 227.732 309.229 230.857 310.212C227.748 311.779 224.387 312.786 220.928 313.186ZM207.824 312.682C210.344 315.202 214.628 315.504 218.055 315.454C223.647 315.426 229.132 313.922 233.956 311.094C239.475 312.707 244.943 314.093 250.639 315.303C250.707 315.326 250.781 315.326 250.849 315.304C250.917 315.281 250.976 315.236 251.017 315.177C251.974 313.992 252.907 312.657 253.763 311.523C259.559 316.915 269.236 320.469 275.183 315.882C279.568 312.48 278.888 306.659 274.503 303.055C295.369 296.932 311.975 288.137 321.299 278.889C330.002 288.867 336.442 300.609 340.178 313.311C343.915 326.012 344.859 339.372 342.946 352.473C337.623 355.955 332.113 359.144 326.44 362.023C326.303 362.094 326.194 362.209 326.131 362.349C326.068 362.49 326.054 362.647 326.092 362.796C326.13 362.946 326.218 363.078 326.341 363.171C326.463 363.264 326.614 363.312 326.768 363.309C327.095 363.309 337.175 358.445 342.493 355.295C338.141 378.067 325.92 398.584 307.969 413.255C303.911 412.398 300.409 411.592 298.745 411.088C297.838 410.785 297.435 412.146 298.317 412.474C299.854 413.028 302.727 413.809 306.154 414.691C289.9 427.077 270.046 433.819 249.61 433.892C229.174 433.965 209.273 427.365 192.931 415.095C195.951 414.463 198.924 413.621 201.826 412.575C202.935 412.096 202.255 410.458 201.121 410.71L190.637 413.23C171.431 397.814 158.561 375.877 154.475 351.591L154.979 351.817C156.139 352.321 157.046 350.734 155.962 350.104L154.097 349.02C150.765 326.02 156.375 302.617 169.772 283.626C182.321 291.655 195.769 298.185 209.84 303.081C205.858 305.097 204.523 309.431 207.824 312.682ZM267.951 125.673C267.422 130.713 266.666 135.753 263.541 139.633C261.827 141.775 258.173 144.951 255.175 145.026C253.184 145.026 252.478 143.867 251.193 142.506C249.505 140.541 248.673 139.507 247.766 139.659C245.75 139.911 246.103 143.716 242.877 145.606C241.894 146.16 238.467 145.177 235.846 143.917C232.774 142.394 230.242 139.967 228.589 136.962C226.935 133.958 226.241 130.52 226.598 127.109C226.598 126.504 225.716 126.126 225.363 126.303C224.815 126.492 224.228 126.538 223.658 126.437C223.087 126.336 222.552 126.091 222.102 125.725C221.653 125.359 221.305 124.884 221.09 124.346C220.876 123.808 220.803 123.223 220.877 122.649C221.835 117.609 227.48 118.869 228.967 121.792C229.016 121.866 229.09 121.919 229.176 121.944C229.261 121.969 229.353 121.962 229.434 121.926C229.515 121.89 229.581 121.827 229.62 121.747C229.659 121.667 229.669 121.576 229.647 121.489C228.632 118.84 228.506 115.932 229.287 113.205C230.069 110.478 231.717 108.078 233.981 106.369C237.581 108.869 241.859 110.208 246.241 110.208C250.624 110.208 254.901 108.869 258.501 106.369C263.365 110.149 263.541 118.012 263.188 120.759C263.184 120.825 263.196 120.892 263.222 120.953C263.248 121.014 263.289 121.068 263.339 121.111C263.768 121.439 264.473 120.582 264.826 120.179C265.279 119.475 265.93 118.921 266.696 118.585C267.463 118.249 268.311 118.146 269.135 118.289C269.959 118.409 270.71 118.827 271.246 119.464C271.782 120.101 272.066 120.912 272.044 121.744C272.023 122.576 271.697 123.371 271.128 123.979C270.56 124.587 269.788 124.965 268.959 125.043C268.783 124.891 268.001 125.143 267.951 125.673Z" fill="black"/>
<path d="M231.84 402.067C231.84 402.394 232.092 402.672 231.84 402.067C224.722 404.947 217.359 407.182 209.841 408.745C208.934 408.921 209.236 410.257 210.143 410.156C217.927 409.28 225.513 407.126 232.596 403.78C233.63 403.201 232.949 401.664 231.84 402.067ZM267.12 391.357C267.725 391.357 288.137 383.343 290.128 382.058C291.111 381.403 290.43 379.714 289.271 380.143C287.23 380.899 271.001 388.56 266.944 389.996C266.796 390.052 266.671 390.157 266.59 390.293C266.509 390.429 266.475 390.589 266.496 390.746C266.516 390.903 266.589 391.049 266.702 391.16C266.815 391.27 266.963 391.34 267.12 391.357ZM298.318 378.001C298.973 378.001 315.958 370.264 317.546 369.055C318.327 368.45 317.798 367.014 316.764 367.417C315.227 367.996 301.292 374.977 298.091 376.312C297.912 376.387 297.763 376.519 297.666 376.687C297.57 376.856 297.531 377.051 297.557 377.244C297.583 377.436 297.672 377.614 297.809 377.751C297.947 377.888 298.125 377.976 298.318 378.001ZM347.76 327.349C349.172 328.256 354.413 332.389 355.824 333.296C356.04 333.421 356.294 333.464 356.539 333.416C356.783 333.369 357.003 333.234 357.156 333.038C357.31 332.841 357.387 332.596 357.374 332.347C357.361 332.098 357.258 331.862 357.084 331.683C355.749 330.549 349.978 326.946 348.542 326.089C348.374 325.985 348.173 325.952 347.982 325.997C347.79 326.042 347.625 326.161 347.521 326.328C347.417 326.495 347.384 326.697 347.429 326.888C347.474 327.079 347.593 327.245 347.76 327.349ZM379.386 348.265C378.605 347.635 377.547 348.769 378.353 349.424C380.142 350.911 387.249 357.211 389.214 358.546C389.423 358.649 389.661 358.677 389.887 358.625C390.114 358.573 390.316 358.444 390.458 358.26C390.6 358.076 390.675 357.848 390.669 357.616C390.662 357.383 390.576 357.16 390.424 356.984C388.811 355.321 381.478 349.928 379.386 348.265ZM395.64 362.73C395.49 362.583 395.287 362.501 395.077 362.504C394.867 362.506 394.666 362.592 394.519 362.742C394.372 362.893 394.291 363.095 394.293 363.305C394.295 363.516 394.381 363.717 394.531 363.864C397.696 367.065 400.54 370.568 403.024 374.322C403.83 375.456 405.67 374.322 404.889 373.162C402.257 369.309 399.15 365.804 395.64 362.73ZM360.36 420.841C356.984 420.841 342.443 419.883 338.865 419.152C338.701 419.112 338.528 419.139 338.384 419.226C338.24 419.314 338.136 419.455 338.096 419.619C338.056 419.782 338.083 419.955 338.17 420.099C338.257 420.244 338.399 420.347 338.562 420.387C345.76 421.74 353.044 422.582 360.36 422.907C360.634 422.907 360.897 422.798 361.091 422.605C361.285 422.411 361.394 422.148 361.394 421.874C361.394 421.6 361.285 421.337 361.091 421.143C360.897 420.95 360.634 420.841 360.36 420.841ZM270.296 402.722C269.414 402.294 268.683 403.604 269.59 404.058C275.938 407.264 282.735 409.49 289.75 410.66C291.111 410.912 291.64 408.82 290.254 408.594C283.36 407.576 276.642 405.6 270.296 402.722ZM240.761 400.983C243.911 400.303 250.337 398.463 251.345 398.312C252.303 398.69 258.452 401.008 261.728 401.79C261.973 401.844 262.23 401.802 262.446 401.673C262.661 401.544 262.819 401.337 262.887 401.095C262.955 400.853 262.927 400.594 262.81 400.372C262.693 400.149 262.495 399.98 262.257 399.9C259.737 398.992 257.217 398.236 254.42 397.38C256.451 396.704 258.424 395.861 260.316 394.86C260.454 394.712 260.545 394.528 260.58 394.33C260.614 394.131 260.589 393.927 260.509 393.742C260.429 393.557 260.296 393.4 260.128 393.29C259.959 393.179 259.762 393.121 259.56 393.121C256.738 394.078 253.966 395.288 251.219 396.346C248.094 395.238 245.222 394.104 242.475 392.894C241.568 392.491 240.837 393.826 241.769 394.255C244.062 395.338 246.356 396.372 248.624 397.304C245.945 398.234 243.219 399.025 240.459 399.673C240.343 399.757 240.254 399.874 240.204 400.008C240.154 400.142 240.144 400.288 240.177 400.428C240.209 400.568 240.282 400.695 240.385 400.793C240.489 400.892 240.62 400.958 240.761 400.983ZM127.966 330.726C125.446 328.76 115.996 320.646 113.904 318.428C113.224 317.697 112.09 318.781 112.77 319.512C116.883 324.35 121.581 328.658 126.756 332.338C127.764 333.019 128.924 331.482 127.966 330.726ZM98.0283 449.972C96.4557 436.06 93.6216 422.32 89.5611 408.921C91.86 412.398 95.4046 414.86 99.4647 415.801C99.6385 415.874 99.8343 415.876 100.009 415.805C100.184 415.734 100.324 415.597 100.397 415.423C100.471 415.249 100.472 415.053 100.401 414.878C100.33 414.703 100.193 414.564 100.019 414.49C96.7935 412.55 91.8291 410.584 90.2919 405.872C91.1329 404.337 91.34 402.534 90.8692 400.848C90.3983 399.162 89.2867 397.727 87.7719 396.85C88.6786 391.498 90.5942 386.367 93.4167 381.73C93.7443 381.1 92.8875 380.445 92.4087 381C88.8126 385.484 86.6131 390.925 86.0835 396.649C85.4274 396.696 84.782 396.84 84.1683 397.077C77.4917 379.82 68.0061 363.786 56.0955 349.626C56.554 348.844 56.7322 347.929 56.6005 347.033C56.4689 346.136 56.0353 345.311 55.3714 344.694C54.7076 344.077 53.8531 343.705 52.9493 343.64C52.0454 343.574 51.1463 343.819 50.4003 344.334C49.5491 344.913 48.9304 345.774 48.6536 346.766C48.3769 347.758 48.46 348.815 48.8883 349.752C49.1737 350.251 49.5573 350.687 50.016 351.034C50.4746 351.381 50.9988 351.632 51.5569 351.771C52.115 351.91 52.6955 351.934 53.2633 351.843C53.8311 351.751 54.3745 351.546 54.8607 351.238C66.5385 365.24 75.8971 381.022 82.5807 397.984C78.4731 401.613 82.0515 408.417 87.2175 407.863C91.4769 421.73 94.4463 435.961 96.0879 450.375C95.3319 450.776 94.746 451.436 94.4377 452.234C94.1294 453.033 94.1196 453.915 94.4099 454.72C94.7003 455.525 95.2713 456.198 96.0182 456.616C96.765 457.033 97.6374 457.167 98.4752 456.993C99.313 456.819 100.06 456.349 100.578 455.668C101.097 454.988 101.353 454.143 101.298 453.289C101.244 452.435 100.883 451.629 100.283 451.02C99.6818 450.41 98.8814 450.038 98.0283 449.972ZM54.7347 347.761C54.8232 348.093 54.8342 348.441 54.7667 348.778C54.6993 349.115 54.5553 349.432 54.3459 349.705C54.1364 349.977 53.8671 350.198 53.5588 350.35C53.2504 350.502 52.9113 350.581 52.5675 350.581C52.2238 350.581 51.8846 350.502 51.5763 350.35C51.2679 350.198 50.9986 349.977 50.7891 349.705C50.5797 349.432 50.4357 349.115 50.3683 348.778C50.3008 348.441 50.3118 348.093 50.4003 347.761C50.3118 347.429 50.3008 347.081 50.3683 346.743C50.4357 346.406 50.5797 346.089 50.7891 345.817C50.9986 345.544 51.2679 345.323 51.5763 345.172C51.8846 345.02 52.2238 344.941 52.5675 344.941C52.9113 344.941 53.2504 345.02 53.5588 345.172C53.8671 345.323 54.1364 345.544 54.3459 345.817C54.5553 346.089 54.6993 346.406 54.7667 346.743C54.8342 347.081 54.8232 347.429 54.7347 347.761ZM100.095 453.374C100.095 455.894 95.9367 455.894 95.9367 453.374C95.9367 450.854 99.9939 451.081 99.9939 453.601L100.095 453.374ZM89.0571 403.982C87.6963 408.19 82.6311 405.242 82.7067 401.815C82.7067 398.791 86.9151 396.775 88.5027 399.673C88.9095 400.325 89.1618 401.061 89.2404 401.825C89.319 402.59 89.2219 403.362 88.9563 404.083L89.0571 403.982ZM455.566 302.628C455.553 301.9 455.339 301.189 454.946 300.576C454.553 299.963 453.998 299.471 453.342 299.155C452.687 298.839 451.956 298.711 451.232 298.786C450.507 298.86 449.818 299.135 449.241 299.578C435.06 291.276 422.864 279.974 413.507 266.466C414.191 265.68 414.661 264.733 414.873 263.713C415.085 262.694 415.031 261.637 414.717 260.644C414.476 259.874 414.039 259.18 413.45 258.629C412.86 258.078 412.138 257.689 411.353 257.501C410.568 257.313 409.748 257.332 408.973 257.556C408.197 257.78 407.493 258.202 406.93 258.78C394.802 242.374 386.135 223.675 381.453 203.818C381.926 203.283 382.215 202.61 382.278 201.898C382.342 201.186 382.176 200.473 381.806 199.862C381.527 199.231 381.051 198.708 380.449 198.372C379.847 198.035 379.151 197.904 378.468 197.998C377.785 198.092 377.151 198.406 376.662 198.892C376.173 199.379 375.855 200.011 375.758 200.694C375.598 201.267 375.596 201.873 375.752 202.448C375.909 203.023 376.218 203.544 376.646 203.957C377.075 204.371 377.608 204.66 378.188 204.796C378.768 204.931 379.373 204.907 379.941 204.726C384.584 224.812 393.392 243.699 405.796 260.166C405.531 260.594 405.335 261.062 405.216 261.552C402.016 260.014 386.115 254.974 384.452 255.428C383.746 255.63 384.074 256.486 384.452 256.587C391.41 258.51 398.243 260.858 404.914 263.618C405.055 264.39 405.37 265.119 405.834 265.751C406.299 266.382 406.902 266.9 407.596 267.264C408.291 267.629 409.059 267.83 409.843 267.853C410.627 267.876 411.406 267.721 412.121 267.398C423.612 283.728 435.381 294.74 448.082 301.065C447.81 301.677 447.694 302.346 447.746 303.014C447.797 303.681 448.014 304.325 448.377 304.887C448.739 305.45 449.236 305.913 449.822 306.236C450.409 306.559 451.066 306.73 451.736 306.735C452.269 306.761 452.803 306.67 453.298 306.469C453.793 306.267 454.238 305.96 454.603 305.569C454.968 305.178 455.243 304.713 455.409 304.205C455.575 303.697 455.629 303.158 455.566 302.628ZM449.971 303.888C449.755 303.568 449.626 303.198 449.596 302.813C449.567 302.428 449.639 302.042 449.804 301.693C449.969 301.345 450.223 301.045 450.54 300.824C450.856 300.604 451.225 300.47 451.61 300.435C452.214 300.455 452.787 300.707 453.209 301.139C453.632 301.571 453.871 302.149 453.878 302.754C453.878 303.213 453.73 303.659 453.454 304.026C453.179 304.394 452.792 304.661 452.351 304.789C451.91 304.917 451.44 304.898 451.011 304.736C450.581 304.573 450.217 304.275 449.971 303.888ZM411.365 265.936C410.586 266.188 409.746 266.17 408.978 265.887C408.211 265.604 407.56 265.071 407.132 264.374C406.896 263.814 406.799 263.205 406.848 262.599C406.898 261.993 407.093 261.408 407.417 260.894C407.741 260.379 408.184 259.95 408.709 259.644C409.234 259.337 409.825 259.162 410.433 259.132C413.658 259.132 414.213 264.752 411.365 265.936ZM380.646 201.601C380.675 201.838 380.654 202.079 380.583 202.307C380.512 202.536 380.393 202.746 380.235 202.925C380.077 203.104 379.882 203.248 379.664 203.346C379.446 203.444 379.21 203.495 378.97 203.495C378.731 203.495 378.495 203.444 378.277 203.346C378.059 203.248 377.864 203.104 377.706 202.925C377.547 202.746 377.429 202.536 377.358 202.307C377.287 202.079 377.266 201.838 377.295 201.601C377.266 201.363 377.287 201.123 377.358 200.894C377.429 200.666 377.547 200.455 377.706 200.276C377.864 200.097 378.059 199.954 378.277 199.855C378.495 199.757 378.731 199.706 378.97 199.706C379.21 199.706 379.446 199.757 379.664 199.855C379.882 199.954 380.077 200.097 380.235 200.276C380.393 200.455 380.512 200.666 380.583 200.894C380.654 201.123 380.675 201.363 380.646 201.601ZM420.84 406.653C420.91 406.477 420.915 406.282 420.855 406.102C420.795 405.923 420.674 405.77 420.513 405.67C419.253 404.889 417.186 406.2 416.834 407.686C417.69 407.762 420.311 407.661 420.84 406.653Z" fill="black"/>
<path d="M414.843 389.995C413.205 386.529 411.363 383.163 409.324 379.915C409.212 379.75 409.041 379.634 408.845 379.591C408.65 379.549 408.446 379.582 408.274 379.686C408.103 379.789 407.978 379.954 407.925 380.147C407.872 380.34 407.895 380.545 407.989 380.722C409.688 383.708 411.162 386.816 412.399 390.021C409.587 390.327 406.914 391.401 404.673 393.126C402.431 394.851 400.709 397.16 399.693 399.8C398.678 402.44 398.409 405.309 398.917 408.091C399.425 410.873 400.689 413.462 402.571 415.573C393.851 418.967 384.629 420.891 375.279 421.269C375.112 421.3 374.961 421.389 374.852 421.52C374.743 421.651 374.684 421.816 374.684 421.987C374.684 422.157 374.743 422.322 374.852 422.453C374.961 422.585 375.112 422.674 375.279 422.705C385.248 422.917 395.154 421.081 404.385 417.312C406.274 418.81 408.488 419.843 410.85 420.325C413.212 420.808 415.654 420.728 417.979 420.091C420.303 419.454 422.445 418.278 424.231 416.659C426.017 415.04 427.396 413.023 428.258 410.772C429.119 408.521 429.437 406.098 429.188 403.701C428.938 401.303 428.127 398.998 426.821 396.972C425.515 394.947 423.75 393.257 421.669 392.04C419.588 390.824 417.249 390.115 414.843 389.97V389.995ZM411.643 413.28C411.391 411.592 411.29 409.878 410.988 408.24H407.283C407.056 409.727 407.056 411.214 406.83 412.701C406.816 412.807 406.782 412.909 406.73 413.002C406.677 413.094 406.606 413.176 406.522 413.241C406.438 413.307 406.342 413.355 406.239 413.383C406.136 413.412 406.028 413.42 405.922 413.406C405.817 413.393 405.714 413.359 405.622 413.306C405.529 413.254 405.447 413.183 405.382 413.099C405.316 413.015 405.268 412.918 405.24 412.815C405.211 412.712 405.204 412.605 405.217 412.499C405.217 410.836 406.603 400.252 406.88 398.765C407.233 396.673 408.342 396.497 408.972 396.573C410.282 396.724 410.635 398.085 410.912 399.093C411.643 401.789 413.432 410.004 413.886 412.726C414.087 414.087 411.87 414.641 411.643 413.28ZM422.958 411.34C418.9 414.162 413.785 410.785 415.398 406.879C416.431 404.359 420.438 402.646 422.126 405.267C422.329 405.69 422.429 406.156 422.417 406.626C422.406 407.095 422.283 407.555 422.059 407.968C421.836 408.381 421.517 408.736 421.13 409.002C420.743 409.268 420.299 409.439 419.833 409.5C418.996 409.61 418.149 409.61 417.313 409.5C417.632 409.853 418.006 410.151 418.422 410.382C420.942 411.441 422.63 409.551 423.134 410.609C423.173 410.715 423.177 410.832 423.146 410.941C423.114 411.049 423.048 411.145 422.958 411.214V411.34Z" fill="black"/>
<path d="M408.592 399.244C408.214 401.159 407.786 404.586 407.584 406.174H410.583C410.306 404.889 409.575 401.285 409.071 399.32C408.996 398.992 408.643 398.916 408.592 399.244ZM190.26 361.52C188.748 360.612 185.421 360.512 185.22 362.502C185.068 363.611 185.22 368.046 185.22 369.231C186.369 369.197 187.5 368.927 188.54 368.437C189.581 367.947 190.509 367.248 191.268 366.383C191.551 366.008 191.751 365.576 191.855 365.118C191.958 364.659 191.962 364.183 191.866 363.723C191.771 363.262 191.578 362.827 191.301 362.447C191.024 362.068 190.669 361.751 190.26 361.52Z" fill="black"/>
<path d="M233.326 388.912C226.36 386.361 219.545 383.416 212.914 380.092C214.238 377.387 215.015 374.447 215.203 371.441C215.391 368.435 214.985 365.422 214.008 362.573C213.031 359.724 211.502 357.095 209.509 354.837C207.516 352.579 205.098 350.735 202.393 349.411C199.687 348.088 196.748 347.31 193.742 347.122C190.736 346.934 187.722 347.341 184.873 348.318C182.024 349.295 179.396 350.823 177.137 352.816C174.879 354.809 173.036 357.227 171.712 359.932C168.663 358.309 165.702 356.526 162.841 354.59C162.06 354.086 161.329 355.27 162.06 355.8C165.462 358.32 168.31 360.084 170.956 361.696C161.909 388.106 197.063 405.015 212.032 381.63C218.601 385.36 225.634 388.207 232.948 390.097C233.096 390.118 233.246 390.087 233.373 390.008C233.5 389.929 233.594 389.807 233.64 389.665C233.685 389.523 233.678 389.369 233.621 389.231C233.563 389.093 233.459 388.98 233.326 388.912ZM193.006 368.752C190.965 370.708 188.272 371.84 185.446 371.928V378.984C185.446 379.271 185.332 379.547 185.128 379.75C184.925 379.953 184.65 380.067 184.362 380.067C184.075 380.067 183.799 379.953 183.596 379.75C183.393 379.547 183.279 379.271 183.279 378.984C183.279 377.774 182.85 367.77 182.825 366.963C182.825 364.443 181.867 360.134 185.345 358.748C191.746 356.052 197.794 363.133 192.88 368.727L193.006 368.752ZM204.598 376.312C204.245 380.344 198.827 382.083 195.601 379.689C195.372 379.508 195.217 379.248 195.168 378.959C195.118 378.67 195.178 378.373 195.334 378.126C195.491 377.879 195.734 377.698 196.016 377.619C196.298 377.54 196.599 377.568 196.861 377.698C197.591 378.187 198.468 378.407 199.341 378.319C200.215 378.232 201.031 377.843 201.649 377.22C202.405 376.438 202.103 374.876 200.868 375.052C199.911 375.326 198.913 375.428 197.92 375.355C197.417 375.238 196.95 374.998 196.562 374.656C196.175 374.315 195.878 373.883 195.698 373.398C195.518 372.914 195.461 372.393 195.532 371.881C195.603 371.369 195.8 370.883 196.105 370.466C196.531 369.865 197.092 369.372 197.743 369.029C198.394 368.685 199.117 368.499 199.854 368.487C200.59 368.475 201.319 368.636 201.981 368.958C202.643 369.28 203.22 369.753 203.665 370.34C204.421 371.323 202.859 372.507 202.103 371.55C201.751 371.14 201.285 370.845 200.764 370.701C200.244 370.558 199.692 370.572 199.18 370.743C196.987 371.55 198.373 373.717 199.835 373.263C200.163 373.162 204.799 372.432 204.472 376.212L204.598 376.312ZM408.642 292.497C407.826 294.361 406.892 296.17 405.845 297.915C403.871 295.171 401.314 292.898 398.358 291.258C395.403 289.617 392.121 288.651 388.748 288.427C385.375 288.204 381.994 288.728 378.848 289.964C375.701 291.2 372.867 293.116 370.548 295.575C368.228 298.035 366.482 300.976 365.432 304.19C364.383 307.403 364.057 310.809 364.477 314.163C364.898 317.517 366.055 320.736 367.865 323.591C369.676 326.446 372.095 328.865 374.95 330.675C372.43 332.918 367.213 336.9 366.155 337.731L364.29 336.874C363.459 336.496 362.778 337.731 363.635 338.134C364.024 338.316 364.402 338.517 364.769 338.739C361.597 341.04 358.308 343.177 354.916 345.14C354.739 345.24 354.609 345.407 354.554 345.603C354.5 345.799 354.526 346.009 354.626 346.186C354.726 346.363 354.893 346.493 355.089 346.547C355.285 346.602 355.495 346.576 355.672 346.476C359.83 344.157 363.408 341.965 366.558 339.823C368.858 341.422 371.002 343.236 372.959 345.241C373.157 345.396 373.404 345.473 373.654 345.459C373.905 345.445 374.142 345.341 374.321 345.165C374.5 344.989 374.609 344.754 374.627 344.503C374.646 344.253 374.572 344.004 374.421 343.804C372.456 341.952 370.34 340.266 368.095 338.764C369.633 337.656 374.547 334.002 377.016 331.834C381.423 334.003 386.409 334.701 391.242 333.826C396.075 332.952 400.5 330.55 403.867 326.974C407.234 323.399 409.365 318.838 409.948 313.961C410.531 309.084 409.534 304.149 407.105 299.881C408.402 297.716 409.482 295.428 410.331 293.052C410.759 291.968 409.071 291.439 408.642 292.497ZM387.449 320.57C386.943 318.867 386.548 317.133 386.265 315.379L380.947 315.908C380.645 317.496 380.343 319.083 380.091 320.671C379.839 322.258 377.772 321.603 377.974 320.242C378.427 316.891 381.124 302.602 381.653 301.242C383.14 298.318 385.383 300.334 386.693 303.636C387.964 309.1 388.957 314.626 389.667 320.192C389.717 320.486 389.648 320.788 389.476 321.031C389.303 321.275 389.041 321.44 388.747 321.49C388.453 321.54 388.151 321.471 387.907 321.299C387.664 321.126 387.499 320.864 387.449 320.57ZM391.758 304.215C391.886 303.918 392.075 303.651 392.313 303.432C392.551 303.212 392.833 303.046 393.14 302.944C393.448 302.842 393.773 302.805 394.095 302.838C394.417 302.87 394.728 302.97 395.009 303.132C395.259 303.299 395.47 303.519 395.628 303.776C395.785 304.033 395.885 304.321 395.921 304.62C395.957 304.919 395.928 305.222 395.836 305.509C395.744 305.796 395.59 306.059 395.387 306.282C395.071 306.67 394.627 306.934 394.135 307.026C393.642 307.119 393.133 307.033 392.697 306.785C392.262 306.537 391.929 306.143 391.757 305.672C391.585 305.202 391.585 304.685 391.758 304.215ZM396.143 320.318C396.139 320.607 396.031 320.885 395.84 321.102C395.648 321.318 395.386 321.459 395.099 321.499C394.813 321.538 394.522 321.474 394.279 321.318C394.036 321.161 393.857 320.923 393.774 320.646C393.573 320.091 393.195 312.33 393.195 311.422C393.195 311.162 393.298 310.912 393.482 310.727C393.667 310.543 393.917 310.44 394.177 310.44C394.438 310.44 394.688 310.543 394.872 310.727C395.057 310.912 395.16 311.162 395.16 311.422C395.236 312.859 396.168 319.89 396.143 320.318Z" fill="black"/>
<path d="M381.453 313.413L385.838 312.934C385.399 309.861 384.656 306.839 383.62 303.912C383.041 306.432 381.982 310.918 381.453 313.413ZM138.601 421.949C136.484 423.209 138.223 426.636 141.121 425.351C141.121 423.688 140.969 422.453 140.919 421.873C140.555 421.699 140.154 421.615 139.751 421.628C139.347 421.642 138.953 421.752 138.601 421.949Z" fill="black"/>
<path d="M162.944 418.749C158.772 419.402 154.564 419.789 150.344 419.908C149.21 400.076 120.834 400.051 119.675 419.908C115.297 419.485 110.989 418.52 106.848 417.035C106.771 416.996 106.686 416.972 106.599 416.965C106.512 416.958 106.424 416.968 106.341 416.995C106.258 417.022 106.181 417.065 106.115 417.122C106.048 417.178 105.994 417.247 105.954 417.325C105.914 417.403 105.89 417.488 105.883 417.575C105.876 417.662 105.887 417.749 105.913 417.832C105.94 417.916 105.983 417.992 106.04 418.059C106.097 418.125 106.166 418.18 106.244 418.22C110.443 420.443 115.043 421.805 119.776 422.227C120.253 425.926 122.061 429.326 124.863 431.789C127.664 434.252 131.267 435.611 134.997 435.611C138.727 435.611 142.33 434.252 145.131 431.789C147.932 429.326 149.741 425.926 150.218 422.227C154.605 421.779 158.964 421.081 163.271 420.135C163.419 420.062 163.538 419.94 163.609 419.791C163.679 419.641 163.697 419.472 163.659 419.312C163.621 419.151 163.529 419.008 163.399 418.905C163.27 418.803 163.109 418.748 162.944 418.749ZM132.704 426.788C132.669 426.958 132.6 427.119 132.499 427.261C132.398 427.402 132.268 427.521 132.118 427.609C131.969 427.697 131.802 427.752 131.629 427.772C131.456 427.791 131.282 427.773 131.116 427.72C130.36 427.493 130.486 427.065 129.276 425.351C128.898 425.981 128.52 426.637 128.168 427.292C128.029 427.517 127.81 427.681 127.555 427.75C127.299 427.818 127.027 427.786 126.795 427.661C126.562 427.535 126.387 427.324 126.304 427.073C126.222 426.821 126.24 426.548 126.353 426.309C126.832 425.402 127.311 424.469 127.84 423.562C127.218 422.914 126.525 422.34 125.774 421.848C125.527 421.675 125.356 421.415 125.295 421.12C125.234 420.825 125.287 420.518 125.445 420.261C125.602 420.004 125.851 419.817 126.142 419.737C126.432 419.658 126.742 419.692 127.008 419.833C130.158 421.773 128.218 422 130.612 419.026C131.595 417.817 133.46 419.303 132.653 420.538C132.099 421.395 131.393 422.277 130.788 423.058C132.023 424.646 132.83 425.881 132.678 426.788H132.704ZM143.439 427.09C142.902 427.574 142.268 427.937 141.579 428.154C140.891 428.372 140.163 428.438 139.446 428.35C138.729 428.262 138.039 428.02 137.424 427.642C136.809 427.264 136.282 426.757 135.879 426.158C135.366 425.4 135.094 424.506 135.098 423.591C135.103 422.676 135.384 421.784 135.904 421.032C136.425 420.28 137.16 419.703 138.015 419.376C138.869 419.05 139.803 418.989 140.692 419.203C140.474 416.478 140.398 413.745 140.465 411.013C140.469 410.721 140.58 410.441 140.778 410.226C140.975 410.012 141.245 409.877 141.535 409.849C141.826 409.821 142.116 409.901 142.351 410.074C142.586 410.247 142.749 410.5 142.809 410.786C143.338 414.087 143.741 423.764 143.792 424.873C143.842 425.452 144.094 426.41 143.414 427.09H143.439ZM96.3401 278.108C96.7937 278.108 96.9197 278.108 96.9449 277.957C96.9449 277.528 96.0881 271.858 95.9873 271.178C88.8305 272.161 89.7377 278.763 96.3401 278.108Z" fill="black"/>
<path d="M114.156 254.218C111.169 254.628 108.207 255.208 105.286 255.957C102.937 253.675 100.073 251.993 96.9363 251.053C93.7995 250.113 90.4825 249.942 87.2658 250.555C84.049 251.168 81.0273 252.547 78.4563 254.575C75.8852 256.603 73.8405 259.22 72.4952 262.206C71.1499 265.191 70.5436 268.457 70.7275 271.726C70.9114 274.996 71.8802 278.173 73.5519 280.989C75.2236 283.804 77.549 286.176 80.3312 287.903C83.1135 289.63 86.2708 290.661 89.536 290.909C92.3793 298.914 97.3337 306.002 103.875 311.422C103.934 311.48 104.005 311.526 104.082 311.556C104.159 311.587 104.242 311.602 104.325 311.601C104.408 311.6 104.49 311.582 104.566 311.549C104.642 311.517 104.712 311.469 104.769 311.409C104.827 311.35 104.873 311.279 104.904 311.202C104.934 311.125 104.95 311.043 104.948 310.96C104.947 310.876 104.93 310.794 104.897 310.718C104.864 310.642 104.816 310.573 104.757 310.515C99.3014 304.805 94.884 298.188 91.7032 290.96C95.5013 290.816 99.1845 289.618 102.34 287.499C105.495 285.381 107.998 282.425 109.568 278.963C111.138 275.502 111.713 271.671 111.228 267.902C110.743 264.132 109.218 260.572 106.823 257.62C109.494 256.914 111.863 256.284 114.383 255.806C115.593 255.604 115.164 254.016 114.156 254.218ZM82.7068 279.72V260.972C82.7457 260.722 82.8724 260.495 83.0642 260.331C83.256 260.166 83.5001 260.076 83.7526 260.076C84.0051 260.076 84.2493 260.166 84.4411 260.331C84.6328 260.495 84.7596 260.722 84.7984 260.972C84.7984 264.701 85.2268 277.2 85.3024 279.72C85.2154 279.996 85.0426 280.237 84.8093 280.409C84.5759 280.58 84.294 280.672 84.0046 280.672C83.7152 280.672 83.4334 280.58 83.2 280.409C82.9666 280.237 82.7939 279.996 82.7068 279.72ZM98.1292 279.972C93.0892 282.669 86.3608 277.856 89.536 272.236C90.2323 271.236 91.1646 270.422 92.2504 269.869C93.3361 269.315 94.5418 269.037 95.7604 269.061C95.3394 266.315 95.087 263.546 95.0044 260.77C95.0177 260.497 95.1271 260.237 95.3132 260.037C95.4993 259.837 95.7503 259.709 96.0216 259.676C96.293 259.643 96.5673 259.706 96.7962 259.856C97.0251 260.005 97.1938 260.231 97.2724 260.493C97.7008 262.307 98.9104 274.378 99.0364 275.966C99.0868 277.2 99.6412 279.04 98.1292 279.846V279.972Z" fill="black"/>
</svg>